<svg xmlns="http://www.w3.org/2000/svg" height="512pt" viewBox="-49 0 512 512" width="512pt"><path d="M402.758 392.176l-87.543-106.551a14.217 14.217 0 0 0-.89-.988l-63.688-64.848a15 15 0 0 0-25.703 10.512v202.433c0 8.286 6.714 15 15 15H376.5c16.57 0 29.121-6.453 34.441-17.707 5.317-11.254 2.336-25.05-8.183-37.851zm0 0" fill="#ff39b1"/><path d="M239.934 289.2H111.398c-8.28 0-15 6.714-15 15v160.667c0 25.988 21.145 47.133 47.137 47.133 12.406 0 23.707-4.816 32.133-12.684 8.426 7.868 19.727 12.684 32.133 12.684 25.988 0 47.133-21.145 47.133-47.133V304.2c0-8.285-6.715-15-15-15zm0 0" fill="#005ab1"/><path d="M239.934 289.2h-64.266v210.116c8.426 7.868 19.727 12.684 32.133 12.684 25.988 0 47.133-21.145 47.133-47.133V304.2c0-8.285-6.715-15-15-15zm0 0" fill="#00345c"/><path d="M337.527 215.797l-58.586-58.586c-18.386-18.39-53.164-32.797-79.171-32.797h-48.204c-26.007 0-60.789 14.406-79.175 32.797l-58.586 58.586C4.902 224.699 0 236.535 0 249.125c0 12.59 4.902 24.426 13.805 33.324l32.133 32.137c8.902 8.902 20.738 13.805 33.328 13.805 10.453 0 20.386-3.38 28.55-9.621a15.04 15.04 0 0 0 3.582.43h128.536a15.04 15.04 0 0 0 3.582-.43c8.168 6.242 18.101 9.62 28.55 9.62 12.59 0 24.426-4.902 33.329-13.804l32.132-32.133c8.903-8.902 13.809-20.738 13.809-33.328 0-12.59-4.906-24.43-13.809-33.328zm0 0" fill="#73bcff"/><path d="M337.527 215.797l-58.586-58.586c-18.386-18.39-53.164-32.797-79.171-32.797h-24.102V319.2h64.266a15.04 15.04 0 0 0 3.582-.43c8.168 6.243 18.101 9.622 28.55 9.622 12.59 0 24.426-4.903 33.329-13.805l32.132-32.137c8.903-8.898 13.809-20.734 13.809-33.328 0-12.586-4.906-24.426-13.809-33.324zm0 0" fill="#0095ff"/><path d="M175.668 0c-42.57 0-77.207 34.637-77.207 77.207 0 42.57 34.637 77.207 77.207 77.207 42.57 0 77.203-34.637 77.203-77.207C252.871 34.637 218.238 0 175.668 0zm0 0" fill="#bb5d4c"/><path d="M122.008 219.691c-5.86-5.855-15.356-5.855-21.215 0l-18.824 18.825a15.003 15.003 0 0 0-4.395 10.605c0 3.977 1.582 7.793 4.395 10.606l9.414 9.414a17.011 17.011 0 0 1 5.015 12.105v.012a17 17 0 0 1-5.015 12.11c-5.86 5.859-5.86 15.355 0 21.214a14.948 14.948 0 0 0 10.605 4.395c3.836 0 7.676-1.465 10.606-4.395 8.898-8.898 13.804-20.727 13.808-33.312v-.032c-.004-12.02-4.476-23.351-12.632-32.097l8.238-8.239c5.86-5.855 5.86-15.351 0-21.21zm0 0" fill="#005ab1"/><path d="M254.934 281.25a17.033 17.033 0 0 1 5.02-12.11l9.413-9.41a15.008 15.008 0 0 0-.004-21.214l-18.824-18.82c-5.855-5.86-15.351-5.86-21.21 0-5.86 5.855-5.856 15.355 0 21.21l8.237 8.239c-8.156 8.746-12.629 20.078-12.632 32.097v.031c.004 12.586 4.91 24.414 13.804 33.313a14.957 14.957 0 0 0 10.61 4.394c3.836 0 7.675-1.464 10.605-4.394 5.856-5.856 5.856-15.356 0-21.211a17.017 17.017 0 0 1-5.02-12.11v-.007zm0 0" fill="#00345c"/><path d="M252.871 77.207C252.871 34.637 218.238 0 175.668 0v154.414c42.57 0 77.203-34.637 77.203-77.207zm0 0" fill="#a44f3e"/></svg>