<svg xmlns="http://www.w3.org/2000/svg" height="512pt" viewBox="-72 0 512 512.001" width="512pt"><path d="M185.309 0c-34.852 0-63.204 28.352-63.204 63.2v80.331c0 8.285 6.715 15 15 15 8.286 0 15-6.715 15-15h66.403c0 8.285 6.715 15 15 15 8.281 0 15-6.715 15-15V63.2c0-34.847-28.352-63.199-63.2-63.199zm0 0" fill="#f89580"/><path d="M185.309 0v143.531h33.199c0 8.285 6.715 15 15 15 8.281 0 15-6.715 15-15V63.2c0-34.847-28.352-63.199-63.2-63.199zm0 0" fill="#ec806b"/><path d="M350.531 276.082c0-13.828-4.773-26.566-12.75-36.652 18.133-10.125 30.422-29.508 30.422-51.711 0-32.637-26.55-59.188-59.183-59.188H79.266c-34.848 0-63.2 28.356-63.2 63.203 0 12.32 3.645 24.254 10.207 34.38C10.148 237.73 0 256.632 0 277.421s10.148 39.691 26.273 51.308c-6.562 10.125-10.207 22.06-10.207 34.38 0 20.792 10.145 39.695 26.274 51.312-6.563 10.125-10.207 22.058-10.207 34.379 0 34.847 28.351 63.199 63.199 63.199h153.996c32.633 0 59.184-26.55 59.184-59.184a58.825 58.825 0 0 0-8.11-29.875c28.348-4.37 50.13-28.937 50.13-58.492 0-17.547-7.677-33.336-19.848-44.183 12.168-10.848 19.847-26.633 19.847-44.184zm0 0" fill="#ffcebf"/><path d="M350.531 276.082c0-13.828-4.773-26.566-12.75-36.652 18.133-10.125 30.422-29.508 30.422-51.711 0-32.637-26.55-59.188-59.183-59.188H79.266c-34.848 0-63.2 28.356-63.2 63.203 0 12.32 3.645 24.254 10.207 34.38C10.148 237.73 0 256.632 0 277.421c0 16.312 6.25 31.465 16.73 42.844h313.954c12.168-10.848 19.847-26.633 19.847-44.184zm0 0" fill="#ffa78f"/></svg>