<svg xmlns="http://www.w3.org/2000/svg" height="512pt" viewBox="-33 0 512 512" width="512pt"><path d="M237.32 0C123.582 0 30.895 91.836 29.531 205.254L4.793 277.406c-6.793 19.82-6.348 37.27 1.227 47.867 4.535 6.352 11.539 9.993 19.218 9.993h4.282v25.168c0 30.418 24.746 55.164 55.168 55.164 13.874 0 25.164 11.293 25.164 25.168v16.066c0 30.418 24.746 55.168 55.168 55.168h112.464c30.418 0 55.168-24.75 55.168-55.168v-64.383c31.856-16.465 58.922-40.867 78.668-71.043 22.11-33.785 33.797-73.066 33.797-113.61C445.117 93.22 351.898 0 237.32 0zm0 0" fill="#ffcebf"/><path d="M237.32 0c-4.96 0-9.879.184-14.75.527V512h54.914c30.418 0 55.168-24.746 55.168-55.168v-64.383c31.856-16.465 58.922-40.867 78.668-71.043 22.11-33.785 33.797-73.066 33.797-113.605C445.117 93.219 351.898 0 237.32 0zm0 0" fill="#ffa78f"/><path d="M350.926 135.996H270.59c-8.281 0-15 6.715-15 15 0 8.281 6.719 15 15 15h44.12l-77.394 77.395-46.195-46.2c-5.86-5.855-15.355-5.855-21.215 0l-56.804 56.805c-5.86 5.86-5.86 15.356 0 21.215 5.855 5.855 15.355 5.855 21.214 0l46.196-46.2 46.199 46.2a15.003 15.003 0 0 0 10.605 4.394c3.977 0 7.793-1.582 10.606-4.394l88.004-88v44.117c0 8.285 6.715 15 15 15 8.281 0 15-6.715 15-15v-80.332c0-8.285-6.719-15-15-15zm0 0" fill="#80d398"/><path d="M350.926 135.996H270.59c-8.281 0-15 6.715-15 15 0 8.281 6.719 15 15 15h44.12l-77.394 77.395-14.75-14.75v42.425l4.145 4.145a15.003 15.003 0 0 0 10.605 4.394c3.977 0 7.793-1.582 10.606-4.394l88.004-88v44.117c0 8.285 6.715 15 15 15 8.281 0 15-6.715 15-15v-80.332c0-8.285-6.719-15-15-15zm0 0" fill="#00b44b"/></svg>