<svg xmlns="http://www.w3.org/2000/svg" height="512pt" viewBox="0 0 512 512" width="512pt"><path d="M256 0C187.617 0 123.332 26.629 74.98 74.98 26.63 123.332 0 187.621 0 256c0 45.004 11.852 89.273 34.273 128.027 2.782 4.809 7.82 7.493 13 7.493 2.543 0 5.122-.649 7.485-2.012l69.582-40.172a15 15 0 0 0 5.48-20.504c-12.75-22.035-19.488-47.223-19.488-72.832 0-80.32 65.348-145.668 145.668-145.668 8.281 0 15-6.715 15-15V15c0-8.285-6.719-15-15-15zm0 0" fill="#ebf6ff"/><path d="M199.195 327.805c-3.84 0-7.675-1.465-10.605-4.395-5.86-5.855-5.86-15.355 0-21.21L302.2 188.59c5.855-5.86 15.355-5.86 21.21 0 5.86 5.855 5.86 15.355 0 21.21L209.8 323.41a14.955 14.955 0 0 1-10.605 4.395zm0 0" fill="#005ab1"/><path d="M301.445 316.441c-3.949 0-7.82-1.597-10.61-4.39a15.128 15.128 0 0 1-4.39-10.61c0-3.949 1.602-7.808 4.39-10.609 2.79-2.789 6.661-4.39 10.61-4.39 3.95 0 7.813 1.601 10.602 4.39 2.8 2.8 4.398 6.66 4.398 10.61 0 3.949-1.601 7.812-4.398 10.609a15.08 15.08 0 0 1-10.602 4.39zm0 0" fill="#00345c"/><path d="M210.555 225.563c-3.95 0-7.809-1.61-10.61-4.399a15.114 15.114 0 0 1-4.39-10.61 15.11 15.11 0 0 1 4.39-10.6c2.801-2.802 6.66-4.4 10.61-4.4 3.953 0 7.812 1.598 10.61 4.4a15.11 15.11 0 0 1 4.39 10.6c0 3.95-1.602 7.821-4.39 10.61-2.802 2.79-6.657 4.399-10.61 4.399zm0 0" fill="#005ab1"/><path d="M437.02 74.98C388.664 26.63 324.379 0 256 0c-8.285 0-15 6.715-15 15v80.332c0 8.285 6.715 15 15 15 80.32 0 145.664 65.348 145.664 145.668 0 80.32-65.344 145.664-145.664 145.664-51.836 0-100.184-27.906-126.18-72.828-4.144-7.168-13.312-9.617-20.48-5.48l-69.582 40.171a14.996 14.996 0 0 0-5.48 20.5c22.105 38.207 53.886 70.246 91.913 92.66C165.383 499.79 210.27 512 256 512c68.379 0 132.664-26.629 181.02-74.98C485.37 388.668 512 324.379 512 256s-26.629-132.668-74.98-181.02zm0 0" fill="#80d398"/><path d="M437.02 74.98C388.664 26.63 324.379 0 256 0c-8.285 0-15 6.715-15 15v80.332c0 8.285 6.715 15 15 15 80.32 0 145.664 65.348 145.664 145.668 0 80.32-65.344 145.664-145.664 145.664V512c68.379 0 132.664-26.629 181.02-74.98C485.37 388.668 512 324.379 512 256s-26.629-132.668-74.98-181.02zm0 0" fill="#00b44b"/><path d="M256 512c-8.285 0-15-6.715-15-15v-80.336c0-8.281 6.715-15 15-15 8.281 0 15 6.719 15 15V497c0 8.285-6.719 15-15 15zm0 0M376.512 479.715c-5.184 0-10.227-2.688-13.004-7.5l-40.164-69.574c-4.145-7.172-1.684-16.348 5.488-20.489 7.176-4.144 16.348-1.683 20.492 5.489l40.164 69.574c4.145 7.172 1.684 16.348-5.488 20.488a14.942 14.942 0 0 1-7.488 2.012zm0 0M464.7 391.504c-2.548 0-5.126-.649-7.485-2.016l-69.57-40.164c-7.176-4.144-9.633-13.316-5.493-20.492 4.145-7.176 13.317-9.637 20.493-5.488l69.57 40.168c7.172 4.14 9.633 13.312 5.488 20.488-2.777 4.813-7.82 7.504-13.004 7.504zm0 0M497 271h-80.336c-8.281 0-15-6.715-15-15s6.719-15 15-15H497c8.281 0 15 6.715 15 15s-6.719 15-15 15zm0 0M395.156 190.668c-5.183 0-10.226-2.688-13.004-7.504-4.144-7.172-1.683-16.348 5.489-20.488l69.57-40.164c7.172-4.149 16.348-1.688 20.488 5.488 4.145 7.176 1.684 16.348-5.488 20.488l-69.57 40.168a14.928 14.928 0 0 1-7.485 2.012zm0 0M336.32 131.86c-2.547 0-5.125-.645-7.484-2.012-7.176-4.141-9.637-13.317-5.492-20.489l40.168-69.57c4.14-7.176 13.312-9.637 20.488-5.492 7.176 4.144 9.633 13.316 5.488 20.492l-40.164 69.57c-2.777 4.813-7.82 7.5-13.004 7.5zm0 0" fill="#00884a"/><path d="M135.484 479.715c-2.543 0-5.12-.649-7.484-2.012-7.176-4.14-9.633-13.316-5.488-20.488l40.164-69.574c4.14-7.172 13.312-9.633 20.492-5.489 7.172 4.141 9.633 13.317 5.488 20.489l-40.164 69.574c-2.781 4.808-7.82 7.5-13.008 7.5zm0 0" fill="#00b44b"/><path d="M323.41 188.59c-5.86-5.86-15.355-5.86-21.215 0L256 234.785v42.43l67.41-67.414c5.86-5.856 5.86-15.356 0-21.211zm0 0" fill="#00345c"/></svg>