<svg xmlns="http://www.w3.org/2000/svg" height="512pt" viewBox="-41 0 512 512.001" width="512pt"><path d="M414.398 332.227c-8.285 0-15 6.714-15 15v15l-24.316 24.32a14.94 14.94 0 0 0-10.61-4.395h-99.847c-35.8 0-64.926 29.125-64.926 64.926 0 35.797 29.125 64.922 64.926 64.922h99.848c35.8 0 64.925-29.125 64.925-64.922v-99.851c0-8.286-6.718-15-15-15zm0 0" fill="#f89580"/><path d="M359.934 18.156c-14.184 0-27.895 4.39-39.352 12.258C307.926 11.801 286.617 0 263.113 0c-23.508 0-44.816 11.8-57.476 30.414-11.453-7.867-25.164-12.258-39.348-12.258-23.508 0-44.816 11.797-57.476 30.414C97.358 40.7 83.644 36.31 69.465 36.31 31.16 36.309 0 67.469 0 105.773v193.973c0 35.8 29.125 64.922 64.926 64.922a64.563 64.563 0 0 0 35.297-10.453c3.496 32.527 31.109 57.937 64.55 57.937 20.051 0 38.008-9.136 49.926-23.464 11.918 14.328 29.875 23.464 49.926 23.464 19.559 0 37.43-9.441 49.45-24.039 11.913 14.657 30.081 24.04 50.398 24.04 35.8 0 64.925-29.126 64.925-64.926V87.617c0-38.3-31.16-69.46-69.464-69.46zm0 0" fill="#ffcebf"/><path d="M359.934 18.156c-14.184 0-27.895 4.39-39.352 12.258C307.926 11.801 286.617 0 263.113 0c-18.574 0-35.77 7.367-48.414 19.645v369.042c11.918 14.329 29.875 23.465 49.926 23.465 19.559 0 37.43-9.441 49.45-24.039 11.913 14.657 30.081 24.04 50.398 24.04 35.8 0 64.925-29.126 64.925-64.926V87.617c0-38.3-31.16-69.46-69.464-69.46zm0 0" fill="#ffa78f"/></svg>