<svg xmlns="http://www.w3.org/2000/svg" height="512pt" viewBox="0 0 512 512.001" width="512pt"><path d="M294.238 455.879c-20.441 0-41.746-7.695-55.433-21.383l-28.403-28.402c-5.855-5.856-5.855-15.356 0-21.211 5.86-5.86 15.356-5.86 21.215 0l28.403 28.398c11.375 11.375 34.418 16.02 49.308 9.938l52.36-21.387c5.015-2.047 8.253-5.016 8.886-8.144.63-3.125-1.207-7.118-5.039-10.95l-28.402-28.402c-5.856-5.86-5.856-15.356 0-21.215 5.86-5.855 15.355-5.855 21.215 0l28.398 28.402c11.063 11.059 15.887 24.946 13.234 38.09-2.648 13.149-12.472 24.078-26.949 29.992l-52.36 21.387c-8.108 3.313-17.183 4.887-26.433 4.887zm0 0" fill="#ff6d15"/><path d="M439.008 300.18L211.797 72.96a15.005 15.005 0 0 0-24.496 4.935L69.66 365.96a14.99 14.99 0 0 0 3.28 16.277l56.801 56.801a14.998 14.998 0 0 0 16.278 3.281l288.054-117.648c4.649-1.899 8.043-6 9.035-10.926a15 15 0 0 0-4.101-13.566zm0 0" fill="#fff4d8"/><path d="M325.406 186.57L101.34 410.637l28.402 28.402a14.998 14.998 0 0 0 16.278 3.281l288.054-117.648c4.649-1.899 8.043-6 9.035-10.926a15 15 0 0 0-4.101-13.566zm0 0" fill="#ffd864"/><path d="M428.406 98.57c-3.84 0-7.68-1.465-10.605-4.394-5.86-5.856-5.86-15.356 0-21.215l68.566-68.566c5.86-5.86 15.356-5.86 21.215 0 5.856 5.855 5.856 15.355 0 21.214l-68.57 68.567a14.948 14.948 0 0 1-10.606 4.394zm0 0" fill="#b2dcff"/><path d="M360.242 53.125c-3.84 0-7.68-1.465-10.61-4.395-5.855-5.855-5.855-15.355 0-21.21l23.13-23.125c5.855-5.86 15.355-5.86 21.21 0 5.86 5.855 5.86 15.355 0 21.21L370.849 48.73a14.955 14.955 0 0 1-10.606 4.395zm0 0" fill="#ebf6ff"/><path d="M473.848 166.734a14.95 14.95 0 0 1-10.606-4.39c-5.855-5.86-5.86-15.356 0-21.215L486.367 118c5.856-5.855 15.356-5.855 21.215 0 5.856 5.86 5.856 15.355 0 21.215l-23.125 23.129a14.97 14.97 0 0 1-10.61 4.39zm0 0" fill="#b2dcff"/><path d="M150.953 417.824l-56.8-56.8c-10.419-10.419-24.274-16.16-39.012-16.16-14.73 0-28.586 5.738-39.008 16.156-21.508 21.507-21.512 56.507 0 78.02l56.805 56.804C83.355 506.262 97.21 512 111.945 512h.004c14.735 0 28.59-5.738 39.004-16.156 10.422-10.418 16.16-24.274 16.16-39.008 0-14.738-5.738-28.59-16.16-39.012zm0 0M495.816 243.375L268.598 16.16C258.18 5.738 244.328 0 229.59 0 214.855 0 201 5.738 190.582 16.156c-10.418 10.422-16.156 24.274-16.156 39.012-.004 14.734 5.738 28.59 16.156 39.004l227.215 227.223c10.422 10.418 24.277 16.156 39.012 16.156h.003c14.735 0 28.586-5.738 39.004-16.156 21.508-21.512 21.508-56.512 0-78.02zm0 0" fill="#ff8e1d"/><path d="M72.938 495.844C83.355 506.262 97.21 512 111.945 512h.004c14.735 0 28.59-5.738 39.004-16.156 10.422-10.418 16.16-24.274 16.16-39.008 0-14.738-5.738-28.59-16.16-39.012l-28.402-28.402-78.016 78.02zm0 0M382.207 129.77l-78.016 78.015 113.606 113.61c10.422 10.418 24.277 16.156 39.012 16.156h.003c14.735 0 28.586-5.738 39.004-16.156 21.508-21.512 21.508-56.512 0-78.02zm0 0" fill="#ff6d15"/></svg>