<svg height="496pt" viewBox="0 -48 496 496" width="496pt" xmlns="http://www.w3.org/2000/svg"><path d="M344.96 258.879h-.089C293.191 288.079 248 310.719 248 368H0l8-32c112-72 210-24.64 272-192h38.719c-4.32 9.762-6.719 20.64-6.719 32 0 21.68 15.36 54.8 32.96 82.879zm0 0" fill="#5d9cec"/><path d="M0 368h248v32H0zm0 0" fill="#4a89dc"/><path d="M496 396.64V400H248v-32h248zm0 0" fill="#8cc152"/><path d="M344.96 258.879C363.192 288.16 383.833 312 392 312c11.512 0 47.762-47.441 67.281-90.559L496 368H248c0-57.281 45.191-79.922 96.871-109.121zm0 0" fill="#a0d468"/><path d="M423.922 222C438.48 211.922 448 195.04 448 176c0-30.96-25.129-56-56-56-30.96 0-56 25.04-56 56 0 19.04 9.512 35.84 24 46 9.04 6.32 20.16 10 32 10 11.832 0 22.871-3.68 31.922-10zM392 96c44.16 0 80 35.84 80 80 0 12.398-5.04 28.559-12.719 45.36.078.081 0 .081 0 .081C439.761 264.56 403.511 312 392 312c-8.168 0-28.809-23.84-47.04-53.121C327.36 230.8 312 197.679 312 176c0-11.36 2.398-22.238 6.719-32 12.32-28.238 40.472-48 73.281-48zm0 0" fill="#ed5565"/><path d="M392 192c16.96 0 30.871 13.281 31.922 30-9.05 6.32-20.09 10-31.922 10-11.84 0-22.96-3.68-32-10 1.04-16.719 14.96-30 32-30zm0 0" fill="#a0d468"/><path d="M408 176c0 8.8-7.2 16-16 16-8.879 0-16-7.2-16-16s7.121-16 16-16c8.8 0 16 7.2 16 16zm0 0" fill="#eac6bb"/><path d="M376 176c0 8.8 7.121 16 16 16-17.04 0-30.96 13.281-32 30-14.488-10.16-24-26.96-24-46 0-30.96 25.04-56 56-56 30.871 0 56 25.04 56 56 0 19.04-9.52 35.922-24.078 46-1.05-16.719-14.961-30-31.922-30 8.8 0 16-7.2 16-16s-7.2-16-16-16c-8.879 0-16 7.2-16 16zm0 0M152 96c-17.047 0-30.96 13.281-32 30-14.488-10.16-24-26.96-24-46 0-30.96 25.04-56 56-56 30.871 0 56 25.04 56 56 0 19.04-9.512 35.922-24.078 46-1.05-16.719-14.969-30-31.922-30 8.8 0 16-7.2 16-16s-7.2-16-16-16c-8.879 0-16 7.2-16 16s7.121 16 16 16zm0 0" fill="#da4453"/><path d="M168 80c0 8.8-7.2 16-16 16-8.879 0-16-7.2-16-16s7.121-16 16-16c8.8 0 16 7.2 16 16zm0 0" fill="#eac6bb"/><path d="M152 96c16.953 0 30.871 13.281 31.922 30-9.05 6.32-20.082 10-31.922 10s-22.96-3.68-32-10c1.04-16.719 14.953-30 32-30zm0 0" fill="#a0d468"/><path d="M93.922 144C81.442 120.96 72 96.96 72 80c0-44.16 35.762-80 80-80 44.16 0 80 35.84 80 80 0 16.96-9.441 40.96-21.922 64-20.156 37.121-48.23 72-58.078 72s-37.922-34.879-58.078-72zM96 80c0 19.04 9.512 35.84 24 46 9.04 6.32 20.16 10 32 10s22.871-3.68 31.922-10C198.488 115.922 208 99.04 208 80c0-30.96-25.129-56-56-56-30.96 0-56 25.04-56 56zm0 0" fill="#ed5565"/><path d="M93.922 144c20.156 37.121 48.23 72 58.078 72s37.922-34.879 58.078-72H280C218 311.36 120 264 8 336l48-192zm0 0" fill="#a0d468"/></svg>