<svg height="512pt" viewBox="0 -28 512 512" width="512pt" xmlns="http://www.w3.org/2000/svg"><path d="M488 0H24C10.77 0 0 10.77 0 24v320c0 13.23 10.77 24 24 24h464c13.23 0 24-10.77 24-24V24c0-13.23-10.77-24-24-24zm0 0M184 432h160c8.809 0 16 7.121 16 16v8H152v-8c0-8.879 7.129-16 16-16zm0 0" fill="#e6e9ed"/><path d="M312 368l16 64H184l16-64zm0 0" fill="#ccd1d9"/><path d="M256.238 352c-4.422 0-8.039-3.574-8.039-8s3.535-8 7.953-8h.086c4.418 0 8 3.574 8 8s-3.582 8-8 8zm0 0M16 320h480V24c0-4.406-3.586-8-8-8H24c-4.414 0-8 3.594-8 8zm0 0" fill="#656d78"/><path d="M144 64v64c-8.879 0-16 7.2-16 16 0 4.398 1.762 8.398 4.64 11.281L87.442 200.56C72.961 186.079 64 166.079 64 144c0-44.16 35.84-80 80-80zm0 0" fill="#48cfad"/><path d="M144 128c8.8 0 16 7.2 16 16s-7.2 16-16 16c-4.48 0-8.48-1.762-11.36-4.719A15.916 15.916 0 0 1 128 144c0-8.8 7.121-16 16-16zm0 0" fill="#656d78"/><path d="M144 64c44.16 0 80 35.84 80 80s-35.84 80-80 80c-22.078 0-42.078-8.96-56.559-23.441l45.2-45.278C135.52 158.238 139.52 160 144 160c8.8 0 16-7.2 16-16s-7.2-16-16-16zm0 0" fill="#ac92ec"/><path d="M327.984 224a7.99 7.99 0 0 1-8-8v-48c0-4.426 3.575-8 8-8 4.422 0 8 3.574 8 8v48c0 4.426-3.578 8-8 8zm0 0" fill="#48cfad"/><path d="M360.016 224c-4.422 0-8-3.574-8-8v-96c0-4.426 3.578-8 8-8 4.425 0 8 3.574 8 8v96c0 4.426-3.575 8-8 8zm0 0M423.984 224a7.99 7.99 0 0 1-8-8v-72c0-4.426 3.575-8 8-8 4.422 0 8 3.574 8 8v72c0 4.426-3.578 8-8 8zm0 0" fill="#ac92ec"/><path d="M391.984 224a7.99 7.99 0 0 1-8-8v-32c0-4.426 3.575-8 8-8 4.422 0 8 3.574 8 8v32c0 4.426-3.578 8-8 8zm0 0" fill="#48cfad"/><g fill="#434a54"><path d="M439.984 264H296.016c-4.422 0-8-3.574-8-8s3.578-8 8-8h143.968c4.422 0 8 3.574 8 8s-3.578 8-8 8zm0 0M399.984 288h-64c-4.425 0-8-3.574-8-8s3.575-8 8-8h64c4.422 0 8 3.574 8 8s-3.578 8-8 8zm0 0M215.969 264H80c-4.426 0-8-3.574-8-8s3.574-8 8-8h135.969c4.422 0 8 3.574 8 8s-3.578 8-8 8zm0 0M175.969 288h-48c-4.426 0-8-3.574-8-8s3.574-8 8-8h48c4.422 0 8 3.574 8 8s-3.578 8-8 8zm0 0"/></g><path d="M440.016 224h-144c-4.422 0-8-3.574-8-8s3.578-8 8-8h144c4.425 0 8 3.574 8 8s-3.575 8-8 8zm0 0" fill="#aab2bd"/><path d="M296.016 224c-4.422 0-8-3.574-8-8V72c0-4.426 3.578-8 8-8 4.425 0 8 3.574 8 8v144c0 4.426-3.575 8-8 8zm0 0" fill="#aab2bd"/></svg>