<svg height="512pt" viewBox="0 -28 512 512" width="512pt" xmlns="http://www.w3.org/2000/svg"><path d="M488 0H24C10.77 0 0 10.77 0 24v320c0 13.23 10.77 24 24 24h464c13.23 0 24-10.77 24-24V24c0-13.23-10.77-24-24-24zm0 0M184 432h160c8.809 0 16 7.121 16 16v8H152v-8c0-8.879 7.129-16 16-16zm0 0" fill="#e6e9ed"/><path d="M312 368l16 64H184l16-64zm0 0" fill="#ccd1d9"/><path d="M256.238 352c-4.422 0-8.039-3.574-8.039-8s3.535-8 7.953-8h.086c4.418 0 8 3.574 8 8s-3.582 8-8 8zm0 0" fill="#656d78"/><path d="M16 320h480V24c0-4.406-3.586-8-8-8H24c-4.414 0-8 3.594-8 8zm0 0" fill="#5d9cec"/><path d="M256 144c13.2 0 24 10.8 24 24s-10.8 24-24 24-24-10.8-24-24 10.8-24 24-24zm0 0" fill="#4a89dc"/><path d="M256 88c44.16 0 80 35.84 80 80s-35.84 80-80 80-80-35.84-80-80 35.84-80 80-80zm24 80c0-13.2-10.8-24-24-24s-24 10.8-24 24 10.8 24 24 24 24-10.8 24-24zm0 0" fill="#5d9cec"/><path d="M256 56c73.762 0 139.84 43.52 184 112-44.16 68.48-110.238 112-184 112S116.16 236.48 72 168C116.16 99.52 182.238 56 256 56zm80 112c0-44.16-35.84-80-80-80s-80 35.84-80 80 35.84 80 80 80 80-35.84 80-80zm0 0" fill="#f5f7fa"/></svg>