<svg height="496pt" viewBox="-24 0 496 496" width="496pt" xmlns="http://www.w3.org/2000/svg"><path d="M384 48h-48V0zm0 0" fill="#f5f7fa"/><path d="M336 48V0H64v208h320V48zm0 0" fill="#e6e9ed"/><path d="M240 208h16c0 17.68-14.32 32-32 32s-32-14.32-32-32zm0 0" fill="#aab2bd"/><path d="M168.016 104h-56c-4.422 0-8-3.574-8-8s3.578-8 8-8h56c4.425 0 8 3.574 8 8s-3.575 8-8 8zm0 0M335.984 104H200.016c-4.422 0-8-3.574-8-8s3.578-8 8-8h135.968c4.422 0 8 3.574 8 8s-3.578 8-8 8zm0 0M176.016 168h-64c-4.422 0-8-3.574-8-8s3.578-8 8-8h64c4.425 0 8 3.574 8 8s-3.575 8-8 8zm0 0M207.984 136h-95.968c-4.422 0-8-3.574-8-8s3.578-8 8-8h95.968c4.422 0 8 3.574 8 8s-3.578 8-8 8zm0 0M335.984 136h-96c-4.425 0-8-3.574-8-8s3.575-8 8-8h96c4.422 0 8 3.574 8 8s-3.578 8-8 8zm0 0" fill="#ccd1d9"/><path d="M0 160h24v40H0zm0 0" fill="#aab2bd"/><path d="M64.078 160v48H24v-56h40zm0 0" fill="#434a54"/><path d="M424 160h24v40h-24zm0 0" fill="#aab2bd"/><path d="M424 200v8h-40v-56h40zm0 0" fill="#434a54"/><path d="M224 192a7.99 7.99 0 0 1-8-8v-8c0-4.426 3.574-8 8-8s8 3.574 8 8v8c0 4.426-3.574 8-8 8zm0 0" fill="#aab2bd"/><path d="M240 207.52v.48h-31.922v-24H240zm0 0" fill="#ccd1d9"/><path d="M240 208h16c0 17.68-14.32 32-32 32s-32-14.32-32-32zm0 0" fill="#aab2bd"/><path d="M279.441 240A63.312 63.312 0 0 1 256 263.441c-9.36 5.438-20.32 8.559-32 8.559s-22.64-3.121-32-8.559A63.312 63.312 0 0 1 168.559 240c-5.438-9.36-8.559-20.32-8.559-32h32c0 17.68 14.32 32 32 32s32-14.32 32-32h32c0 11.68-3.121 22.64-8.559 32zm0 0" fill="#ccd1d9"/><path d="M288 208h92.96c-32.32 52.8-90.562 88-156.96 88S99.36 260.8 67.04 208H160c0 11.68 3.121 22.64 8.559 32A63.312 63.312 0 0 0 192 263.441c9.36 5.438 20.32 8.559 32 8.559s22.64-3.121 32-8.559A63.312 63.312 0 0 0 279.441 240c5.438-9.36 8.559-20.32 8.559-32zm0 0M0 432c0 17.68 14.32 32 32 32h384c17.68 0 32-14.32 32-32v32c0 17.68-14.32 32-32 32H32c-17.68 0-32-14.32-32-32zm0 0" fill="#434a54"/><path d="M380.96 208H408l40 224c0 17.68-14.32 32-32 32H32c-17.68 0-32-14.32-32-32l40-224h27.04c32.32 52.8 90.562 88 156.96 88s124.64-35.2 156.96-88zm0 0" fill="#656d78"/><g fill="#aab2bd"><path d="M224 272c2.71 0 5.375-.2 8-.527V264c0-4.426-3.574-8-8-8s-8 3.574-8 8v7.473c2.625.328 5.29.527 8 .527zm0 0M262.68 258.992l-3.75-6.496c-2.211-3.832-7.121-5.144-10.93-2.93-3.832 2.211-5.145 7.114-2.93 10.93l3.762 6.504a62.798 62.798 0 0 0 7.168-3.566c2.328-1.329 4.55-2.832 6.68-4.442zm0 0M265.566 232c-2.207 3.824-.894 8.719 2.93 10.93l6.496 3.75c1.61-2.13 3.113-4.352 4.45-6.68a63.445 63.445 0 0 0 3.566-7.168l-6.504-3.762c-3.832-2.215-8.711-.902-10.938 2.93zm0 0M171.504 229.07L165 232.832a62.798 62.798 0 0 0 3.566 7.168 62.388 62.388 0 0 0 4.45 6.68l6.496-3.75c3.832-2.211 5.144-7.114 2.93-10.93-2.227-3.832-7.13-5.145-10.938-2.93zm0 0M200 249.566a7.998 7.998 0 0 0-10.93 2.93l-3.75 6.496c2.13 1.61 4.352 3.113 6.68 4.45a63.445 63.445 0 0 0 7.168 3.566l3.762-6.504c2.215-3.824.902-8.719-2.93-10.938zm0 0M64 352c-4.426 0-8-3.574-8-8s3.574-8 8-8 8 3.574 8 8-3.574 8-8 8zm0 0"/></g><path d="M64 312c-13.465 0-24 7.023-24 16s10.535 16 24 16 24-7.023 24-16-10.535-16-24-16zm0 0" fill="#ccd1d9"/><path d="M144 352c-4.426 0-8-3.574-8-8s3.574-8 8-8 8 3.574 8 8-3.574 8-8 8zm0 0" fill="#aab2bd"/><path d="M144 312c-13.465 0-24 7.023-24 16s10.535 16 24 16 24-7.023 24-16-10.535-16-24-16zm0 0" fill="#ccd1d9"/><path d="M224 352c-4.426 0-8-3.574-8-8s3.574-8 8-8 8 3.574 8 8-3.574 8-8 8zm0 0" fill="#aab2bd"/><path d="M224 312c-13.465 0-24 7.023-24 16s10.535 16 24 16 24-7.023 24-16-10.535-16-24-16zm0 0" fill="#ccd1d9"/><path d="M304 352c-4.426 0-8-3.574-8-8s3.574-8 8-8 8 3.574 8 8-3.574 8-8 8zm0 0" fill="#aab2bd"/><path d="M304 312c-13.465 0-24 7.023-24 16s10.535 16 24 16 24-7.023 24-16-10.535-16-24-16zm0 0" fill="#ccd1d9"/><path d="M384 352c-4.426 0-8-3.574-8-8s3.574-8 8-8 8 3.574 8 8-3.574 8-8 8zm0 0" fill="#aab2bd"/><path d="M384 312c-13.465 0-24 7.023-24 16s10.535 16 24 16 24-7.023 24-16-10.535-16-24-16zm0 0" fill="#ccd1d9"/><path d="M64 432c-4.426 0-8-3.574-8-8s3.574-8 8-8 8 3.574 8 8-3.574 8-8 8zm0 0" fill="#aab2bd"/><path d="M64 392c-13.465 0-24 7.023-24 16s10.535 16 24 16 24-7.023 24-16-10.535-16-24-16zm0 0" fill="#ccd1d9"/><path d="M144 432c-4.426 0-8-3.574-8-8s3.574-8 8-8 8 3.574 8 8-3.574 8-8 8zm0 0" fill="#aab2bd"/><path d="M144 392c-13.465 0-24 7.023-24 16s10.535 16 24 16 24-7.023 24-16-10.535-16-24-16zm0 0" fill="#ccd1d9"/><path d="M224 432c-4.426 0-8-3.574-8-8s3.574-8 8-8 8 3.574 8 8-3.574 8-8 8zm0 0" fill="#aab2bd"/><path d="M224 392c-13.465 0-24 7.023-24 16s10.535 16 24 16 24-7.023 24-16-10.535-16-24-16zm0 0" fill="#ccd1d9"/><path d="M304 432c-4.426 0-8-3.574-8-8s3.574-8 8-8 8 3.574 8 8-3.574 8-8 8zm0 0" fill="#aab2bd"/><path d="M304 392c-13.465 0-24 7.023-24 16s10.535 16 24 16 24-7.023 24-16-10.535-16-24-16zm0 0" fill="#ccd1d9"/><path d="M384 432c-4.426 0-8-3.574-8-8s3.574-8 8-8 8 3.574 8 8-3.574 8-8 8zm0 0" fill="#aab2bd"/><path d="M384 392c-13.465 0-24 7.023-24 16s10.535 16 24 16 24-7.023 24-16-10.535-16-24-16zm0 0" fill="#ccd1d9"/><path d="M104 392c-4.426 0-8-3.574-8-8s3.574-8 8-8 8 3.574 8 8-3.574 8-8 8zm0 0" fill="#aab2bd"/><path d="M104 352c-13.465 0-24 7.023-24 16s10.535 16 24 16 24-7.023 24-16-10.535-16-24-16zm0 0" fill="#ccd1d9"/><path d="M184 392c-4.426 0-8-3.574-8-8s3.574-8 8-8 8 3.574 8 8-3.574 8-8 8zm0 0" fill="#aab2bd"/><path d="M184 352c-13.465 0-24 7.023-24 16s10.535 16 24 16 24-7.023 24-16-10.535-16-24-16zm0 0" fill="#ccd1d9"/><path d="M264 392c-4.426 0-8-3.574-8-8s3.574-8 8-8 8 3.574 8 8-3.574 8-8 8zm0 0" fill="#aab2bd"/><path d="M264 352c-13.465 0-24 7.023-24 16s10.535 16 24 16 24-7.023 24-16-10.535-16-24-16zm0 0" fill="#ccd1d9"/><path d="M344 392c-4.426 0-8-3.574-8-8s3.574-8 8-8 8 3.574 8 8-3.574 8-8 8zm0 0" fill="#aab2bd"/><path d="M344 352c-13.465 0-24 7.023-24 16s10.535 16 24 16 24-7.023 24-16-10.535-16-24-16zm0 0" fill="#ccd1d9"/></svg>