<svg height="496pt" viewBox="0 0 496 496" width="496pt" xmlns="http://www.w3.org/2000/svg"><g fill="#434a54"><path d="M168 176a7.984 7.984 0 0 1-5.656-2.344L56.793 68.106a7.99 7.99 0 0 1 0-11.313 7.99 7.99 0 0 1 11.312 0l105.551 105.55a7.99 7.99 0 0 1 0 11.313A7.984 7.984 0 0 1 168 176zm0 0M335.047 168.953a7.99 7.99 0 0 1-5.656-2.344 7.997 7.997 0 0 1 0-11.312l91.457-91.465a7.99 7.99 0 0 1 11.312 0 7.99 7.99 0 0 1 0 11.313l-91.457 91.464a7.977 7.977 0 0 1-5.656 2.344zm0 0M71.785 432.215a7.96 7.96 0 0 1-5.656-2.344 7.99 7.99 0 0 1 0-11.312l86.879-86.88a7.99 7.99 0 0 1 11.312 0 7.99 7.99 0 0 1 0 11.313l-86.879 86.88a7.955 7.955 0 0 1-5.656 2.343zm0 0M426.504 434.504a7.984 7.984 0 0 1-5.656-2.344l-91.457-91.457a7.997 7.997 0 0 1 0-11.312 7.997 7.997 0 0 1 11.312 0l91.465 91.464a7.99 7.99 0 0 1-5.664 13.649zm0 0"/></g><path d="M440 72c17.031 0 30.953 13.281 31.922 30-9.05 6.32-20.082 10-31.922 10s-22.871-3.68-31.922-10c1.05-16.719 14.953-30 31.922-30zm0 0" fill="#48cfad"/><path d="M424 56c0 8.8 7.2 16 16 16-16.969 0-30.871 13.281-31.922 30a55.126 55.126 0 0 1-7.687-6.398C390.312 85.442 384 71.52 384 56c0-30.96 25.129-56 56-56 30.953 0 56 25.04 56 56 0 19.121-9.512 35.922-24.078 46-.969-16.719-14.89-30-31.922-30 8.871 0 16-7.2 16-16s-7.129-16-16-16c-8.8 0-16 7.2-16 16zm0 0M95.594 95.602C93.28 98 90.64 100.152 87.922 102 86.953 85.281 73.032 72 56 72c8.871 0 16-7.2 16-16s-7.129-16-16-16c-8.8 0-16 7.2-16 16s7.2 16 16 16c-16.969 0-30.871 13.281-31.922 30C9.512 91.922 0 75.04 0 56 0 25.04 25.129 0 56 0c30.953 0 56 25.04 56 56 0 15.52-6.23 29.441-16.406 39.602zm0 0" fill="#656d78"/><path d="M56 72c17.031 0 30.953 13.281 31.922 30-9.05 6.32-20.082 10-31.922 10s-22.871-3.68-31.922-10C25.128 85.281 39.031 72 56 72zm0 0" fill="#ac92ec"/><path d="M56 0c-2.063 0-4.078.121-6.078.344-.035 0-.067.008-.113.015a58.531 58.531 0 0 0-5.793.961C69.168 6.816 88 29.168 88 56c0 10.137-2.703 19.559-7.375 27.727 4.168 5.058 6.887 11.328 7.297 18.273 2.719-1.84 5.36-4 7.672-6.398C105.77 85.442 112 71.52 112 56c0-30.96-25.047-56-56-56zm0 0" fill="#434a54"/><path d="M71.594 95.602C69.28 98 66.64 100.152 63.922 102c-5.89 4.121-12.676 6.96-19.922 8.543 1.719.387 3.473.68 5.23.93 2.243.28 4.473.527 6.77.527 11.84 0 22.871-3.68 31.922-10-.41-6.945-3.129-13.215-7.297-18.273-2.48 4.343-5.496 8.343-9.031 11.875zm0 0" fill="#967adc"/><path d="M440 0c-2.063 0-4.078.121-6.078.344-.035 0-.067.008-.113.015a59.07 59.07 0 0 0-5.801.961C453.168 6.816 472 29.168 472 56c0 10.137-2.703 19.559-7.375 27.727 4.168 5.058 6.887 11.328 7.297 18.273 2.719-1.84 5.36-4 7.672-6.398C489.77 85.442 496 71.52 496 56c0-30.96-25.047-56-56-56zm0 0" fill="#434a54"/><path d="M455.594 95.602c-2.313 2.398-4.953 4.55-7.672 6.398-5.89 4.121-12.676 6.96-19.922 8.543 1.719.387 3.473.68 5.23.93 2.243.28 4.473.527 6.77.527 11.84 0 22.871-3.68 31.922-10-.41-6.945-3.129-13.215-7.297-18.273-2.48 4.343-5.496 8.343-9.031 11.875zm0 0" fill="#37bc9b"/><path d="M56 456c17.031 0 30.953 13.281 31.922 30-9.05 6.32-20.082 10-31.922 10s-22.871-3.68-31.922-10c1.05-16.719 14.953-30 31.922-30zm0 0" fill="#48cfad"/><path d="M40 440c0 8.8 7.2 16 16 16-16.969 0-30.871 13.281-31.922 30C9.512 475.922 0 459.04 0 440c0-30.96 25.129-56 56-56 15.441 0 29.512 6.238 39.594 16.398C105.77 410.558 112 424.48 112 440c0 19.121-9.512 35.922-24.078 46-.969-16.719-14.89-30-31.922-30 8.871 0 16-7.2 16-16s-7.129-16-16-16c-8.8 0-16 7.2-16 16zm0 0" fill="#656d78"/><path d="M440 456c17.031 0 30.953 13.281 31.922 30-9.05 6.32-20.082 10-31.922 10s-22.871-3.68-31.922-10c1.05-16.719 14.953-30 31.922-30zm0 0" fill="#ac92ec"/><path d="M424 440c0 8.8 7.2 16 16 16-16.969 0-30.871 13.281-31.922 30C393.512 475.922 384 459.04 384 440c0-15.52 6.313-29.441 16.39-39.602C410.56 390.238 424.56 384 440 384c30.953 0 56 25.04 56 56 0 19.121-9.512 35.922-24.078 46-.969-16.719-14.89-30-31.922-30 8.871 0 16-7.2 16-16s-7.129-16-16-16c-8.8 0-16 7.2-16 16zm0 0" fill="#656d78"/><path d="M327.84 343.762C304.953 359.122 277.512 368 248 368c-29.61 0-57.047-8.96-79.922-24.32C129.441 318 104 273.922 104 224v48c0 33.68 11.512 64.64 30.871 89.121 9.36 11.84 20.563 22.238 33.129 30.559 22.871 15.36 50.39 24.32 80 24.32 29.594 0 57.129-8.96 80-24.32 38.559-25.758 64-69.758 64-119.68v-48c0 50-25.512 94-64.16 119.762zm0 0" fill="#f6bb42"/><path d="M248 280h-32v-16.559c-19.129-11.12-32-31.761-32-55.441 0-35.36 28.719-64 64-64 35.36 0 64 28.64 64 64 0 23.68-12.8 44.32-32 55.441V280zm0 0" fill="#f5f7fa"/><path d="M248 144c-4.105 0-8.105.426-11.992 1.168C265.618 150.793 288 176.754 288 208c0 23.68-12.8 36.32-32 47.441V280h24v-16.559c19.2-11.12 32-31.761 32-55.441 0-35.36-28.64-64-64-64zm0 0" fill="#e6e9ed"/><path d="M216 304l8 8h48l8-8v-40.559c19.2-11.12 32-31.761 32-55.441 0-35.36-28.64-64-64-64-35.281 0-64 28.64-64 64 0 23.68 12.871 44.32 32 55.441zm176-80c0 50-25.512 94-64.16 119.762C304.953 359.122 277.512 368 248 368c-29.61 0-57.047-8.96-79.922-24.32C129.441 318 104 273.922 104 224c0-33.68 11.512-64.64 30.871-89.121C161.281 101.44 202.161 80 248 80c79.512 0 144 64.48 144 144zm0 0" fill="#ffce54"/><path d="M440 384c-2.047 0-4.078.121-6.063.344a.415.415 0 0 0-.113.015 58.616 58.616 0 0 0-5.816.961C453.184 390.816 472 413.168 472 440a55.56 55.56 0 0 1-7.36 27.727c4.16 5.058 6.887 11.328 7.282 18.273 2.719-1.84 5.36-4 7.687-6.398C489.77 469.442 496 455.52 496 440c0-30.96-25.031-56-56-56zm0 0" fill="#434a54"/><path d="M455.61 479.602c-2.329 2.398-4.97 4.55-7.688 6.398-5.875 4.121-12.676 6.96-19.922 8.543a68.24 68.24 0 0 0 5.246.93c2.227.28 4.457.527 6.754.527 11.84 0 22.887-3.68 31.922-10-.395-6.945-3.129-13.215-7.281-18.273-2.48 4.343-5.496 8.343-9.032 11.875zm0 0" fill="#967adc"/><path d="M56 384c-2.047 0-4.078.121-6.063.344a.415.415 0 0 0-.113.015 58.616 58.616 0 0 0-5.816.961C69.184 390.816 88 413.168 88 440a55.56 55.56 0 0 1-7.36 27.727c4.16 5.058 6.887 11.328 7.282 18.273 2.719-1.84 5.36-4 7.687-6.398C105.77 469.442 112 455.52 112 440c0-30.96-25.031-56-56-56zm0 0" fill="#434a54"/><path d="M71.61 479.602c-2.329 2.398-4.97 4.55-7.688 6.398-5.875 4.121-12.676 6.96-19.922 8.543a68.24 68.24 0 0 0 5.246.93c2.227.28 4.457.527 6.754.527 11.84 0 22.887-3.68 31.922-10-.395-6.945-3.129-13.215-7.281-18.273-2.48 4.343-5.496 8.343-9.032 11.875zm0 0" fill="#37bc9b"/><path d="M240 367.695v48c2.656.145 5.313.305 8 .305s5.344-.16 8-.305v-47.992c-2.656.137-5.313.297-8 .297-2.695 0-5.344-.16-8-.305zm0 0M320 348.625v48.016c2.719-1.579 5.398-3.207 8-4.961 2.742-1.832 5.398-3.785 8-5.793v-48.032c-2.656 2.047-5.36 4.032-8.16 5.899-2.55 1.719-5.176 3.316-7.84 4.871zm0 0M160 337.848v48.047c2.61 2.007 5.258 3.96 8 5.785 2.602 1.754 5.281 3.382 8 4.96v-48.046c-2.688-1.563-5.344-3.18-7.922-4.914a143.184 143.184 0 0 1-8.078-5.832zm0 0" fill="#edab37"/><path d="M264 208h-32c-4.426 0-8 3.574-8 8s3.574 8 8 8h8v56c0 4.426 3.574 8 8 8s8-3.574 8-8v-56h8c4.426 0 8-3.574 8-8s-3.574-8-8-8zm0 0" fill="#ffce54"/><path d="M280 280v24l-8 8h-48l-8-8v-24zm0 0" fill="#656d78"/><path d="M256 280v24l-8 8h24l8-8v-24zm0 0" fill="#434a54"/><path d="M460 440c0 11-8.902 20-20 20-11 0-20-9-20-20s9-20 20-20c11.098 0 20 9 20 20zm0 0M76 440c0 11-8.902 20-20 20-11 0-20-9-20-20s9-20 20-20c11.098 0 20 9 20 20zm0 0M76 56c0 11-8.902 20-20 20-11 0-20-9-20-20s9-20 20-20c11.098 0 20 9 20 20zm0 0M460 56c0 11-8.902 20-20 20-11 0-20-9-20-20s9-20 20-20c11.098 0 20 9 20 20zm0 0" fill="#eac6bb"/></svg>