<svg height="496pt" viewBox="0 -8 496 496" width="496pt" xmlns="http://www.w3.org/2000/svg"><path d="M0 440h192v32H0zm0 0M304 440h192v32H304zm0 0" fill="#e6e9ed"/><path d="M304 472v8H192v-48h32v-32h48v32h32zm0 0" fill="#ed5565"/><path d="M232 352h32v48h-32zm0 0" fill="#e6e9ed"/><path d="M448 24v40H48V0h96l24 24zm0 0" fill="#f6bb42"/><path d="M480 64l-32 288H48L16 64zm0 0" fill="#ffce54"/><g fill="#f6bb42"><path d="M352 192H144c-4.426 0-8-3.574-8-8s3.574-8 8-8h208c4.426 0 8 3.574 8 8s-3.574 8-8 8zm0 0M352 224H144c-4.426 0-8-3.574-8-8s3.574-8 8-8h208c4.426 0 8 3.574 8 8s-3.574 8-8 8zm0 0M296 256h-96c-4.426 0-8-3.574-8-8s3.574-8 8-8h96c4.426 0 8 3.574 8 8s-3.574 8-8 8zm0 0"/></g></svg>