<svg height="496pt" viewBox="0 0 496.002 496" width="496pt" xmlns="http://www.w3.org/2000/svg"><path d="M448 248h-64c-8.824 0-16-7.176-16-16s7.176-16 16-16h8c17.648 0 32-14.352 32-32s-14.352-32-32-32H168c-4.426 0-8 3.578-8 8 0 4.426 3.574 8 8 8h224c8.824 0 16 7.176 16 16s-7.176 16-16 16h-8c-17.648 0-32 14.352-32 32s14.352 32 32 32h64c8.824 0 16 7.176 16 16s-7.176 16-16 16H312c-4.426 0-8 3.578-8 8 0 4.426 3.574 8 8 8h136c17.648 0 32-14.352 32-32s-14.352-32-32-32zm0 0" fill="#a0d468"/><path d="M160 375.754l8 24h-36.559l-3.441-24zm0 0" fill="#434a54"/><path d="M131.441 399.754l12.559 88H88l-16-112h56zm0 0" fill="#656d78"/><path d="M0 303.754c0-39.762 32.238-72 72-72h128v144H72c-39.762 0-72-32.25-72-72zm0 0" fill="#ed5565"/><path d="M312 231.754v144c0 22.078-17.922 40-40 40-22.16 0-40-17.922-40-40v-56h40c8.809 0 16-7.2 16-16s-7.191-16-16-16h-40v-56c0-22.082 17.84-40 40-40 22.078 0 40 17.918 40 40zm0 0" fill="#e6e9ed"/><path d="M272 415.754c4.215 0 8.2-.832 12.016-2.031-16.184-5.13-28.016-20.098-28.016-37.97v-144c0-17.87 11.832-32.839 28.016-37.968-3.817-1.2-7.801-2.031-12.016-2.031-22.078 0-40 17.918-40 40v144c0 22.078 17.922 40 40 40zm0 0" fill="#ccd1d9"/><path d="M264 191.754h8c-22.16 0-40 17.918-40 40v144c0 22.078 17.84 40 40 40h-32c-22.16 0-40-17.922-40-40v-144c0-22.082 17.84-40 40-40zm0 0" fill="#f5f7fa"/><path d="M272 287.754c8.809 0 16 7.2 16 16s-7.191 16-16 16h-40v-32zm0 0" fill="#ed5565"/><path d="M232 287.754h24v32h-24zm0 0" fill="#da4453"/><path d="M168 0c35.36 0 64 28.64 64 64s-48 104-64 104-64-68.64-64-104 28.64-64 64-64zm0 0" fill="#a0d468"/><path d="M168 0c-4.113 0-8.113.426-12 1.168C185.61 6.785 208 32.754 208 64c0 28.664-31.527 79.168-52 97.29 4.785 4.23 8.969 6.71 12 6.71 16 0 64-68.64 64-104S203.36 0 168 0zm0 0" fill="#8cc152"/><path d="M152 496H88a7.99 7.99 0 0 1-8-8c0-4.422 3.574-8 8-8h64c4.426 0 8 3.578 8 8 0 4.426-3.574 8-8 8zm0 0" fill="#ed5565"/><path d="M40 296H.434A72.643 72.643 0 0 0 0 303.754c0 2.8.191 5.535.504 8.246H40c4.426 0 8-3.574 8-8 0-4.422-3.574-8-8-8zm0 0M40 264H11.992c-3.273 4.938-5.902 10.313-7.894 16H40c4.426 0 8-3.574 8-8 0-4.422-3.574-8-8-8zm0 0M40 328H4.281c2.032 5.688 4.688 11.082 8.016 16H40c4.426 0 8-3.574 8-8 0-4.422-3.574-8-8-8zm0 0" fill="#da4453"/><path d="M191.527 98.105a7.832 7.832 0 0 0 .32-1.609c.024-.262.153-.48.153-.742 0-.25-.121-.465-.145-.703-.046-.54-.16-1.051-.32-1.578s-.351-1.016-.605-1.496c-.121-.215-.137-.457-.274-.665l-23.71-35.558H184c4.426 0 8-3.578 8-8 0-4.426-3.574-8-8-8h-8c0-4.426-3.574-8-8-8s-8 3.574-8 8h-8c-.246 0-.465.117-.703.144-.535.047-1.05.16-1.578.32s-1.016.352-1.496.606c-.207.121-.461.137-.664.274-.215.152-.336.375-.528.527-.437.36-.816.734-1.16 1.168a7.406 7.406 0 0 0-.832 1.23c-.23.442-.414.891-.559 1.38a7.865 7.865 0 0 0-.328 1.605c-.023.258-.152.48-.152.746 0 .246.121.457.145.703.046.535.16 1.047.32 1.574.16.532.351 1.02.605 1.496.121.211.137.457.274.664l23.71 35.563H152a7.99 7.99 0 0 0-8 8c0 4.422 3.574 8 8 8h8c0 4.422 3.574 8 8 8s8-3.578 8-8h8.008c.93 0 1.847-.219 2.754-.555.285-.11.543-.246.824-.39.285-.145.582-.215.855-.399.215-.152.336-.379.528-.527a7.993 7.993 0 0 0 1.16-1.168c.328-.403.598-.793.832-1.235.23-.44.414-.894.566-1.375zm0 0" fill="#434a54"/><g fill="#ed5565"><path d="M487.313 196l6.343-6.344a7.99 7.99 0 0 0 0-11.312 7.997 7.997 0 0 0-11.312 0L476 184.688l-6.344-6.344a7.997 7.997 0 0 0-11.312 0 7.99 7.99 0 0 0 0 11.312l6.344 6.344-6.344 6.344a7.99 7.99 0 0 0 0 11.312c1.558 1.563 3.61 2.344 5.656 2.344s4.098-.781 5.656-2.344l6.344-6.344 6.344 6.344c1.558 1.563 3.61 2.344 5.656 2.344s4.098-.781 5.656-2.344a7.99 7.99 0 0 0 0-11.312zm0 0M317.656 66.344a7.997 7.997 0 0 0-11.312 0L300 72.688l-6.344-6.344a7.997 7.997 0 0 0-11.312 0 7.99 7.99 0 0 0 0 11.312L288.688 84l-6.344 6.344a7.99 7.99 0 0 0 0 11.312c1.558 1.563 3.61 2.344 5.656 2.344s4.098-.781 5.656-2.344L300 95.312l6.344 6.344c1.558 1.563 3.61 2.344 5.656 2.344s4.098-.781 5.656-2.344a7.99 7.99 0 0 0 0-11.312L311.312 84l6.344-6.344a7.99 7.99 0 0 0 0-11.312zm0 0M453.656 42.344L447.312 36l6.344-6.344a7.99 7.99 0 0 0 0-11.312 7.997 7.997 0 0 0-11.312 0L436 24.687l-6.344-6.343a7.997 7.997 0 0 0-11.312 0 7.99 7.99 0 0 0 0 11.312L424.688 36l-6.344 6.344a7.99 7.99 0 0 0 0 11.312C419.902 55.22 421.954 56 424 56s4.098-.781 5.656-2.344L436 47.313l6.344 6.343C443.902 55.22 445.954 56 448 56s4.098-.781 5.656-2.344a7.99 7.99 0 0 0 0-11.312zm0 0M77.656 146.344a7.997 7.997 0 0 0-11.312 0L60 152.688l-6.344-6.344a7.997 7.997 0 0 0-11.312 0 7.99 7.99 0 0 0 0 11.312L48.687 164l-6.343 6.344a7.99 7.99 0 0 0 0 11.312C43.902 183.22 45.954 184 48 184s4.098-.781 5.656-2.344L60 175.312l6.344 6.344C67.902 183.22 69.954 184 72 184s4.098-.781 5.656-2.344a7.99 7.99 0 0 0 0-11.312L71.312 164l6.344-6.344a7.99 7.99 0 0 0 0-11.312zm0 0"/></g></svg>