<svg height="488pt" viewBox="-36 0 488 488" width="488pt" xmlns="http://www.w3.org/2000/svg"><path d="M264 24h48.16L304 36l8.16 12h-58.824l5.336-8zm0 0" fill="#da4453"/><path d="M208 16h56v24h-56zm0 0" fill="#ed5565"/><path d="M208 112a7.99 7.99 0 0 1-8-8V8c0-4.426 3.574-8 8-8s8 3.574 8 8v96c0 4.426-3.574 8-8 8zm0 0" fill="#656d78"/><path d="M296 192c0 37.281-23.2 69.2-56 82-9.922 3.84-20.719 6-32 6s-22.078-2.16-32-6c-32.8-12.8-56-44.719-56-82 0-48.64 39.36-88 88-88s88 39.36 88 88zm0 0" fill="#ffce54"/><path d="M240 274c-9.922 3.84-20.719 6-32 6s-22.078-2.16-32-6c-32.8-12.8-56-44.719-56-82v32c0 27.281 12.48 51.762 32 67.922 7.121 5.918 15.2 10.637 24 14.078 9.922 3.84 20.719 6 32 6s22.078-2.16 32-6c8.8-3.441 16.879-8.16 24-14.078 19.52-16.168 32-40.64 32-67.922v-32c0 37.281-23.2 69.2-56 82zm0 0" fill="#f6bb42"/><path d="M336 408h32l48 80H0l64-104h32l56-92.078c7.121 5.918 15.2 10.637 24 14.078 9.922 3.84 20.719 6 32 6s22.078-2.16 32-6c8.8-3.441 16.879-8.16 24-14.078zm0 0" fill="#ccd1d9"/><g fill="#aab2bd"><path d="M368 408h-32l48 80h32zm0 0M240.574 305.754L304 408h32l-72-116.078c-6.96 5.789-14.848 10.406-23.426 13.832zm0 0M136 400c4.426 0 8-3.574 8-8s-3.574-8-8-8H64l-9.84 16zm0 0"/><path d="M272 416c0 4.426 3.574 8 8 8h97.602L368 408h-88a7.99 7.99 0 0 0-8 8zm0 0"/></g><path d="M168 270.344v32.015c2.602 1.329 5.246 2.57 8 3.641a90.933 90.933 0 0 0 8 2.656v-32a90.933 90.933 0 0 1-8-2.656c-2.754-1.07-5.398-2.32-8-3.656zm0 0M232 276.656v32a93.593 93.593 0 0 0 8-2.656c2.754-1.07 5.398-2.313 8-3.64v-32.016c-2.602 1.336-5.246 2.586-8 3.656a93.593 93.593 0 0 1-8 2.656zm0 0M208 224a7.99 7.99 0 0 1-8-8v-56c0-4.426 3.574-8 8-8s8 3.574 8 8v56c0 4.426-3.574 8-8 8zm0 0" fill="#f6bb42"/></svg>