<svg height="496pt" viewBox="0 -64 496 496" width="496pt" xmlns="http://www.w3.org/2000/svg"><path d="M336 256v-64h56l32 144H40l36-144h68v64zm0 0" fill="#5d9cec"/><path d="M440 248c8.8 0 16 5.36 16 12s-7.2 12-16 12-16-5.36-16-12 7.2-12 16-12zm0 0" fill="#656d78"/><path d="M456 260c0-6.64-7.2-12-16-12s-16 5.36-16 12 7.2 12 16 12 16-5.36 16-12zm3.762-56.8l35.117 110.878A16.206 16.206 0 0 1 496 320c0 8.8-7.2 16-16 16h-56l-32-144h52.48c7.2 0 13.282 4.719 15.282 11.2zm0 0" fill="#434a54"/><path d="M496 320v32c0 8.8-7.2 16-16 16H144v-32h336c8.8 0 16-7.2 16-16zm0 0M16 336h64v32H16c-8.8 0-16-7.2-16-16v-32c0 8.8 7.2 16 16 16zm0 0" fill="#656d78"/><path d="M51.52 192H76L40 336H16c-8.8 0-16-7.2-16-16 0-2.078.398-4.078 1.121-5.922L36.238 203.2c2-6.48 8.082-11.199 15.282-11.199zm0 0" fill="#434a54"/><path d="M40.238 264c-4.422 0-8.039-3.574-8.039-8s3.535-8 7.953-8h.086c4.418 0 8 3.574 8 8s-3.582 8-8 8zm0 0" fill="#5d9cec"/><path d="M344 264H136c-4.426 0-8-3.574-8-8s3.574-8 8-8h208c4.426 0 8 3.574 8 8s-3.574 8-8 8zm0 0" fill="#4a89dc"/><path d="M272 176c0 17.672-14.328 32-32 32s-32-14.328-32-32 14.328-32 32-32 32 14.328 32 32zm0 0" fill="#a0d468"/><path d="M312 40v216H168V40c8.879 0 16-7.121 16-16h112c0 8.879 7.121 16 16 16zm-40 136c0-17.68-14.32-32-32-32s-32 14.32-32 32 14.32 32 32 32 32-14.32 32-32zm0 0" fill="#8cc152"/><path d="M336 0v256h-24V40c-8.879 0-16-7.121-16-16H184c0 8.879-7.121 16-16 16v216h-24V0zm0 0" fill="#a0d468"/><path d="M108 336h8v32h-8zm0 0" fill="#656d78"/><g fill="#434a54"><path d="M116 336h32v32h-32zm0 0M76 336h32v32H76zm0 0"/></g></svg>