<svg height="512pt" viewBox="0 0 512 512" width="512pt" xmlns="http://www.w3.org/2000/svg"><path d="M136 168h32c0 17.68-14.32 32-32 32zm0 0M168 288h-32v-32c17.68 0 32 14.32 32 32zm0 0" fill="#8cc152"/><path d="M232 168v120h-64c0-17.68-14.32-32-32-32v-56c17.68 0 32-14.32 32-32zm0 0" fill="#a0d468"/><path d="M280 312v24h-48V168h48zm0 0" fill="#f5f7fa"/><path d="M376 168v32c-17.68 0-32-14.32-32-32zm0 0M376 256v32h-32c0-17.68 14.32-32 32-32zm0 0" fill="#8cc152"/><path d="M376 200v56c-17.68 0-32 14.32-32 32h-64V168h64c0 17.68 14.32 32 32 32zm0 0" fill="#a0d468"/><path d="M136 312v24h240V168H136zm336-56c0 119.281-96.719 216-216 216S40 375.281 40 256 136.719 40 256 40s216 96.719 216 216zm0 0" fill="#ac92ec"/><path d="M256 40c-5.39 0-10.71.266-16 .656C351.809 48.848 440 142.113 440 256s-88.191 207.152-200 215.344c5.29.39 10.61.656 16 .656 119.281 0 216-96.719 216-216S375.281 40 256 40zm0 0" fill="#967adc"/><path d="M232 288h48v48h-48zm0 0" fill="#e6e9ed"/><path d="M256 480C132.488 480 32 379.512 32 256S132.488 32 256 32s224 100.488 224 224-100.488 224-224 224zm0-432C141.305 48 48 141.305 48 256s93.305 208 208 208 208-93.305 208-208S370.695 48 256 48zm0 0" fill="#434a54"/><g fill="#656d78"><path d="M72 264H8c-4.426 0-8-3.574-8-8s3.574-8 8-8h64c4.426 0 8 3.574 8 8s-3.574 8-8 8zm0 0M504 264h-64c-4.426 0-8-3.574-8-8s3.574-8 8-8h64c4.426 0 8 3.574 8 8s-3.574 8-8 8zm0 0M256 80a7.99 7.99 0 0 1-8-8V8c0-4.426 3.574-8 8-8s8 3.574 8 8v64c0 4.426-3.574 8-8 8zm0 0M256 512a7.99 7.99 0 0 1-8-8v-64c0-4.426 3.574-8 8-8s8 3.574 8 8v64c0 4.426-3.574 8-8 8zm0 0"/></g><path d="M376 292v24h-96v-24zm0 0M280 316h96v20h-96zm0 0" fill="#8cc152"/><path d="M280 312h96v8h-96zm0 0M280 288h96v8h-96zm0 0" fill="#80b240"/><path d="M232 292v24h-96v-24zm0 0M136 316h96v20h-96zm0 0" fill="#8cc152"/><path d="M136 312h96v8h-96zm0 0M136 288h96v8h-96zm0 0" fill="#80b240"/></svg>