<svg height="512pt" viewBox="0 -56 512.004 512" width="512pt" xmlns="http://www.w3.org/2000/svg"><path d="M112.004 72.004h288v32h-288zm0 0" fill="#ed5565"/><path d="M456.004 16.004h-440v384h48v-120l8-8 8 8 8-8 8 8 8-8 8 8 8-8 8 8 8-8 8 8 8-8 8 8v120h144v-120l8-8 8 8 8-8 8 8 8-8 8 8v120h48v-120l8-8 8 8 8-8 8 8 8-8 8 8v120h48v-384zm-56 88h-288v-32h288zm0 0" fill="#e6e9ed"/><g fill="#ccd1d9"><path d="M40.004 368.004a7.99 7.99 0 0 1-8-8v-48c0-4.426 3.574-8 8-8 4.422 0 8 3.574 8 8v48c0 4.426-3.578 8-8 8zm0 0M184.004 368.004a7.99 7.99 0 0 1-8-8v-48c0-4.426 3.574-8 8-8 4.422 0 8 3.574 8 8v48c0 4.426-3.578 8-8 8zm0 0M232.004 368.004a7.99 7.99 0 0 1-8-8v-48c0-4.426 3.574-8 8-8 4.422 0 8 3.574 8 8v48c0 4.426-3.578 8-8 8zm0 0M280.004 368.004a7.99 7.99 0 0 1-8-8v-48c0-4.426 3.574-8 8-8 4.422 0 8 3.574 8 8v48c0 4.426-3.578 8-8 8zm0 0M376.004 368.004a7.99 7.99 0 0 1-8-8v-48c0-4.426 3.574-8 8-8 4.422 0 8 3.574 8 8v48c0 4.426-3.578 8-8 8zm0 0M472.004 368.004a7.99 7.99 0 0 1-8-8v-48c0-4.426 3.574-8 8-8 4.422 0 8 3.574 8 8v48c0 4.426-3.578 8-8 8zm0 0M392.004 152.004h-272a7.99 7.99 0 0 1-8-8c0-4.426 3.574-8 8-8h272c4.422 0 8 3.574 8 8s-3.578 8-8 8zm0 0M392.004 184.004h-272a7.99 7.99 0 0 1-8-8c0-4.426 3.574-8 8-8h272c4.422 0 8 3.574 8 8s-3.578 8-8 8zm0 0M312.004 216.004h-112a7.99 7.99 0 0 1-8-8c0-4.426 3.574-8 8-8h112c4.422 0 8 3.574 8 8s-3.578 8-8 8zm0 0"/></g><path d="M8.004 72.004a7.977 7.977 0 0 1-5.656-2.344 7.99 7.99 0 0 1 0-11.312l56-56a7.985 7.985 0 0 1 11.308 0 7.99 7.99 0 0 1 0 11.312l-56 56a7.975 7.975 0 0 1-5.652 2.344zm0 0M504.004 72.004a7.977 7.977 0 0 1-5.656-2.344l-56-56a7.99 7.99 0 0 1 0-11.312 7.985 7.985 0 0 1 11.308 0l56 56a7.99 7.99 0 0 1 0 11.312 7.975 7.975 0 0 1-5.652 2.344zm0 0" fill="#ffce54"/><path d="M204.004 280.004h8v120h-8zm0 0M252.004 280.004h8v120h-8zm0 0" fill="#ccd1d9"/></svg>