<svg height="496pt" viewBox="0 0 496 496" width="496pt" xmlns="http://www.w3.org/2000/svg"><path d="M373.68 374.32L392 304l32.8 10.96-.8 2.4V376l-24 16 16 24-48 40h-15.68zm0 0" fill="#aab2bd"/><path d="M488 370.559V456H368l48-40-16-24 24-16v-58.64l.8-2.4 30.4 10.08c19.6 6.562 32.8 24.882 32.8 45.519zm0 0" fill="#838f9b"/><path d="M373.68 374.32L352.32 456H344l-8-64 16.32-32.879zm0 0M287.281 359.52L304 392l-8 64h-8.32l-26.399-79.121L264 376l23.2-16.559zm0 0" fill="#e6e9ed"/><path d="M261.281 376.879L287.68 456H272l-48-40 16-24-32-16v-24l11.922 5.922c2.637 1.36 5.68 2.078 8.637 2.078C239.28 360 248 351.281 248 340.559v-.88c0-1.199-.078-2.398-.32-3.519zm0 0" fill="#aab2bd"/><path d="M272 456h-64v-80l32 16-16 24zm0 0" fill="#838f9b"/><path d="M352.32 359.121L320 336l-32.8 23.441.081.079L304 392l-8 64h48l-8-64zm0 0" fill="#ff826e"/><path d="M464 280s-6 6-18 12-30 12-54 12l-24-8v-32a80.136 80.136 0 0 0 30.398-48H400c17.68 0 32-14.32 32-32v18.719c0 29.043 11.52 56.8 32 77.281zm0 0M400 112c-10 14.96-26.8 24-44.879 24H352v-24l-1.36 1.36A77.332 77.332 0 0 1 296 136v-24l-1.36 1.36A77.332 77.332 0 0 1 240 136v16c-17.68 0-32 14.32-32 32v-64C208 58.16 258.16 8 320 8c30.879 0 58.879 12.559 79.2 32.8C419.44 61.122 432 89.122 432 120v64c0-8.8-3.602-16.8-9.36-22.64C416.8 155.601 408.8 152 400 152zm0 0" fill="#fcd770"/><path d="M422.64 161.36C428.399 167.2 432 175.2 432 184c0 17.68-14.32 32-32 32h-1.602A80.179 80.179 0 0 0 400 200v-48c8.8 0 16.8 3.602 22.64 9.36zm0 0" fill="#f0d0b4"/><path d="M400 152v48c0 5.52-.559 10.879-1.602 16A80.136 80.136 0 0 1 368 264c-13.36 10-30 16-48 16s-34.64-6-48-16c-3.04-2.32-5.922-4.8-8.559-7.441-10.882-10.88-18.64-24.88-21.84-40.559A80.179 80.179 0 0 1 240 200v-64c20.48 0 40.16-8.16 54.64-22.64L296 112v24c20.48 0 40.16-8.16 54.64-22.64L352 112v24h3.121A53.967 53.967 0 0 0 400 112zm0 0" fill="#f0d0b4"/><path d="M392 304l-18.32 70.32-21.36-15.199L320 336l48-40zm0 0" fill="#e6e9ed"/><path d="M368 264v32l-48 40-48-40v-32c13.36 10 30 16 48 16s34.64-6 48-16zm0 0" fill="#f0d0b4"/><path d="M320 336l-32.8 23.441L264 376l-2.719.879-13.601-40.719c0-.082 0-.082-.078-.16-1.043-5.68-4.641-10.64-9.84-13.52l-17.442-9.28L272 296zm0 0" fill="#e6e9ed"/><path d="M272 264v32l-51.68 17.2-50.558-26.962A130.553 130.553 0 0 0 208 193.922V184c0 8.8 3.602 16.8 9.36 22.64C223.2 212.399 231.2 216 240 216h1.602c3.199 15.68 10.957 29.68 21.84 40.559 2.636 2.64 5.519 5.12 8.558 7.441zm0 0" fill="#fcd770"/><path d="M248 339.68v.879C248 351.28 239.281 360 228.559 360c-2.957 0-6-.719-8.637-2.078L208 352l-80-40-80 40-11.922 5.922c-2.637 1.36-5.68 2.078-8.637 2.078a19.408 19.408 0 0 1-13.761-5.68A19.408 19.408 0 0 1 8 340.56v-.88c0-7.199 3.922-13.757 10.238-17.199L128 264l41.762 22.238L220.32 313.2l17.442 9.281c5.199 2.88 8.797 7.84 9.84 13.52.078.078.078.078.078.16.242 1.121.32 2.32.32 3.52zm0 0" fill="#ff826e"/><path d="M241.602 216H240c-8.8 0-16.8-3.602-22.64-9.36C211.601 200.8 208 192.8 208 184c0-17.68 14.32-32 32-32v48c0 5.52.559 10.879 1.602 16zm0 0" fill="#f0d0b4"/><path d="M208 456v32H48V352l80-40 80 40zm0 0" fill="#e6e9ed"/><path d="M496 370.594a55.915 55.915 0 0 0-38.29-53.121l-30.151-10.047c27.25-7.328 41.304-20.985 42.097-21.77l5.656-5.656-5.656-5.656C450.527 255.214 440 229.793 440 202.742V120C440 53.832 386.168 0 320 0S200 53.832 200 120v73.887c0 30.793-11.398 59.761-31.984 82.379L128 254.93 14.512 315.457A27.365 27.365 0 0 0 0 339.648v.938C0 355.703 12.297 368 27.414 368c4.227 0 8.473-1 12.266-2.887l.32-.16V496h176v-32h280zm-90.64 43.863L365.097 448h-2.41l34.898-133.703L416 320.434v51.285l-27.098 18.066zM216 371.055v-6.102l.32.16h.008A27.67 27.67 0 0 0 228.586 368c7.277 0 13.863-2.895 18.773-7.543L276.574 448h-1.672l-40.261-33.543 17.039-25.555zm0 17.89l12.32 6.16-12.32 18.48zm32-245.36c14.441-1.339 28.137-6.241 40-14.355V144h8c17.375 0 33.96-5.168 48-14.77V144h11.16c13.504 0 26.328-4.434 36.84-12.238V200c0 39.703-32.297 72-72 72s-72-32.297-72-72zm36.344 227.712l11.41 22.168-5.594 44.734-19.144-57.383zM308.879 384l-11.383-22.105L320 345.825l22.137 15.816L331.039 384zm46.441-12.945l9.192 6.57-15.047 57.64-5.235-41.867zm13.52-10l-35.762-25.543L369.703 305l12.664 4.223zM320 288c14.406 0 27.984-3.55 40-9.71v13.956l-40 33.34-40-33.34V278.29c12.016 6.16 25.594 9.711 40 9.711zm-49.703 17l36.625 30.52-41.203 29.425-10.438-31.289c-1.722-7.695-6.648-14.383-13.793-18.199l-.984-.527zm40.766 95h17.882l6 48h-29.882zM452.23 279.07c-9.277 6.297-29.101 16.61-59.085 16.883L376 290.23v-22.406a88.134 88.134 0 0 0 28.71-44.304c7.52-.895 14.36-3.832 20.009-8.32 2.488 23.655 11.953 45.784 27.511 63.87zm-44.566-72.437c.168-2.2.336-4.395.336-6.633v-38.527c9.29 3.312 16 12.113 16 22.527 0 10.535-6.871 19.414-16.336 22.633zM320 16c57.344 0 104 46.656 104 104v32.207c-4.672-3.535-10.055-6.184-16-7.39V104h-16v5.352c-7.68 10.382-19.246 17.046-32 18.39V92.688l-15.031 15.03C333.8 118.888 319.465 125.786 304 127.552V92.695l-15.031 15.032C277.8 118.895 263.465 125.734 248 127.512V104h-16v40.809c-5.945 1.214-11.328 3.855-16 7.39V120c0-57.344 46.656-104 104-104zm-88 145.473V200c0 2.238.168 4.434.336 6.633C222.87 203.414 216 194.535 216 184c0-10.414 6.71-19.215 16-22.527zm-17.672 52.941a39.563 39.563 0 0 0 20.961 9.106A88.134 88.134 0 0 0 264 267.824v22.406l-42.96 14.32-38.49-20.527c17.098-19.886 27.977-43.855 31.778-69.609zm-181.8 136.387A11.567 11.567 0 0 1 27.413 352C21.121 352 16 346.879 16 340.586v-.938c0-4.222 2.32-8.09 6.047-10.074L128 273.07l105.953 56.504A11.401 11.401 0 0 1 240 339.648v.938c0 6.293-5.121 11.414-11.414 11.414-1.77 0-3.531-.414-5.113-1.2L128 303.056zM56 480V356.953l72-36 72 36V480zm160-60.258L249.895 448H216zM480 448h-89.895l36.536-30.457-15.543-23.328L432 380.28V325.77l20.648 6.878A39.953 39.953 0 0 1 480 370.594zm0 0"/><path d="M368 168a8 8 0 1 1-16 0 8 8 0 0 1 16 0zm0 0M288 168a8 8 0 1 1-16 0 8 8 0 0 1 16 0zm0 0M320 248c17.648 0 32-14.352 32-32h-16c0 8.824-7.176 16-16 16s-16-7.176-16-16h-16c0 17.648 14.352 32 32 32zm0 0M128 384c4.414 0 8 3.586 8 8h16c0-10.414-6.71-19.215-16-22.527V352h-16v17.473c-9.29 3.312-16 12.113-16 22.527 0 13.23 10.77 24 24 24 4.414 0 8 3.586 8 8s-3.586 8-8 8-8-3.586-8-8h-16c0 10.414 6.71 19.215 16 22.527V464h16v-17.473c9.29-3.312 16-12.113 16-22.527 0-13.23-10.77-24-24-24-4.414 0-8-3.586-8-8s3.586-8 8-8zm0 0"/></svg>