<svg height="496pt" viewBox="0 0 496 496" width="496pt" xmlns="http://www.w3.org/2000/svg"><path d="M320 88h112l40 112h-64v-40l1.602-1.922L352 112l-57.602 46.078L296 160v40h-96v-40l1.602-1.922L144 112l-57.602 46.078L88 160v40H24L64 88zm0 0" fill="#fcd770"/><path d="M176 344v90.879c-5.84-6.64-14.398-10.879-24-10.879-3.602 0-6.96.719-10.16 1.762C135.84 406.238 117.602 392 96 392s-39.84 14.238-45.84 33.762C46.96 424.719 43.602 424 40 424c-5.84 0-11.281 1.602-16 4.32V232h64v40h112v-40h96v40h112v-40h64v196.32c-4.719-2.718-10.16-4.32-16-4.32-3.602 0-6.96.719-10.16 1.762C439.84 406.238 421.602 392 400 392s-39.84 14.238-45.84 33.762c-3.2-1.043-6.558-1.762-10.16-1.762-9.602 0-18.16 4.238-24 10.879V344l-72-48zm0 0" fill="#e6e9ed"/><g fill="#fcd770"><path d="M312 456c0 17.68 14.32 32 32 32h-56V376h-80v112h-56c17.68 0 32-14.32 32-32 0-8.078-3.04-15.441-8-21.121V344l72-48 72 48v90.879c-4.96 5.68-8 13.043-8 21.121zm0 0M336 8h32v48h-32zm0 0M128 8h32v48h-32zm0 0"/></g><path d="M384 56v32h-64V56zm0 0M176 56v32h-64V56zm0 0" fill="#e6e9ed"/><path d="M488 208v16c0 4.398-3.602 8-8 8h-72v-32h72c4.398 0 8 3.602 8 8zm0 0M200 200h96v32h-96zm0 0M88 200v32H16c-4.398 0-8-3.602-8-8v-16c0-4.398 3.602-8 8-8zm0 0" fill="#ffc729"/><path d="M296 200v-40l-1.602-1.922L352 112l57.602 46.078L408 160v112h-32v-56c0-8.8-7.2-16-16-16h-16c-8.8 0-16 7.2-16 16v56h-32zm0 0M200 200v72h-32v-56c0-8.8-7.2-16-16-16h-16c-8.8 0-16 7.2-16 16v56H88V160l-1.602-1.922L144 112l57.602 46.078L200 160zm0 0" fill="#e6e9ed"/><path d="M472 428.32c9.602 5.52 16 15.84 16 27.68 0 17.68-14.32 32-32 32H344c-17.68 0-32-14.32-32-32 0-8.078 3.04-15.441 8-21.121 5.84-6.64 14.398-10.879 24-10.879 3.602 0 6.96.719 10.16 1.762C360.16 406.238 378.398 392 400 392s39.84 14.238 45.84 33.762c3.2-1.043 6.558-1.762 10.16-1.762 5.84 0 11.281 1.602 16 4.32zm0 0M176 434.879c4.96 5.68 8 13.043 8 21.121 0 17.68-14.32 32-32 32H40c-17.68 0-32-14.32-32-32 0-11.84 6.398-22.16 16-27.68 4.719-2.718 10.16-4.32 16-4.32 3.602 0 6.96.719 10.16 1.762C56.16 406.238 74.398 392 96 392s39.84 14.238 45.84 33.762c3.2-1.043 6.558-1.762 10.16-1.762 9.602 0 18.16 4.238 24 10.879zm0 0" fill="#b4dd7f"/><path d="M360 304h80v48h-80zm0 0M56 304h80v48H56zm0 0" fill="#69d6f4"/><path d="M208 376h80v112h-80zm0 0" fill="#aab2bd"/><path d="M168 264v8h-48v-56c0-8.8 7.2-16 16-16h16c8.8 0 16 7.2 16 16zm0 0M376 264v8h-48v-56c0-8.8 7.2-16 16-16h16c8.8 0 16 7.2 16 16zm0 0" fill="#69d6f4"/><path d="M496 224v-16c0-8.824-7.176-16-16-16h-2.36l-40-112H392V48h-16V0h-48v48h-16v32H184V48h-16V0h-48v48h-16v32H58.36l-40 112H16c-8.824 0-16 7.176-16 16v16c0 8.824 7.176 16 16 16v183.953C6.328 431.297 0 442.977 0 456c0 22.055 17.945 40 40 40h416c22.055 0 40-17.945 40-40 0-13.023-6.32-24.71-16-32.055V240c8.824 0 16-7.176 16-16zm-16 0h-64v-16h64zm-112 40h-32v-48c0-4.406 3.594-8 8-8h16c4.406 0 8 3.594 8 8zm-8-72h-16c-13.23 0-24 10.77-24 24v48h-16V160.648l48-38.402 48 38.402V264h-16v-48c0-13.23-10.77-24-24-24zm-72 32h-80v-16h80zm-128 40h-32v-48c0-4.406 3.594-8 8-8h16c4.406 0 8 3.594 8 8zm-8-72h-16c-13.23 0-24 10.77-24 24v48H96V160.648l48-38.402 48 38.402V264h-16v-48c0-13.23-10.77-24-24-24zM344 16h16v32h-16zm-16 48h48v16h-48zM136 16h16v32h-16zm-16 48h48v16h-48zM69.64 96h356.727l34.281 96H416v-18.559l11 8.797 9.992-12.496L352 101.754l-85 68 9.992 12.492L288 173.441V192h-80v-18.559l11 8.797 9.992-12.496L144 101.754l-85 68 9.992 12.492L80 173.441V192H35.352zM16 208h64v16H16zm24 272c-13.23 0-24-10.77-24-24s10.77-24 24-24c2.352 0 4.832.457 7.594 1.375l7.765 2.617 2.426-7.832C62.992 411.32 78.352 400 96 400s33.008 11.32 38.215 28.168L136.64 436l7.765-2.617c2.762-.926 5.242-1.383 7.594-1.383 13.23 0 24 10.77 24 24s-10.77 24-24 24zm272-48.008c-5.008 6.719-8 15.055-8 24.008 0 9.04 3.129 17.297 8.207 24H296V368h-96v112h-16.207c5.078-6.703 8.207-14.96 8.207-24 0-8.969-2.984-17.305-8-24.031V348.28l64-42.664 64 42.664zM280 480h-64v-96h64zm176 0H344c-13.23 0-24-10.77-24-24s10.77-24 24-24c2.352 0 4.832.457 7.594 1.375l7.765 2.617 2.426-7.832C366.992 411.32 382.352 400 400 400s33.008 11.32 38.215 28.168L440.64 436l7.765-2.617c2.762-.926 5.242-1.383 7.594-1.383 13.23 0 24 10.77 24 24s-10.77 24-24 24zm8-63.313a38.715 38.715 0 0 0-13.2-.304C441.735 396.743 422.16 384 400 384s-41.734 12.742-50.8 32.383c-7.552-1.11-14.802.015-21.2 2.824v-79.488l-80-53.336-80 53.336v79.472c-6.39-2.8-13.633-3.918-21.2-2.808C137.735 396.743 118.16 384 96 384s-41.734 12.742-50.8 32.383a38.715 38.715 0 0 0-13.2.305V240h48v40h128v-40h80v40h128v-40h48zm0 0"/><path d="M352 360h96v-64h-96zm16-48h64v32h-64zm0 0M48 360h96v-64H48zm16-48h64v32H64zm0 0M344 144h16v16h-16zm0 0M136 144h16v16h-16zm0 0"/></svg>