<svg height="497pt" viewBox="0 0 497 497.616" width="497pt" xmlns="http://www.w3.org/2000/svg"><path d="M272.309 54.496v3.121h-48v-3.12a53.962 53.962 0 0 1 24-44.88c7.52 4.957 13.437 11.68 17.597 19.438 4.16 7.68 6.403 16.402 6.403 25.441zm0 0" fill="#ffc729"/><path d="M312.309 169.617h-128c0-96 64-112 64-112s64 16 64 112zm0 0" fill="#ccd1d9"/><path d="M272.309 57.617h8c61.84 0 112 50.16 112 112h-80c0-96-64-112-64-112zm0 0M248.309 57.617s-64 16-64 112h-80c0-61.84 50.16-112 112-112zm0 0" fill="#e6e9ed"/><path d="M424.309 169.617v32h-352v-32zm0 0" fill="#fcd770"/><path d="M408.309 201.617v112h-320v-112zm0 0" fill="#e6e9ed"/><g fill="#69d6f4"><path d="M328.309 233.617h32v48h-32zm0 0M264.309 233.617h32v48h-32zm0 0M200.309 233.617h32v48h-32zm0 0M136.309 233.617h32v48h-32zm0 0"/></g><path d="M488.309 329.617v16c0 8.797-7.2 16-16 16h-448c-8.801 0-16-7.203-16-16v-16c0-8.8 7.199-16 16-16h448c8.8 0 16 7.2 16 16zm0 0" fill="#fcd770"/><path d="M472.309 361.617v128h-32v-40c0-6.64-2.72-12.64-7.04-16.96-4.32-4.321-10.32-7.04-16.96-7.04-13.282 0-24 10.719-24 24v40h-24v-40c0-6.64-2.72-12.64-7.04-16.96-4.32-4.321-10.32-7.04-16.96-7.04-13.282 0-24 10.719-24 24v40h-40v-44.242c0-10.96-3.121-21.438-8.641-30.398a59.06 59.06 0 0 0-23.36-21.36c-19.601 9.84-32 29.84-32 51.758v44.242h-32v-40c0-6.64-2.718-12.64-7.038-16.96-4.32-4.321-10.32-7.04-16.961-7.04-13.282 0-24 10.719-24 24v40h-32v-40c0-6.64-2.72-12.64-7.04-16.96-4.32-4.321-10.32-7.04-16.96-7.04-13.282 0-24 10.719-24 24v40h-32v-128zm0 0" fill="#ccd1d9"/><path d="M280.309 445.375v44.242h-64v-44.242c0-21.918 12.398-41.918 32-51.758a59.06 59.06 0 0 1 23.359 21.36c5.52 8.96 8.64 19.437 8.64 30.398zm0 0" fill="#cf9e76"/><path d="M440.309 449.617v40h-48v-40c0-13.281 10.718-24 24-24 6.64 0 12.64 2.719 16.96 7.04 4.32 4.32 7.04 10.32 7.04 16.96zm0 0M368.309 449.617v40h-48v-40c0-13.281 10.718-24 24-24 6.64 0 12.64 2.719 16.96 7.04 4.32 4.32 7.04 10.32 7.04 16.96zm0 0M184.309 449.617v40h-48v-40c0-13.281 10.718-24 24-24 6.64 0 12.64 2.719 16.96 7.04 4.32 4.32 7.04 10.32 7.04 16.96zm0 0M104.309 449.617v40h-48v-40c0-13.281 10.718-24 24-24 6.64 0 12.64 2.719 16.96 7.04 4.32 4.32 7.04 10.32 7.04 16.96zm0 0" fill="#dfb28b"/><path d="M472.309 305.617h-56v-96h16v-48h-32.41c-4.141-62.441-56.118-112-119.59-112h-.297c-1.473-18.855-11.36-36.058-27.266-46.656L248.31 0l-4.442 2.96c-15.894 10.599-25.781 27.802-27.262 46.657h-.296c-63.473 0-115.45 49.559-119.594 112H64.309v48h16v96h-56c-13.235 0-24 10.766-24 24v16c0 10.414 6.71 19.215 16 22.528v129.472h464V368.145c9.289-3.313 16-12.114 16-22.528v-16c0-13.234-10.77-24-24-24zm-88.41-144H320.14c-1.922-52.457-22.57-80.945-40.953-96h1.12c54.641 0 99.481 42.39 103.59 96zM248.308 66c9.734 3.32 52.664 22.29 55.68 95.617h-111.36C195.645 88.29 238.57 69.313 248.309 66zm0-46.367a45.784 45.784 0 0 1 15.734 29.984H232.57a45.824 45.824 0 0 1 15.739-29.984zm-32 45.984h1.12c-18.386 15.055-39.034 43.543-40.952 96h-63.762c4.113-53.61 48.953-96 103.594-96zm-136 112h336v16h-336zm16 32h304v96h-304zm0 272h-32v-32c0-8.824 7.175-16 16-16 8.824 0 16 7.176 16 16zm80 0h-32v-32c0-8.824 7.175-16 16-16 8.824 0 16 7.176 16 16zm96 0h-48v-36.226c0-17.649 9.093-33.637 24-42.657 14.902 9.008 24 25 24 42.657zm88 0h-32v-32c0-8.824 7.175-16 16-16 8.824 0 16 7.176 16 16zm72 0h-32v-32c0-8.824 7.175-16 16-16 8.824 0 16 7.176 16 16zm16 0v-32c0-17.648-14.352-32-32-32-17.649 0-32 14.352-32 32v32h-8v-32c0-17.648-14.352-32-32-32-17.649 0-32 14.352-32 32v32h-24v-36.226c0-25.118-13.954-47.696-36.426-58.934l-3.574-1.785-3.579 1.793c-22.468 11.23-36.421 33.816-36.421 58.926v36.226h-16v-32c0-17.648-14.352-32-32-32-17.649 0-32 14.352-32 32v32h-16v-32c0-17.648-14.352-32-32-32-17.649 0-32 14.352-32 32v32h-16v-112h432v112zm32-136c0 4.406-3.586 8-8 8h-448c-4.418 0-8-3.594-8-8v-16c0-4.41 3.582-8 8-8h448c4.414 0 8 3.59 8 8zm0 0"/><path d="M128.309 289.617h48v-64h-48zm16-48h16v32h-16zm0 0M192.309 289.617h48v-64h-48zm16-48h16v32h-16zm0 0M256.309 289.617h48v-64h-48zm16-48h16v32h-16zm0 0M320.309 225.617v64h48v-64zm32 48h-16v-32h16zm0 0"/></svg>