<svg height="496pt" viewBox="-48 0 496 496" width="496pt" xmlns="http://www.w3.org/2000/svg"><path d="M392 107.68c0 2.879-.64 5.68-1.84 8.242l-88.238 191.277A63.855 63.855 0 0 0 296 334.08V360l-61.281-122.559c-3.278-6.562-8.32-11.921-14.32-15.68A38.99 38.99 0 0 0 200 216c-14.719 0-28.16 8.32-34.719 21.441L104 360v-20.64c0-12.641-3.762-24.962-10.719-35.52l-81.12-121.68C9.44 178.16 8 173.441 8 168.56c0-6.797 2.719-12.957 7.2-17.36C19.601 146.72 25.761 144 32.558 144h2.32a24.48 24.48 0 0 1 20.402 10.96l37.598 56.4c1.922 2.878 5.2 4.64 8.723 4.64A10.38 10.38 0 0 0 112 205.602v-4.883c0-.48 0-.957-.078-1.438L88.559 59.68c-.16-1.918-.399-4.961-.559-6.88 0-5.76 2.32-10.878 6.078-14.722A20.748 20.748 0 0 1 108.801 32h.719c10.718 0 19.761 7.602 21.52 18.078 6.8 40.883 23.198 107.363 27.76 134.723a8.673 8.673 0 0 0 8.56 7.199c4.8 0 8.64-3.84 8.64-8.64V28.8C176 17.36 185.36 8 196.8 8h6.4c11.44 0 20.8 9.36 20.8 20.8v154.56c0 4.8 3.84 8.64 8.64 8.64 4.239 0 7.84-3.04 8.56-7.2L268.64 48.72C270.56 38.96 279.122 32 289.04 32h1.198C302.32 32 312 41.762 312 53.68v.718c0 1.043-.078 2.16-.238 3.204l-23.684 125.68c-.078.48-.078.956-.078 1.437v5.36a9.866 9.866 0 0 0 9.922 9.921 9.85 9.85 0 0 0 8.797-5.441l47.84-95.68C357.922 92.239 364.719 88 372.16 88h.16C383.2 88 392 96.8 392 107.68zm0 0" fill="#f0d0b4"/><path d="M331.922 431.84C334.559 437.2 336 443.12 336 449.2c0 10.722-4.32 20.402-11.36 27.44S307.923 488 297.2 488H102.8C81.36 488 64 470.64 64 449.2c0-6.079 1.441-12 4.078-17.36L104 360l61.281-122.559C171.84 224.321 185.281 216 200 216a38.99 38.99 0 0 1 20.398 5.762c6 3.758 11.043 9.117 14.32 15.68L296 360zm0 0" fill="#fcd770"/><path d="M216 440c0 8.836-7.164 16-16 16s-16-7.164-16-16 7.164-16 16-16 16 7.164 16 16zm0 0M200.559 264A15.398 15.398 0 0 1 216 279.441v1.118L208.559 384c-.32 4.48-4.079 8-8.559 8s-8.238-3.52-8.559-8L184 280.559v-1.118c0-4.242 1.762-8.16 4.48-10.96 2.801-2.72 6.72-4.481 10.961-4.481zm0 0" fill="#ff826e"/><path d="M200 416c-13.23 0-24 10.77-24 24s10.77 24 24 24 24-10.77 24-24-10.77-24-24-24zm0 32c-4.406 0-8-3.594-8-8s3.594-8 8-8 8 3.594 8 8-3.594 8-8 8zm0 0M200.55 256h-1.1c-12.93 0-23.45 10.52-23.45 23.45 0 .566.016 1.124.055 1.671l7.394 103.473C184.062 393.23 191.336 400 200 400s15.938-6.77 16.55-15.406l7.387-103.45c.047-.57.063-1.128.063-1.695C224 266.52 213.48 256 200.55 256zm.044 127.45c-.043.612-1.145.612-1.18 0l-7.406-104c-.008-4.114 3.328-7.45 7.441-7.45h1.102c4.113 0 7.449 3.336 7.433 7.984zm0 0"/><path d="M309.16 310.594l88.29-191.313a27.423 27.423 0 0 0 2.55-11.61C400 92.415 387.586 80 372.16 80c-10.55 0-20.039 5.863-24.754 15.305l-47.82 95.656c-.8 1.566-3.586.894-3.586-.848l-.023-5.36 23.695-125.96c.215-1.457.328-2.938.328-5.09C320 37.328 306.656 24 290.246 24h-1.207c-13.664 0-25.543 9.719-28.254 23.121L233.312 183.45c-.113.68-1.312.59-1.312-.113V28.816C232 12.93 219.07 0 203.184 0h-6.368C180.93 0 168 12.93 168 28.816v154.52c0 .703-1.2.8-1.313.16-2.085-12.527-6.648-33.266-11.48-55.207-5.902-26.832-12.59-57.234-16.312-79.547C136.512 34.398 124.168 24 108.816 24c-7.703 0-14.945 3-20.382 8.45-5.442 5.445-8.434 12.687-8.41 21.046l.656 7.496L104 200.703v4.871c0 2.153-3.258 3.137-4.441 1.348l-37.614-56.426A32.496 32.496 0 0 0 34.855 136H32.56C14.609 136 0 150.61 0 168.559c0 6.457 1.887 12.699 5.473 18.066l81.129 121.688A55.93 55.93 0 0 1 96 339.375v18.738l-35.047 70.102A46.984 46.984 0 0 0 56 449.168C56 474.992 77.008 496 102.832 496h194.336C322.992 496 344 474.992 344 449.168c0-7.238-1.71-14.488-4.945-20.945L304 358.113v-24.05a56.278 56.278 0 0 1 5.16-23.47zM328 449.168c0 17-13.832 30.832-30.832 30.832H102.832C85.832 480 72 466.168 72 449.168c0-4.77 1.129-9.527 3.258-13.793l97.168-194.336C177.672 230.527 188.246 224 200 224s22.328 6.527 27.574 17.04l97.168 194.335A31.014 31.014 0 0 1 328 449.168zm-86.113-215.281C233.902 217.922 217.855 208 200 208s-33.902 9.922-41.887 25.887l-47.066 94.129c-1.621-10.176-5.36-19.903-11.145-28.575L18.785 177.754A16.524 16.524 0 0 1 16 168.559C16 159.434 23.434 152 32.559 152h2.296a16.573 16.573 0 0 1 13.786 7.375l37.617 56.426A18.354 18.354 0 0 0 101.574 224c10.16 0 18.426-8.266 18.426-18.426v-4.87c0-.833-.055-1.657-.2-2.727L96.544 58.992 96 52.832c0-3.426 1.328-6.648 3.754-9.07C102.176 41.336 105.39 40 109.55 40c6.77 0 12.472 4.785 13.57 11.36 3.781 22.718 10.52 53.335 16.465 80.35 4.781 21.747 9.3 42.282 11.316 54.403 1.344 8.055 8.258 13.887 16.434 13.887 9.184 0 16.664-7.48 16.664-16.664V28.816C184 21.754 189.754 16 196.816 16h6.368C210.246 16 216 21.754 216 28.816v154.52c0 9.184 7.48 16.664 16.664 16.664 8.176 0 15.09-5.855 16.383-13.656l27.426-136.055C277.672 44.33 282.96 40 289.039 40h1.207C297.832 40 304 46.152 304 54.383c0 .672-.047 1.351-.105 1.73l-23.696 125.95c-.136.898-.199 1.777-.199 2.671v5.371c0 9.872 8.023 17.895 17.887 17.895 6.816 0 12.945-3.793 16-9.887l47.832-95.664c1.984-3.976 5.992-6.449 10.61-6.449 6.433 0 11.671 5.238 11.671 11.672 0 1.703-.36 3.351-1.07 4.894L294.633 303.88c-3.336 7.226-5.434 15.066-6.235 23.016zm0 0"/></svg>