<svg height="664" viewBox="0 -1 498.248 498" width="664" xmlns="http://www.w3.org/2000/svg"><path d="M176 152.125v16c0 13.277-10.719 24-24 24-6.64 0-12.64-2.723-16.96-7.04-4.321-4.32-7.04-10.32-7.04-16.96v-16c6.64 5.04 14.96 8 24 8s17.36-2.96 24-8zm0 0" fill="#f0d0b4"/><path d="M488 376.125l-8 32h-64l-8-32zm0 0M400 472.125v16h-80v-16c0-8.8 7.2-16 16-16h48c8.8 0 16 7.2 16 16zm0 0M376 294.363c4.96 4.242 8 10.64 8 17.762 0 7.117-3.04 13.52-8 17.758v.082c-4.238 3.84-9.84 6.16-16 6.16s-11.762-2.32-16-6.16v-.082c-4.96-4.238-8-10.64-8-17.758 0-7.121 3.04-13.52 8-17.762v-.078c4.238-3.84 9.84-6.16 16-6.16s11.762 2.32 16 6.16zm0 0" fill="#fcd770"/><path d="M376 329.965v126.16h-32v-126.16c4.238 3.84 9.84 6.16 16 6.16s11.762-2.32 16-6.16zm0 0M376 256.125v38.16c-4.238-3.84-9.84-6.16-16-6.16s-11.762 2.32-16 6.16v-38.16l16-16zm0 0" fill="#aab2bd"/><path d="M312 376.125l-8 32h-64l-8-32zm0 0" fill="#fcd770"/><path d="M296 240.125v16c0 4.398-3.602 8-8 8H16c-4.398 0-8-3.602-8-8v-16c0-4.402 3.602-8 8-8h272c4.398 0 8 3.598 8 8zm0 0" fill="#cf9e76"/><path d="M280 264.125H24v176h48v-128h136v128h72v-32h-40l-8-32h48zm0 0" fill="#dfb28b"/><path d="M240 214.285v17.84H64v-17.84c0-13.36 8.238-25.281 20.8-29.922l43.2-16.238c0 6.64 2.719 12.64 7.04 16.96 4.32 4.317 10.32 7.04 16.96 7.04 13.281 0 24-10.723 24-24l43.2 16.238c12.562 4.64 20.8 16.563 20.8 29.922zm0 0" fill="#b4dd7f"/><path d="M72 312.125h136v128H72zm0 0" fill="#e6e9ed"/><path d="M216 72.125v32c0-6.64-2.719-12.64-7.04-16.96-4.32-4.321-10.32-7.04-16.96-7.04a38.65 38.65 0 0 1-27.281-11.281L160 64.125l-4 2.719c-13.04 8.64-28.32 13.281-44 13.281-6.64 0-12.64 2.719-16.96 7.04-4.321 4.32-7.04 10.32-7.04 16.96v-32c0-17.68 7.2-33.68 18.719-45.281C118.32 15.324 134.32 8.125 152 8.125c35.36 0 64 28.64 64 64zm0 0" fill="#fcd770"/><g fill="#f0d0b4"><path d="M208.96 87.164c4.321 4.32 7.04 10.32 7.04 16.961 0 13.277-10.719 24-24 24l-.8-.082c.562-2.559.8-5.2.8-7.918v-40c6.64 0 12.64 2.719 16.96 7.04zm0 0"/><path d="M192 80.125v40c0 2.719-.238 5.36-.8 7.918-1.52 7.84-5.438 14.883-10.88 20.402-1.36 1.36-2.8 2.559-4.32 3.68-6.64 5.04-14.96 8-24 8s-17.36-2.96-24-8c-7.68-5.84-13.281-14.32-15.2-24.082-.562-2.559-.8-5.2-.8-7.918v-40c15.68 0 30.96-4.64 44-13.281l4-2.719 4.719 4.719A38.65 38.65 0 0 0 192 80.125zm0 0"/><path d="M112.8 128.043l-.8.082c-6.64 0-12.64-2.723-16.96-7.04-4.321-4.32-7.04-10.32-7.04-16.96s2.719-12.64 7.04-16.96c4.32-4.321 10.32-7.04 16.96-7.04v40c0 2.719.238 5.36.8 7.918zm0 0"/></g><path d="M483.09 368.125l-22.496-48H472v-16h-81.137c-1.261-4.871-3.648-9.266-6.863-12.945v-38.368l-24-24-24 24v38.368c-3.215 3.68-5.602 8.074-6.863 12.945H288v-32c8.824 0 16-7.176 16-16v-16c0-8.824-7.176-16-16-16h-40v-9.824c0-16.586-10.434-31.633-25.953-37.457L184 162.578v-6.773c6.055-5.434 10.719-12.36 13.398-20.227C212.473 132.996 224 119.914 224 104.125v-32c0-39.695-32.297-72-72-72s-72 32.305-72 72v32c0 15.79 11.527 28.871 26.602 31.453 2.68 7.86 7.343 14.785 13.398 20.227v6.773l-38.04 14.274C66.435 182.668 56 197.715 56 214.3v9.824H16c-8.824 0-16 7.176-16 16v16c0 8.824 7.176 16 16 16v176h272v-32h22.246l12-48h-15.168l-22.492-48h44.55c1.262 4.871 3.65 9.262 6.864 12.941v115.059c-13.23 0-24 10.766-24 24v24h96v-24c0-13.234-10.77-24-24-24V333.066c3.215-3.68 5.602-8.07 6.863-12.941h44.551l-22.492 48h-15.168l12 48h76.492l12-48zm-123.09-40c-8.824 0-16-7.176-16-16s7.176-16 16-16 16 7.176 16 16-7.176 16-16 16zm0-76.688l8 8v21.825c-2.574-.672-5.223-1.137-8-1.137s-5.426.465-8 1.137v-21.825zm-208-99.312c-17.648 0-32-14.352-32-32v-32.57c13.84-1.27 27.176-5.614 38.969-13.153l.062.067c6.778 6.773 15.594 11.254 24.969 12.91v32.746c0 17.648-14.352 32-32 32zm48-34.227V90.355c4.762 2.778 8 7.88 8 13.778 0 5.894-3.238 10.992-8 13.765zM152 16.125c30.871 0 56 25.117 56 56v4.445c-4.727-2.75-10.145-4.445-16-4.445-8.063 0-15.953-3.273-21.656-8.969l-9.328-9.328-9.489 6.328A71.076 71.076 0 0 1 112 72.125c-5.855 0-11.273 1.695-16 4.445v-4.445c0-30.883 25.129-56 56-56zm-56 88c0-5.898 3.238-11 8-13.777v27.543c-4.762-2.766-8-7.871-8-13.766zm56 64c5.617 0 10.984-1.023 16-2.8v2.8c0 8.824-7.176 16-16 16s-16-7.176-16-16v-2.8c5.016 1.777 10.383 2.8 16 2.8zm-80 46.176c0-9.953 6.258-18.977 15.574-22.473L122 178.914c4.457 12.328 16.16 21.211 30 21.211s25.543-8.883 29.992-21.21l34.434 12.913c9.316 3.496 15.574 12.52 15.574 22.473v9.824H72zm-56 25.824h272l.016 16H16zm256 192H80v-112h128v-16H64v128H32v-160h240v32h-24v16h11.414l-22.492 48h-15.168l12 48H272zm25.754-32h-51.508l-4-16h59.508zm-43.168-32L272 330.973l17.414 37.152zm137.414 104v8h-64v-8c0-4.418 3.586-8 8-8h48c4.414 0 8 3.582 8 8zm-40-24V342.988c2.574.672 5.223 1.137 8 1.137s5.426-.465 8-1.137v105.137zm96-117.152l17.414 37.152h-34.828zm25.754 69.152h-51.508l-4-16h59.508zm0 0"/><path d="M96 336.125h112v16H96zm0 0M96 368.125h112v16H96zm0 0M96 400.125h112v16H96zm0 0"/></svg>