<svg height="512" viewBox="0 0 64 64" width="512" xmlns="http://www.w3.org/2000/svg"><path d="M36.95 27.05A7 7 0 1 1 32 25a6.958 6.958 0 0 1 4.95 2.05z" fill="#ffd422"/><path d="M24 40l-4.91-1.87-2.88 9.19L16 48l.68-.21 9.19-2.88zM47.79 47.32l-2.88-9.19L40 40l-1.87 4.91 9.19 2.88.68.21zM47.32 16.21l-9.19 2.88L40 24l4.91 1.87 2.88-9.19L48 16z" fill="#ffa733"/><path d="M53.83 29.27l-8.92-3.4L40 24l-3.05 3.05A6.958 6.958 0 0 1 39 32h22z" fill="#00ccb3"/><path d="M54 32H39a6.958 6.958 0 0 1-2.05 4.95L40 40l4.91-1.87 8.92-3.4L61 32zM38.13 19.09l-3.4-8.92L32 3v22a6.958 6.958 0 0 1 4.95 2.05L40 24z" fill="#00b39d"/><path d="M36.95 36.95A6.958 6.958 0 0 1 32 39v22l2.73-7.17 3.4-8.92L40 40z" fill="#00ccb3"/><path d="M27.05 36.95L24 40l1.87 4.91 3.4 8.92L32 61V39a6.958 6.958 0 0 1-4.95-2.05z" fill="#00b39d"/><path d="M29.27 10.17l-3.4 8.92L24 24l3.05 3.05A6.958 6.958 0 0 1 32 25V3z" fill="#00ccb3"/><path d="M16.68 16.21L16 16l.21.68 2.88 9.19L24 24l1.87-4.91z" fill="#ffa733"/><path d="M24 24l-4.91 1.87-8.92 3.4L3 32h22a6.958 6.958 0 0 1 2.05-4.95z" fill="#00b39d"/><path d="M25 32H3l7.17 2.73 8.92 3.4L24 40l3.05-3.05A6.958 6.958 0 0 1 25 32z" fill="#00ccb3"/><g fill="#ff9811"><path d="M11.791 26.272l-1.925-.544a22.825 22.825 0 0 1 3.578-7.32l1.612 1.184a20.829 20.829 0 0 0-3.265 6.68zM52.21 26.272a20.834 20.834 0 0 0-3.267-6.68l1.614-1.184a22.843 22.843 0 0 1 3.577 7.32zM44.076 14.817a20.85 20.85 0 0 0-6.348-3.026l.544-1.925a22.861 22.861 0 0 1 6.957 3.317zM19.924 14.817l-1.152-1.635a22.864 22.864 0 0 1 6.956-3.316l.544 1.925a20.872 20.872 0 0 0-6.348 3.026zM13.444 45.592a22.825 22.825 0 0 1-3.578-7.32l1.925-.544a20.829 20.829 0 0 0 3.265 6.68zM50.557 45.592l-1.614-1.184a20.834 20.834 0 0 0 3.267-6.68l1.924.544a22.843 22.843 0 0 1-3.577 7.32zM38.272 54.134l-.544-1.925a20.85 20.85 0 0 0 6.348-3.026l1.153 1.634a22.861 22.861 0 0 1-6.957 3.317zM25.728 54.134a22.864 22.864 0 0 1-6.956-3.316l1.152-1.635a20.872 20.872 0 0 0 6.348 3.026z"/></g></svg>