<svg xmlns="http://www.w3.org/2000/svg" viewBox="0 0 64 64" width="512" height="512"><g data-name="Globe"><circle cx="32" cy="32" r="29" fill="#00ccb3"/><path d="M44 29c0 9-12 18-12 18s-12-9-12-18a12 12 0 0 1 24 0z" fill="#ff5023"/><circle cx="32" cy="29" r="5" fill="#ffd422"/><path d="M49.578 7.691a29.994 29.994 0 0 0-35.154 0 30 30 0 0 0 0 48.62 29.994 29.994 0 0 0 35.154 0 30 30 0 0 0 0-48.62zM59.97 31h-8.986c-.164-7.866-2.25-14.976-5.546-20.187A29.741 29.741 0 0 0 48.243 9.2c.053.038.109.069.161.108A28.06 28.06 0 0 1 59.97 31zm-10.985 2c-.164 7.619-2.183 14.469-5.336 19.365a29.872 29.872 0 0 0-23.3 0C17.2 47.469 15.179 40.619 15.015 33H17v-2h-1.985c.164-7.619 2.183-14.469 5.336-19.365A29.869 29.869 0 0 0 32 14a29.869 29.869 0 0 0 11.649-2.365C46.8 16.531 48.821 23.381 48.985 31H47v2zM31 59.948c-3.561-.342-6.829-2.5-9.472-5.916A27.851 27.851 0 0 1 31 52.037zm2-7.911a27.851 27.851 0 0 1 9.472 1.995c-2.643 3.416-5.911 5.574-9.472 5.916zm0-47.985c3.561.342 6.829 2.5 9.472 5.916A27.851 27.851 0 0 1 33 11.963zm-2 7.911a27.851 27.851 0 0 1-9.472-1.995C24.171 6.552 27.439 4.394 31 4.052zM46.409 8a28.02 28.02 0 0 1-2.113 1.161A21.435 21.435 0 0 0 40.772 5.4 27.679 27.679 0 0 1 46.409 8zM19.7 9.156A32.014 32.014 0 0 1 17.591 8a27.679 27.679 0 0 1 5.637-2.6A21.435 21.435 0 0 0 19.7 9.156zm-4.1.153c.051-.038.107-.069.159-.106a29.616 29.616 0 0 0 2.805 1.61C15.266 16.024 13.18 23.134 13.016 31H4.03A28.063 28.063 0 0 1 15.6 9.309zM4.03 33h8.986c.164 7.866 2.25 14.976 5.546 20.187a29.741 29.741 0 0 0-2.805 1.61c-.053-.038-.109-.069-.161-.108A28.06 28.06 0 0 1 4.03 33zm13.561 23.005a28.02 28.02 0 0 1 2.113-1.161 21.539 21.539 0 0 0 3.523 3.756 27.7 27.7 0 0 1-5.636-2.595zM44.3 54.844c.72.353 1.422.745 2.113 1.161a27.7 27.7 0 0 1-5.64 2.595 21.468 21.468 0 0 0 3.527-3.756zm4.106-.153c-.051.038-.107.069-.159.106a29.741 29.741 0 0 0-2.8-1.61c3.3-5.211 5.382-12.321 5.546-20.187h8.977A28.063 28.063 0 0 1 48.4 54.691z" fill="#00b39d"/></g></svg>