<svg height="512" viewBox="0 0 64 64" width="512" xmlns="http://www.w3.org/2000/svg"><g data-name="Gps"><path d="M46 3H18a4 4 0 0 0-4 4v50a4 4 0 0 0 4 4h28a4 4 0 0 0 4-4V7a4 4 0 0 0-4-4z" fill="#5aaae7"/><path d="M32 19v18l-10 8z" fill="#ff5023"/><path d="M32 19l10 26-10-8z" fill="#ed1c24"/><path d="M40 3v3a2.006 2.006 0 0 1-2 2H26a2.006 2.006 0 0 1-2-2V3z" fill="#ff9811"/><g fill="#bddbff"><path d="M43.009 38.135l-.271-1.981 1.983-.271.27 1.982zm-.54-3.963L42.2 32.19l1.983-.27.27 1.981zm-.541-3.964l-.271-1.981 1.983-.27.27 1.981zm-.54-3.963l-.271-1.981 1.983-.271.27 1.982zm-.541-3.964l-.27-1.981 1.983-.27.269 1.982zm-.54-3.962l-.271-1.982 1.983-.271.27 1.982zM20.991 38.135l-1.982-.27.27-1.982 1.983.271zm.54-3.963l-1.982-.272.27-1.981 1.983.27zm.541-3.964l-1.982-.27.27-1.981 1.983.27zm.54-3.963l-1.982-.27.27-1.982 1.983.271zm.541-3.964l-1.982-.269.269-1.982 1.983.27zm.54-3.962l-1.982-.271.27-1.982 1.983.271z"/></g></g></svg>