<svg height="512" viewBox="0 0 64 64" width="512" xmlns="http://www.w3.org/2000/svg"><g data-name="Location"><path d="M56 27c0 19-24 34-24 34S8 46 8 27a24 24 0 0 1 48 0z" fill="#ff5023"/><path d="M32 12a15.005 15.005 0 0 0-15 15 15.484 15.484 0 0 0 .17 2.28 15.005 15.005 0 0 0 29.66 0A15.484 15.484 0 0 0 47 27a15.005 15.005 0 0 0-15-15z" fill="#ffd422"/><path d="M32 30a1 1 0 0 1-.707-.293L26 24.414l-5.293 5.293-1.414-1.414 6-6a1 1 0 0 1 1.414 0L32 27.586l5.293-5.293a1 1 0 0 1 1.414 0l6 6-1.414 1.414L38 24.414l-5.293 5.293A1 1 0 0 1 32 30z" fill="#ff9811"/></g></svg>