<svg height="512" viewBox="0 0 64 64" width="512" xmlns="http://www.w3.org/2000/svg"><g data-name="Map"><path d="M61 7v34H3V7a4.012 4.012 0 0 1 4-4h50a4 4 0 0 1 4 4z" fill="#5aaae7"/><path d="M46 13c0 3.31-6 8-6 8s-6-4.69-6-8a6 6 0 0 1 12 0z" fill="#ff5023"/><path d="M43 57a2.006 2.006 0 0 1 2 2 2.015 2.015 0 0 1-2 2H21a2.006 2.006 0 0 1-2-2 2.015 2.015 0 0 1 2-2z" fill="#787680"/><path d="M39 49l1 8H24l1-8z" fill="#898890"/><path d="M61 41v4a4.012 4.012 0 0 1-4 4H7a4.012 4.012 0 0 1-4-4v-4z" fill="#acabb1"/><path d="M39 41h-8v-8H20v8h-8v-8H3v-8h9V3h8v22h41v8H39z" fill="#ffb655"/><circle cx="40" cy="13" fill="#ffd422" r="2"/><path d="M54 44h2v2h-2z" fill="#898890"/><g fill="#ee8700"><path d="M7 28h4v2H7zM15 20h2v4h-2zM15 12h2v4h-2zM15 4h2v4h-2zM15 34h2v4h-2zM21 28h4v2h-4zM29 28h4v2h-4zM37 28h4v2h-4zM34 34h2v4h-2zM45 28h4v2h-4zM53 28h4v2h-4z"/></g></g></svg>