<svg height="512" viewBox="0 0 64 64" width="512" xmlns="http://www.w3.org/2000/svg"><g data-name="Map"><path d="M3 11h58v42H3z" fill="#5aaae7"/><path d="M50 17.86A3.013 3.013 0 0 1 47.14 21H47a3 3 0 1 1 3-3.14z" fill="#ff5023"/><path d="M48 29H27V11h-8v18H3v8h16v16h8V37h11v16h8V37h15v-8z" fill="#ffb655"/><path d="M13.83 37a2.993 2.993 0 0 0-5.65 0A2.708 2.708 0 0 0 8 38.14 3.009 3.009 0 0 0 11 41h.14A3.013 3.013 0 0 0 14 37.86a3.054 3.054 0 0 0-.17-.86zM46 21h2v5h-2zM10 41h2v5h-2z" fill="#ff5023"/><g fill="#ffd422"><path d="M10 48h2v2h-2zM14 48h2v2h-2zM18 48h2v2h-2zM22 48h2v2h-2z"/><path d="M22 48h2v2h-2zM22 44h2v2h-2z"/><path d="M22 44h2v2h-2zM22 40h2v2h-2z"/><path d="M22 40h2v2h-2zM22 36h2v2h-2z"/><path d="M22 36h2v2h-2zM22 32h2v2h-2z"/><path d="M22 32h2v2h-2zM26 32h2v2h-2z"/><path d="M26 32h2v2h-2zM30 32h2v2h-2z"/><path d="M30 32h2v2h-2zM34 32h2v2h-2z"/><path d="M34 32h2v2h-2zM38 32h2v2h-2z"/><path d="M38 32h2v2h-2zM42 32h2v2h-2z"/><path d="M42 32h2v2h-2zM46 32h2v2h-2z"/><path d="M46 32h2v2h-2zM46 28h2v2h-2z"/><path d="M46 28h2v2h-2z"/></g><path d="M47 22a4 4 0 1 1 4-4.181A4.006 4.006 0 0 1 47.18 22H47zm0-6h-.092A2 2 0 1 0 47 16zM11 42a4 4 0 1 1 .184 0H11zm0-6h-.092A2 2 0 1 0 11 36z" fill="#ed1c24"/></g></svg>