<svg height="512" viewBox="0 0 64 64" width="512" xmlns="http://www.w3.org/2000/svg"><path d="M22 7v42L3 57V15zM61 7v42l-19 8V15z" fill="#5aaae7"/><path d="M15 33.86A3.013 3.013 0 0 1 12.14 37H12a3 3 0 1 1 3-3.14zM55 18.86A3.013 3.013 0 0 1 52.14 22H52a3 3 0 1 1 3-3.14z" fill="#ff5023"/><path d="M22 7v42l20 8V15z" fill="#3d9ae2"/><path d="M51 22h2v5h-2zM11 37h2v7h-2z" fill="#ff5023"/><g fill="#bddbff"><path d="M43.132 34.624l-.742-1.856 1.857-.744.742 1.857zm-2.632-.257l-1.789-.895.9-1.789 1.789.9zm6.349-1.228l-.749-1.858 1.857-.742.743 1.861zm-9.927-.561l-1.788-.894.894-1.789 1.788.894zm13.641-.925l-.746-1.853 1.812-.725.742 1.858zm-17.218-.864l-1.792-.889.894-1.79 1.789.89zM12.515 47.857l-1.03-1.714 1.715-1.029 1.029 1.715zm3.429-2.057l-1.029-1.715 1.715-1.028 1.029 1.715zm15.284-.031l-1.857-.743.742-1.857 1.857.743zm-3.714-1.485l-1.858-.743.742-1.857 1.858.742zm-8.139-.541l-1.029-1.715L20.061 41l1.029 1.714zM23.8 42.8l-1.858-.743.743-1.857 1.857.742zM31 40h2v2h-2zM31 36h2v2h-2zM31 32h2v2h-2z"/></g><path d="M52 23a4 4 0 1 1 4-4.181A4.006 4.006 0 0 1 52.18 23H52zm0-6h-.092A2 2 0 0 0 50 19.09 1.983 1.983 0 0 0 52.09 21a2 2 0 0 0-.09-4zM12 38a4 4 0 1 1 4-4.181A4.006 4.006 0 0 1 12.18 38H12zm0-6h-.092A2 2 0 1 0 12 32z" fill="#ed1c24"/></svg>