<svg height="512" viewBox="0 0 64 64" width="512" xmlns="http://www.w3.org/2000/svg"><path d="M57 32H37a5 5 0 0 0-5-5V7a24.89 24.89 0 0 1 15.26 5.2 24.4 24.4 0 0 1 4.54 4.54A24.89 24.89 0 0 1 57 32z" fill="#ffd422"/><path d="M7 32h20a5 5 0 0 1 5-5V7A25 25 0 0 0 7 32zM27 32H7a25 25 0 0 0 25 25V37a5 5 0 0 1-5-5zM53 32H37a5 5 0 0 1-5 5v20a25 25 0 0 0 25-25z" fill="#78b9eb"/><circle cx="32" cy="32" fill="#ff9811" r="5"/><path d="M47.26 12.2l-4.29 1.89-4.75 2.09-.53.23 1.71.29 6.77 1.13.68-.68 2.83-2.83 5.68-5.68z" fill="#ff5023"/><path d="M49.68 14.32l-2.83 2.83-.68.68 1.13 6.77.29 1.71.23-.53 2.09-4.75 1.89-4.29 3.56-8.1z" fill="#ed1c24"/><g fill="#c6c5ca"><path d="M32 38a6 6 0 1 1 6-6 6.006 6.006 0 0 1-6 6zm0-10a4 4 0 1 0 4 4 4 4 0 0 0-4-4z"/><path d="M32 42a10 10 0 1 1 10-10 10.011 10.011 0 0 1-10 10zm0-18a8 8 0 1 0 8 8 8.009 8.009 0 0 0-8-8z"/><path d="M32 46a14 14 0 1 1 14-14 14.015 14.015 0 0 1-14 14zm0-26a12 12 0 1 0 12 12 12.013 12.013 0 0 0-12-12z"/><path d="M32 50a18 18 0 1 1 4.234-35.5l-.468 1.944a15.98 15.98 0 1 0 11.986 12.73l1.969-.35A18.236 18.236 0 0 1 50 32a18.021 18.021 0 0 1-18 18z"/><path d="M32 54a22 22 0 1 1 8.381-42.347l-.762 1.847A19.982 19.982 0 1 0 50.5 24.381l1.85-.762A22.014 22.014 0 0 1 32 54z"/><path d="M32 58A26 26 0 1 1 45.521 9.788L44.479 11.5a23.99 23.99 0 1 0 8.026 8.026l1.707-1.042A26.006 26.006 0 0 1 32 58z"/></g><path d="M31 2h2v60h-2z" fill="#acabb1"/><path d="M2 31h60v2H2z" fill="#acabb1"/></svg>