<svg xmlns="http://www.w3.org/2000/svg" viewBox="0 0 512 512"><path d="M256.921 168.842V7.601L442 85.689c2.24.945 2.24 4.12 0 5.065l-185.079 78.088z" fill="#ff4c4c"/><path d="M442.001 85.689L401.65 68.665l-144.73 61.063v39.114L442 90.754c2.241-.945 2.241-4.12.001-5.065z" fill="#ea2828"/><path d="M256.921 322.27a7.597 7.597 0 0 1-7.597-7.597V7.597c0-4.196 3.401-7.597 7.597-7.597s7.597 3.401 7.597 7.597v307.077a7.598 7.598 0 0 1-7.597 7.596z" fill="#2d5872"/><path d="M503.456 342.848h-162.88v-42.426a6.272 6.272 0 0 0-6.272-6.272H177.695a6.272 6.272 0 0 0-6.272 6.272v42.426H8.543a6.272 6.272 0 0 0-6.272 6.272v156.608A6.272 6.272 0 0 0 8.543 512h494.912a6.272 6.272 0 0 0 6.272-6.272V349.12a6.27 6.27 0 0 0-6.271-6.272z" fill="#b9bbc1"/><g fill="#a0a3aa"><path d="M503.456 342.848h-31.185V512h31.186a6.272 6.272 0 0 0 6.272-6.272V349.12a6.273 6.273 0 0 0-6.273-6.272zM171.423 342.848h-37.458V512h37.458z"/></g><path d="M340.576 512H171.423V300.422a6.272 6.272 0 0 1 6.272-6.272h156.608a6.272 6.272 0 0 1 6.272 6.272L340.576 512z" fill="#b9bbc1"/><path d="M334.303 294.15H304.43V512h36.145V300.422a6.27 6.27 0 0 0-6.272-6.272z" fill="#a0a3aa"/><path d="M84.341 485.059c-31.78 0-57.635-25.855-57.635-57.635 0-31.781 25.855-57.636 57.635-57.636h.849c31.78 0 57.635 25.855 57.635 57.636 0 31.78-25.855 57.635-57.635 57.635h-.849z" fill="#fed130"/><path d="M85.19 369.788h-.849c-5.467 0-10.751.781-15.766 2.21 22.948 7.968 39.469 29.8 39.469 55.426s-16.521 47.457-39.469 55.425a57.434 57.434 0 0 0 15.766 2.21h.849c31.78 0 57.635-25.855 57.635-57.635.001-31.781-25.855-57.636-57.635-57.636z" fill="#f7bc14"/><path d="M256.505 460.711c-31.781 0-57.636-25.855-57.636-57.636 0-31.78 25.855-57.635 57.636-57.635h.848c31.78 0 57.635 25.855 57.635 57.635 0 31.781-25.855 57.636-57.635 57.636h-.848z" fill="#fed130"/><path d="M257.354 345.44h-.848c-5.538 0-10.889.801-15.961 2.265 22.871 8.01 39.322 29.799 39.322 55.37s-16.452 47.36-39.323 55.37a57.432 57.432 0 0 0 15.961 2.266h.848c31.78 0 57.635-25.855 57.635-57.636.001-31.78-25.854-57.635-57.634-57.635z" fill="#f7bc14"/><path d="M426.809 485.059c-31.78 0-57.635-25.855-57.635-57.635 0-31.781 25.855-57.636 57.635-57.636h.849c31.78 0 57.635 25.855 57.635 57.636 0 31.78-25.855 57.635-57.635 57.635h-.849z" fill="#fed130"/><path d="M427.659 369.788h-.849c-5.52 0-10.854.796-15.912 2.252 22.89 7.999 39.359 29.8 39.359 55.384 0 25.585-16.469 47.384-39.359 55.383a57.424 57.424 0 0 0 15.912 2.252h.849c31.78 0 57.635-25.855 57.635-57.635 0-31.781-25.855-57.636-57.635-57.636z" fill="#f7bc14"/><g fill="#2d5872"><path d="M427.777 459.748c11.602 0 21.095-5.362 21.095-19.513v-1.67c0-7.295-3.78-11.251-8.965-13.272 4.307-2.021 6.856-7.647 6.856-14.591 0-11.69-7.911-15.733-18.546-15.733-14.855 0-19.249 9.053-19.249 15.294 0 3.692.791 4.923 5.889 4.923 4.219 0 5.45-1.758 5.45-4.395 0-3.516 2.109-5.889 7.823-5.889 4.746 0 7.735 1.934 7.735 7.735 0 7.559-3.691 8.613-8.086 8.613-2.549 0-3.428 2.286-3.428 4.483 0 2.285.879 4.483 3.428 4.483 5.625 0 9.669 1.846 9.669 8.35v1.67c0 6.68-2.813 9.492-9.405 9.492-5.625 0-9.141-2.461-9.141-6.416 0-2.813-1.23-4.043-5.889-4.043-3.955 0-5.45.967-5.45 4.483-.002 7.118 5.799 15.996 20.214 15.996zM69.823 459.484h31.291c1.934 0 3.604-2.461 3.604-5.098s-1.67-4.922-3.604-4.922H76.679v-2.11c0-9.141 27.863-15.294 27.863-34.279 0-11.163-9.493-17.843-19.689-17.843-9.757 0-18.898 6.153-18.898 16.173 0 4.746 2.197 6.153 5.186 6.153 3.78 0 5.977-2.109 5.977-4.219 0-5.45 3.516-7.735 7.823-7.735 5.801 0 8.174 4.219 8.174 7.823 0 12.394-28.303 19.865-28.303 33.928v8.526c.001 2.197 2.989 3.603 5.011 3.603zM247.029 385.678c.615 0 1.406-.176 2.109-.791l2.813-2.813v46.936c0 2.373 2.813 3.604 5.713 3.604 2.813 0 5.713-1.231 5.713-3.604v-57.132c0-2.286-2.725-3.692-5.098-3.692-.967 0-1.758.352-2.374.879l-10.372 7.911c-1.406.879-2.197 2.549-2.197 4.131.001 2.285 1.495 4.571 3.693 4.571z"/></g></svg>