<svg xmlns="http://www.w3.org/2000/svg" viewBox="0 0 512.002 512.002"><path d="M508.329 334.041H3.672a3.67 3.67 0 0 1-3.547-4.611l19.235-72.489a3.661 3.661 0 0 0 0-1.882L.126 182.57a3.67 3.67 0 0 1 3.547-4.611H508.33a3.67 3.67 0 0 1 3.547 4.611l-19.235 72.489a3.661 3.661 0 0 0 0 1.882l19.235 72.489a3.67 3.67 0 0 1-3.548 4.611z" fill="#10c4c4"/><path d="M492.641 256.941a3.661 3.661 0 0 1 0-1.882l19.235-72.489a3.67 3.67 0 0 0-3.547-4.611h-32.462L455.16 256l20.708 78.041h32.462a3.67 3.67 0 0 0 3.547-4.611l-19.236-72.489z" fill="#04afaf"/><path d="M401.517 144.171a35.827 35.827 0 0 0 18.375 29.244c15.895 8.825 22.66 28.157 15.735 44.968a35.827 35.827 0 0 0 3.867 34.32c10.492 14.848 8.199 35.201-5.334 47.342a35.826 35.826 0 0 0-11.407 32.6c3.011 17.93-7.886 35.272-25.347 40.339a35.828 35.828 0 0 0-24.422 24.422c-5.067 17.461-22.409 28.357-40.339 25.347a35.828 35.828 0 0 0-32.6 11.407c-12.141 13.533-32.494 15.826-47.342 5.334a35.827 35.827 0 0 0-34.32-3.867c-16.81 6.925-36.142.16-44.968-15.735a35.825 35.825 0 0 0-29.244-18.375c-18.15-1.055-32.633-15.537-33.687-33.687a35.827 35.827 0 0 0-18.375-29.244c-15.895-8.825-22.66-28.157-15.735-44.968a35.827 35.827 0 0 0-3.867-34.32c-10.492-14.848-8.199-35.201 5.334-47.342a35.826 35.826 0 0 0 11.407-32.6c-3.011-17.93 7.886-35.272 25.347-40.339a35.826 35.826 0 0 0 24.422-24.422c5.067-17.461 22.409-28.357 40.339-25.347a35.828 35.828 0 0 0 32.6-11.407c12.141-13.533 32.494-15.826 47.342-5.334a35.827 35.827 0 0 0 34.32 3.867c16.81-6.925 36.142-.16 44.968 15.735a35.825 35.825 0 0 0 29.244 18.375c18.15 1.054 32.633 15.537 33.687 33.687z" fill="#ffb125"/><path d="M439.494 252.703a35.829 35.829 0 0 1-3.867-34.321c6.925-16.81.16-36.142-15.735-44.968a35.825 35.825 0 0 1-18.375-29.244c-1.055-18.15-15.537-32.633-33.687-33.688a35.827 35.827 0 0 1-29.244-18.375c-8.825-15.895-28.157-22.66-44.968-15.735a35.775 35.775 0 0 1-14.394 2.676 35.693 35.693 0 0 1 12.446 13.059 35.825 35.825 0 0 0 29.244 18.375c18.15 1.055 32.633 15.537 33.687 33.688a35.828 35.828 0 0 0 18.375 29.244c15.895 8.825 22.66 28.157 15.735 44.968a35.83 35.83 0 0 0 3.867 34.321c10.492 14.848 8.199 35.201-5.334 47.342a35.826 35.826 0 0 0-11.407 32.599c3.011 17.93-7.886 35.272-25.347 40.339a35.826 35.826 0 0 0-24.422 24.422c-5.067 17.461-22.409 28.357-40.339 25.347a35.828 35.828 0 0 0-32.6 11.407 36.024 36.024 0 0 1-3.504 3.406 35.74 35.74 0 0 1 3.077 1.928c14.848 10.492 35.201 8.199 47.342-5.334a35.826 35.826 0 0 1 32.6-11.407c17.93 3.011 35.272-7.886 40.339-25.347a35.828 35.828 0 0 1 24.422-24.422c17.461-5.067 28.357-22.409 25.347-40.339a35.825 35.825 0 0 1 11.407-32.599c13.534-12.141 15.827-32.494 5.335-47.342z" fill="#ff901d"/><circle cx="256.001" cy="256" r="146.51" fill="#e1effb"/><path d="M256.001 109.488c-8.293 0-16.421.7-24.337 2.024C300.995 123.105 353.839 183.376 353.839 256s-52.843 132.895-122.175 144.489a147.442 147.442 0 0 0 24.337 2.024c80.917 0 146.512-65.596 146.512-146.512s-65.595-146.513-146.512-146.513z" fill="#c3d8e5"/><circle cx="256.001" cy="256" r="146.51" fill="#e1effb"/><path d="M256.001 109.488c-8.293 0-16.421.7-24.337 2.024C300.995 123.105 353.839 183.376 353.839 256s-52.843 132.895-122.175 144.489a147.442 147.442 0 0 0 24.337 2.024c80.917 0 146.512-65.596 146.512-146.512s-65.595-146.513-146.512-146.513z" fill="#c3d8e5"/><path d="M322.908 182.919a4.118 4.118 0 0 0-3.48-1.916H192.574a4.118 4.118 0 0 0-3.48 1.916l-29.997 47.392a4.12 4.12 0 0 0 .24 4.745l93.424 119.089c1.649 2.102 4.832 2.102 6.481 0l93.424-119.089a4.12 4.12 0 0 0 .24-4.745l-29.998-47.392z" fill="#10c4c4"/><path d="M189.094 182.919l-.513.81-29.484 46.582a4.104 4.104 0 0 0-.627 2.457h195.063a4.11 4.11 0 0 0-.627-2.457l-29.484-46.582-.513-.81a4.118 4.118 0 0 0-3.48-1.916H192.574a4.118 4.118 0 0 0-3.48 1.916z" fill="#21d8de"/><g fill="#25f2f2"><path d="M255.747 181.003l-32.974 51.762H288.721zM288.721 232.765l64.811.003a4.137 4.137 0 0 0-.112-1.243l-.004-.022a4.213 4.213 0 0 0-.181-.539c-.01-.024-.015-.05-.025-.074a4.103 4.103 0 0 0-.304-.579l-6.077-9.601-19.537-30.866-4.384-6.926a4.075 4.075 0 0 0-.313-.43l-.041-.043a4.181 4.181 0 0 0-.324-.341l-.008-.007a4.152 4.152 0 0 0-.842-.601l-32.659 51.269z"/><path d="M190.622 181.498a4.12 4.12 0 0 0-1.528 1.421l-10.536 16.646-19.461 30.746a4.112 4.112 0 0 0-.628 2.457l64.811-.003-32.658-51.267z"/></g><g fill="#21d8de"><path d="M223.281 232.765h-64.812c.05.816.339 1.617.867 2.291l93.424 119.089a4.08 4.08 0 0 0 2.558 1.514l-32.037-122.894zM352.666 235.056a3.96 3.96 0 0 0 .579-1.02c.01-.025.024-.048.034-.073.144-.384.228-.786.254-1.192l.001-.004-65.065-.003-31.79 122.895a4.14 4.14 0 0 0 1.305-.451c.038-.021.076-.04.113-.062.067-.039.132-.083.197-.126a4.177 4.177 0 0 0 .331-.245 4.35 4.35 0 0 0 .204-.182c.039-.037.078-.072.116-.11.104-.106.204-.217.298-.337l59.22-75.489 34.203-43.601z"/></g><g fill="#0bb2ad"><path d="M253.248 354.658zM253.803 355.072zM254.444 355.4zM255.108 355.604c-.049-.011-.097-.025-.145-.038.049.013.097.028.145.038zM239.131 336.771l.593.756-.593-.756z"/></g><g fill="#21d8de"><path d="M255.319 355.659l-.006-.024c-.068-.011-.137-.017-.204-.031.07.016.139.043.21.055zM254.963 355.567zM239.724 337.527l13.036 16.618.002.002-.002-.002zM253.414 354.795c-.056-.045-.112-.089-.165-.137.053.048.109.092.165.137zM254.004 355.197c-.069-.038-.134-.082-.201-.124.067.042.132.086.201.124z"/></g></svg>