<svg xmlns="http://www.w3.org/2000/svg" viewBox="0 0 512 512"><path d="M312.932 294.857h-137.93c-35.092 0-63.026-29.395-61.239-64.442l7.055-138.353C123.448 40.477 166.042 0 217.695 0h52.544c51.653 0 94.246 40.477 96.877 92.063l7.055 138.353c1.787 35.046-26.147 64.441-61.239 64.441z" fill="#ff901d"/><path d="M374.171 230.415l-7.055-138.353C364.485 40.477 321.892 0 270.239 0h-36.24c51.653 0 94.246 40.477 96.877 92.063l7.055 138.353c1.787 35.047-26.147 64.442-61.239 64.442h36.24c35.092-.001 63.026-29.396 61.239-64.443z" fill="#ff6d3a"/><path d="M460.05 400.525c-7.441-31.854-31.449-58.048-63.844-67.586l-82.579-23.37c-10.79-2.169-18.552-14.685-18.552-25.691v-49.044H192.859v49.044c0 11.006-7.763 23.522-18.552 25.691l-82.579 23.37c-32.395 9.538-56.403 35.732-63.844 67.586H460.05z" fill="#fed9a8"/><path d="M258.972 234.834v75.871c0 11.006 7.763 23.522 18.552 25.691l82.579 23.37c22.68 6.678 41.239 21.526 52.891 40.758h47.056c-7.441-31.854-31.449-58.048-63.844-67.586l-82.579-23.37c-10.79-2.169-18.552-14.685-18.552-25.691v-49.044l-36.103.001z" fill="#f4c28c"/><path d="M405.494 332.438l-27.509-9.243c-3.493-1.174-7.362-.096-9.712 2.742-18.164 21.936-59.411 60.962-124.306 63.174-64.895-2.212-106.142-41.238-124.306-63.174-2.35-2.838-6.219-3.915-9.712-2.742l-27.509 9.243c-41.694 12.276-70.322 50.548-70.322 94.013v66.156c0 10.711 8.683 19.393 19.393 19.393h424.912c10.711 0 19.394-8.683 19.394-19.394V426.45c-.001-43.464-28.629-81.736-70.323-94.012z" fill="#a567db"/><path d="M405.494 332.438l-27.509-9.243c-3.493-1.174-7.362-.096-9.712 2.742a187.271 187.271 0 0 1-23.657 23.797l24.466 8.22c41.694 12.276 70.322 37.349 70.322 80.813V512h17.018c10.711 0 19.394-8.683 19.394-19.394V426.45c0-43.464-28.628-81.736-70.322-94.012z" fill="#9054d1"/><path d="M348.033 123.843h-6.642c0-3.689-2.826-6.761-6.501-7.091-88.518-7.965-117.616-32.77-141.763-57.818-4.297-4.457-45.918 13.116-46.585 53.97v10.94H139.9c-9.738 0-17.633 7.894-17.633 17.633v19.54c0 9.738 7.894 17.632 17.632 17.632h6.669c.549 25.59 18.627 50.221 38.055 66.949 15.641 13.467 30.301 25.222 59.343 25.546 29.042-.324 43.703-12.079 59.343-25.546 19.427-16.728 37.506-41.359 38.055-66.949h6.669c9.738 0 17.633-7.894 17.633-17.633v-19.54c0-9.739-7.894-17.633-17.633-17.633z" fill="#fed9a8"/><path d="M348.033 123.843h-6.642c0-3.689-2.826-6.761-6.501-7.091-10.638-.957-20.409-2.16-29.425-3.575.019 3.201.003 65.471.003 65.471-.549 25.59-18.627 50.221-38.055 66.949-12.04 10.367-23.507 19.714-41.395 23.618 5.348 1.167 11.264 1.854 17.948 1.928 29.042-.324 43.703-12.079 59.343-25.546 19.427-16.728 37.506-41.359 38.055-66.949h6.669c9.738 0 17.633-7.894 17.633-17.633v-19.54c0-9.738-7.895-17.632-17.633-17.632z" fill="#f4c28c"/><g fill="#ffb125"><path d="M353.655 403.265c-22.165.001-43.057-7.288-59.012-20.911-18.046-15.408-27.985-37.432-27.985-62.015v-13.163c0-3.674 1.432-7.126 4.033-9.722a13.64 13.64 0 0 1 9.698-4.011h.03l62.249.136c6.265.014 11.332 5.103 11.318 11.367-.014 6.255-5.089 11.317-11.342 11.317h-.025l-53.277-.117v4.191c0 17.838 7.113 33.735 20.03 44.763 14.757 12.599 35.527 17.874 56.973 14.467 6.178-.975 11.999 3.237 12.98 9.424.982 6.187-3.238 11.998-9.424 12.98a103.507 103.507 0 0 1-16.246 1.294zM412.883 403.265a103.74 103.74 0 0 1-16.246-1.291c-6.186-.982-10.406-6.793-9.424-12.98s6.783-10.404 12.98-9.424c21.446 3.404 42.218-1.868 56.974-14.467 12.916-11.028 20.03-26.926 20.03-44.763v-4.191l-53.277.117h-.024c-6.253 0-11.328-5.062-11.342-11.317-.014-6.265 5.053-11.353 11.318-11.367l62.249-.136h.03a13.64 13.64 0 0 1 9.698 4.011 13.642 13.642 0 0 1 4.033 9.722v13.163c0 24.583-9.938 46.607-27.985 62.015-15.955 13.618-36.851 20.908-59.014 20.908z"/></g><g fill="#fed130"><path d="M349.854 483.3h66.831c-27.683-32.38-24.794-79.047-24.794-79.047h-17.242c-.001-.001 2.888 46.666-24.795 79.047z"/><path d="M322.5 290.377v44.993a99.509 99.509 0 0 0 40.486 80.114 34.197 34.197 0 0 0 40.566 0 99.506 99.506 0 0 0 40.486-80.114v-44.993H322.5z"/></g><path d="M397.578 290.377v44.993a99.5 99.5 0 0 1-37.539 77.846c.968.77 1.947 1.53 2.947 2.267a34.197 34.197 0 0 0 40.566 0 99.506 99.506 0 0 0 40.486-80.114v-44.993h-46.46v.001z" fill="#f7bc14"/><path d="M440.159 512H326.38a3.196 3.196 0 0 1-3.136-3.808l6.03-30.858a3.194 3.194 0 0 1 3.136-2.582h101.72a3.195 3.195 0 0 1 3.136 2.582l6.03 30.858a3.197 3.197 0 0 1-3.137 3.808z" fill="#ffb125"/><path d="M443.295 508.192l-6.03-30.858a3.194 3.194 0 0 0-3.136-2.582h-43.485L397.923 512h42.236a3.196 3.196 0 0 0 3.136-3.808z" fill="#ff901d"/><path d="M447.645 293.443H318.894a4.301 4.301 0 0 1-4.301-4.301v-14.923a4.301 4.301 0 0 1 4.301-4.301h128.751a4.301 4.301 0 0 1 4.301 4.301v14.923a4.301 4.301 0 0 1-4.301 4.301z" fill="#ffb125"/><path d="M447.645 269.918h-41.987v23.525h41.987a4.301 4.301 0 0 0 4.301-4.301v-14.923a4.301 4.301 0 0 0-4.301-4.301z" fill="#ff901d"/><path d="M84.605 417.19a7.728 7.728 0 0 0-7.729 7.729V512h15.458v-87.081a7.73 7.73 0 0 0-7.729-7.729z" fill="#9054d1"/></svg>