<svg xmlns="http://www.w3.org/2000/svg" viewBox="0 0 512.001 512.001"><path d="M356.517 511.263l-98.694-42.613a8.872 8.872 0 0 0-7.128.041l-95.119 42.363c-5.869 2.614-12.485-1.682-12.485-8.107V8.875A8.875 8.875 0 0 1 151.966 0h208.069a8.875 8.875 0 0 1 8.875 8.875v494.241c-.001 6.381-6.535 10.677-12.393 8.147z" fill="#ff4c4c"/><path d="M360.034 0h-38.163v496.305l34.645 14.959c5.859 2.53 12.392-1.766 12.392-8.148V8.875A8.873 8.873 0 0 0 360.034 0z" fill="#ea2828"/><circle cx="256" cy="230.06" r="175.2" fill="#f2f2f2"/><path d="M256 54.859c-8.119 0-16.104.565-23.929 1.634 85.436 11.671 151.267 84.923 151.267 173.562s-65.831 161.892-151.267 173.562A176.688 176.688 0 0 0 256 405.251c96.758 0 175.196-78.438 175.196-175.196S352.758 54.859 256 54.859z" fill="#d9dde2"/><g fill="#2c5871"><path d="M274.8 276.022V150.706a2.025 2.025 0 0 0-2.025-2.025h-23.654c-.476 0-.937.168-1.301.474l-42.975 36.065a2.025 2.025 0 0 0-.294 2.797l14.094 18.037a2.025 2.025 0 0 0 2.887.313l17.965-14.874c1.32-1.093 3.316-.154 3.316 1.559v82.969a2.025 2.025 0 0 1-2.025 2.025h-24.842a2.025 2.025 0 0 0-2.025 2.025v21.452c0 1.118.906 2.025 2.025 2.025h81.591a2.025 2.025 0 0 0 2.025-2.025v-21.452a2.025 2.025 0 0 0-2.025-2.025h-20.714a2.024 2.024 0 0 1-2.023-2.024zM148.662 144.783a7.726 7.726 0 0 0-10.769 1.843 144.868 144.868 0 0 0-12.266 20.829 7.725 7.725 0 0 0 6.957 11.075 7.725 7.725 0 0 0 6.967-4.379 129.252 129.252 0 0 1 10.954-18.6 7.726 7.726 0 0 0-1.843-10.768zM165.921 343.166a7.693 7.693 0 0 0 4.811 1.685 7.726 7.726 0 0 0 4.821-13.765 130.27 130.27 0 0 1-15.705-14.817 7.724 7.724 0 0 0-10.909-.591 7.724 7.724 0 0 0-.59 10.909 145.833 145.833 0 0 0 17.572 16.579zM196.257 106.636a7.723 7.723 0 0 0-10.507-2.989 145.36 145.36 0 0 0-20.049 13.474 7.724 7.724 0 0 0 4.833 13.756 7.698 7.698 0 0 0 4.823-1.695 129.807 129.807 0 0 1 17.91-12.037 7.724 7.724 0 0 0 2.99-10.509zM125.753 292.916a7.724 7.724 0 0 0 10.318 3.592 7.725 7.725 0 0 0 3.592-10.318 128.666 128.666 0 0 1-7.724-20.143 7.727 7.727 0 0 0-14.841 4.299 144.125 144.125 0 0 0 8.655 22.57zM284.806 355.974a129.512 129.512 0 0 1-21.368 3.012 7.724 7.724 0 0 0-7.275 8.15 7.725 7.725 0 0 0 8.151 7.275 144.963 144.963 0 0 0 23.925-3.373 7.725 7.725 0 1 0-3.433-15.064zM126.859 230.194v-.139c0-7.173.592-14.368 1.761-21.385a7.726 7.726 0 0 0-6.351-8.889 7.712 7.712 0 0 0-8.89 6.351 146.04 146.04 0 0 0-1.97 23.923v.139a7.725 7.725 0 1 0 15.45 0zM206.756 349.478a7.725 7.725 0 0 0-5.895 14.281 144.04 144.04 0 0 0 23.052 7.313 7.728 7.728 0 0 0 9.242-5.826 7.724 7.724 0 0 0-5.826-9.241 128.62 128.62 0 0 1-20.573-6.527zM387.439 199.507a7.725 7.725 0 0 0 7.423-9.883 144.075 144.075 0 0 0-8.678-22.56 7.725 7.725 0 0 0-13.903 6.739 128.725 128.725 0 0 1 7.744 20.135 7.728 7.728 0 0 0 7.414 5.569zM225.336 104.362c.57 0 1.151-.063 1.73-.196a129.475 129.475 0 0 1 21.366-3.034 7.723 7.723 0 0 0 7.266-8.157 7.72 7.72 0 0 0-8.158-7.267 144.984 144.984 0 0 0-23.921 3.398 7.725 7.725 0 0 0 1.717 15.256zM363.253 315.436a7.69 7.69 0 0 0 4.462 1.424 7.718 7.718 0 0 0 6.309-3.257 144.971 144.971 0 0 0 12.286-20.816 7.725 7.725 0 1 0-13.917-6.711 129.271 129.271 0 0 1-10.972 18.589 7.725 7.725 0 0 0 1.832 10.771zM315.206 106.38a7.725 7.725 0 0 0-4.204-10.084 143.97 143.97 0 0 0-23.061-7.29 7.726 7.726 0 0 0-3.4 15.072 128.492 128.492 0 0 1 20.58 6.505 7.728 7.728 0 0 0 10.085-4.203zM390.986 260.573a7.726 7.726 0 0 0 7.609-6.449 145.685 145.685 0 0 0 1.996-23.985l.001-.362a7.725 7.725 0 1 0-15.45 0l-.001.278c0 7.218-.599 14.456-1.782 21.515a7.724 7.724 0 0 0 7.627 9.003zM357.813 146.305a7.725 7.725 0 0 0 5.741-12.891 145.89 145.89 0 0 0-17.59-16.56 7.725 7.725 0 0 0-9.62 12.09 130.352 130.352 0 0 1 15.721 14.802 7.71 7.71 0 0 0 5.748 2.559zM322.376 357.509a7.694 7.694 0 0 0 3.745-.974 145.33 145.33 0 0 0 20.063-13.453 7.725 7.725 0 0 0-9.644-12.071 129.757 129.757 0 0 1-17.923 12.019 7.724 7.724 0 0 0-3 10.505 7.72 7.72 0 0 0 6.759 3.974z"/></g></svg>