<svg xmlns="http://www.w3.org/2000/svg" viewBox="0 0 512 512"><path d="M26.241 45.443l-2.999 8.587c-4.257 12.188 2.173 25.518 14.36 29.775l3.219 1.124L36.3 97.874c-4.257 12.188 2.173 25.518 14.36 29.775l9.541 3.332-4.521 12.945c-4.257 12.188 2.173 25.519 14.36 29.775l19.753 6.899-4.521 12.945c-4.257 12.188 2.172 25.518 14.36 29.775l149.104 52.077 48.915-140.05-265.53-92.74a4.616 4.616 0 0 0-5.88 2.836z" fill="#ffb125"/><path d="M216.002 239.006a12.511 12.511 0 0 0-3.07-7.154l-19.967-22.69a12.517 12.517 0 0 1-3.068-7.133l-6.968-76.647a17.639 17.639 0 0 1 12.583-18.517l11.168-3.29-21.159-7.39-36.256 10.68a17.64 17.64 0 0 0-12.583 18.517l6.968 76.647a12.51 12.51 0 0 0 3.068 7.133l19.967 22.69a12.518 12.518 0 0 1 3.07 7.154l.811 9.089 47.734 16.672-2.298-25.761z" fill="#ff901d"/><path d="M488.758 54.029l-2.999-8.587a4.617 4.617 0 0 0-5.88-2.836l-265.529 92.74 48.914 140.05 149.104-52.077c12.188-4.257 18.617-17.588 14.36-29.775l-4.521-12.945 19.752-6.899c12.188-4.257 18.617-17.588 14.36-29.775l-4.521-12.945 9.541-3.332c12.188-4.257 18.617-17.587 14.36-29.775l-4.521-12.945 3.219-1.124c12.188-4.256 18.618-17.587 14.361-29.775z" fill="#ff6d3a"/><path d="M488.758 54.029l-2.999-8.587a4.617 4.617 0 0 0-5.88-2.836L436.178 57.87l6.027 17.258c3.416 9.781-1.727 20.524-11.508 23.94l-7.429 2.595 5.879 17.31c3.416 9.781-1.702 20.515-11.483 23.931l-13.908 4.858 6.011 17.263c3.416 9.781-1.675 20.506-11.456 23.922l-24.178 8.444 6.042 17.252c3.416 9.781-1.743 20.479-11.524 23.895l43.717-15.218c12.188-4.257 18.617-17.588 14.36-29.775l-4.521-12.945 19.753-6.899c12.188-4.257 18.617-17.588 14.36-29.775l-4.521-12.945 9.541-3.332c12.188-4.257 18.617-17.588 14.36-29.775l-4.521-12.945 3.219-1.124c12.188-4.257 18.617-17.588 14.36-29.776z" fill="#ed5729"/><g fill="#ffb125"><path d="M461.34 127.649l-222.533 77.723-12.229-35.012 244.601-85.431 4.521 12.945c4.257 12.187-2.173 25.518-14.36 29.775zM412.368 223.32l-149.104 52.077-12.229-35.012L422.207 180.6l4.521 12.945c4.257 12.187-2.172 25.518-14.36 29.775z"/></g><g fill="#ff6d3a"><path d="M37.602 83.805l247.82 86.555 12.229-35.012-265.53-92.741a4.616 4.616 0 0 0-5.88 2.836l-2.999 8.587c-4.257 12.187 2.173 25.518 14.36 29.775zM70.04 173.701l190.924 66.683 12.229-35.012-212.992-74.391-4.521 12.945c-4.257 12.187 2.172 25.518 14.36 29.775z"/></g><path d="M316.487 106.864l-46.155-13.596v-8.245l3.109-2.645a39.39 39.39 0 0 0 13.869-30.005V31.311C287.311 14.018 273.293 0 256 0s-31.311 14.018-31.311 31.311v21.063a39.391 39.391 0 0 0 13.869 30.005l3.109 2.645v8.245l-46.155 13.596a17.638 17.638 0 0 0-12.582 18.517l6.968 76.647a12.51 12.51 0 0 0 3.068 7.133l19.967 22.69a12.51 12.51 0 0 1 3.069 7.154l15.973 179.087h48.05l15.973-179.087a12.516 12.516 0 0 1 3.069-7.154l19.967-22.69a12.517 12.517 0 0 0 3.068-7.133l6.968-76.647a17.64 17.64 0 0 0-12.583-18.518z" fill="#ffb125"/><path d="M316.487 106.864l-46.155-13.596v-8.245l3.109-2.645a39.39 39.39 0 0 0 13.869-30.005V31.311C287.311 14.018 273.293 0 256 0c-17.292 0-31.311 14.018-31.311 31.311v21.063a39.373 39.373 0 0 0 4.787 18.801c2.844 2.257 4.196 4.05 3.345 5.16a39.672 39.672 0 0 0 2.693 3.158c.043.045.089.087.132.132a38.538 38.538 0 0 0 2.913 2.754l3.109 2.645v8.245l28.461 13.596a17.64 17.64 0 0 1 12.583 18.517l-6.968 76.647a12.51 12.51 0 0 1-3.068 7.133l-19.967 22.69a12.518 12.518 0 0 0-3.07 7.154l-15.973 179.087H280.025l15.973-179.087a12.517 12.517 0 0 1 3.069-7.154l19.967-22.69a12.522 12.522 0 0 0 3.068-7.133l6.968-76.647a17.64 17.64 0 0 0-12.583-18.518z" fill="#ff901d"/><path d="M312.851 459.057H199.149l7.093-44.419a4.83 4.83 0 0 1 4.77-4.069h89.977a4.831 4.831 0 0 1 4.77 4.069l7.092 44.419z" fill="#ff6d3a"/><path d="M341.781 512H170.219c-3.374 0-5.945-3.021-5.406-6.352l9.735-60.108a5.476 5.476 0 0 1 5.406-4.601h152.092a5.477 5.477 0 0 1 5.406 4.601l9.735 60.108c.539 3.331-2.033 6.352-5.406 6.352z" fill="#2c5871"/><path d="M347.186 505.648l-9.735-60.108a5.477 5.477 0 0 0-5.406-4.601h-41.698L301.857 512h39.924c3.373 0 5.945-3.021 5.405-6.352z" fill="#1d4859"/><path d="M190.432 485.157l3.029-18.706a4.165 4.165 0 0 1 4.111-3.499h116.855a4.165 4.165 0 0 1 4.111 3.499l3.03 18.706a4.164 4.164 0 0 1-4.111 4.83H194.543a4.164 4.164 0 0 1-4.111-4.83z" fill="#e1effb"/><path d="M321.568 485.157l-3.03-18.706a4.164 4.164 0 0 0-4.111-3.499h-42.814l4.379 27.034h41.465a4.163 4.163 0 0 0 4.111-4.829z" fill="#c3d8e5"/><g fill="#ff901d"><path d="M476.817 102.592a23.483 23.483 0 0 0-1.117-4.718l-4.521-12.945-43.8 15.298-4.111 1.436 5.879 17.31c3.416 9.781-1.702 20.515-11.482 23.931l43.675-15.254c9.522-3.326 15.529-12.19 15.671-21.72a23.315 23.315 0 0 0-.194-3.338zM426.729 193.545l-4.521-12.945-48.074 16.79 6.042 17.253c3.416 9.781-1.743 20.479-11.524 23.895l43.717-15.218a23.34 23.34 0 0 0 5.273-2.621 23.145 23.145 0 0 0 3.133-2.515c6.44-6.137 9.078-15.694 5.954-24.639z"/></g><g fill="#ed5729"><path d="M143.405 199.325l59.054 20.626-9.494-10.789a12.517 12.517 0 0 1-3.068-7.133l-2.417-26.594-47.763-16.682 3.688 40.572zM185.522 96.184l-36.256 10.68c-5.835 1.719-10.19 6.25-11.878 11.792l46.404 16.208-.862-9.482a17.639 17.639 0 0 1 12.583-18.517l11.168-3.29-21.159-7.391z"/></g><path d="M256.001 243.123a7.725 7.725 0 0 0-7.726 7.726v159.72h15.453v-159.72a7.727 7.727 0 0 0-7.727-7.726z" fill="#2c5871"/></svg>