<svg xmlns="http://www.w3.org/2000/svg" viewBox="0 0 512 512"><path d="M184.063 445.121h143.872c-59.596-69.707-53.377-170.17-53.377-170.17H237.44s6.22 100.463-53.377 170.17z" fill="#ffb125"/><path d="M274.558 274.951H237.44s.755 12.214-.786 31.079c-3.203 39.191 5.199 78.598 25.246 112.426 5.445 9.188 11.739 18.155 19.014 26.665h47.021c-59.596-69.707-53.377-170.17-53.377-170.17z" fill="#ff901d"/><path d="M270.315 334.132h-28.633c-14.795 0-26.788-11.994-26.788-26.788v-35.84h82.209v35.84c.001 14.794-11.993 26.788-26.788 26.788z" fill="#ffb125"/><path d="M250.6 271.504v35.84c0 11.66-7.452 21.576-17.852 25.256a26.738 26.738 0 0 0 8.936 1.533h28.633c14.795 0 26.788-11.994 26.788-26.788v-35.84H250.6v-.001z" fill="#ff901d"/><path d="M378.469 512h-244.94c-4.328 0-7.58-3.949-6.75-8.197l12.981-66.43a6.878 6.878 0 0 1 6.75-5.559h218.98c3.29 0 6.119 2.33 6.75 5.559l12.981 66.43c.829 4.248-2.424 8.197-6.752 8.197z" fill="#2d5872"/><path d="M385.221 503.803l-12.981-66.431a6.878 6.878 0 0 0-6.75-5.559h-40.841L340.318 512h38.153c4.326 0 7.578-3.949 6.75-8.197z" fill="#1d4859"/><path d="M156.061 483.278l4.69-24.004a3.288 3.288 0 0 1 3.227-2.658h184.04a3.287 3.287 0 0 1 3.227 2.658l4.69 24.004a3.288 3.288 0 0 1-3.227 3.919H159.289a3.288 3.288 0 0 1-3.228-3.919z" fill="#e1effb"/><path d="M355.938 483.278l-4.69-24.004a3.288 3.288 0 0 0-3.227-2.658h-43.797l5.976 30.581h42.511a3.29 3.29 0 0 0 3.227-3.919z" fill="#c3d8e5"/><circle cx="255.999" cy="151.28" r="151.28" fill="#e6e6e6"/><path d="M255.999 0c-7.97 0-15.795.621-23.433 1.808 72.425 11.263 127.853 73.895 127.853 149.477S304.992 289.5 232.566 300.762a152.365 152.365 0 0 0 23.433 1.808c83.553 0 151.285-67.733 151.285-151.285S339.552 0 255.999 0z" fill="#d3d3c9"/><path d="M312.078 139.811l47.246-18.405a7.735 7.735 0 0 0 2.568-1.643l45.368 33.501c.008-.659.025-1.317.025-1.978 0-36.54-12.955-70.055-34.522-96.202l-14.787 51.496a7.705 7.705 0 0 0-4.279.382l-45.401 17.687-44.545-30.947V42.396l46.557-32.345C293.45 3.564 275.143 0 255.999 0s-37.45 3.564-54.308 10.051l46.557 32.345v51.305l-44.493 30.911-50.166-19.543-14.353-49.985c-21.567 26.147-34.522 59.661-34.522 96.202 0 .661.017 1.319.025 1.978l44.849-33.118 50.31 19.599 16.18 47.615-33.216 46.689-54.534-1.575c19.478 30.567 49.632 53.662 85.209 64.047l-18.132-53.361 32.999-46.383h55.184l33.005 46.392-18.129 53.352c35.577-10.385 65.73-33.48 85.208-64.047l-54.543 1.576-33.211-46.68 16.16-47.559z" fill="#2d5872"/><g fill="#1d4859"><path d="M356.576 111.457a5.409 5.409 0 0 0 1.986 5.845l48.698 35.96c.008-.659.025-1.317.025-1.978 0-36.54-12.955-70.055-34.522-96.202l-16.187 56.375zM335.914 233.853a152.06 152.06 0 0 1-26.625 30.809l-10.825 31.858.005-.001a150.326 150.326 0 0 0 28.467-11.587l.204-.108c.908-.485 1.81-.98 2.707-1.483l.355-.199c.863-.487 1.72-.982 2.573-1.486l.441-.26a155.853 155.853 0 0 0 5.855-3.664c.804-.529 1.604-1.065 2.397-1.609l.417-.289c.811-.56 1.617-1.126 2.416-1.701.102-.073.202-.148.303-.221.836-.605 1.667-1.216 2.49-1.837l.064-.049a152.244 152.244 0 0 0 15.009-12.974c.113-.111.228-.221.34-.332.643-.638 1.278-1.284 1.91-1.933.181-.186.363-.37.543-.557.591-.613 1.174-1.234 1.755-1.857.213-.229.427-.456.638-.686.555-.603 1.103-1.212 1.648-1.824.228-.256.457-.512.684-.77.529-.602 1.053-1.21 1.573-1.82.232-.273.464-.546.694-.82a140.684 140.684 0 0 0 2.201-2.687c.495-.618.987-1.24 1.472-1.866.222-.286.441-.574.66-.861.485-.635.967-1.272 1.442-1.915.206-.278.407-.559.611-.838.482-.661.962-1.324 1.433-1.993.177-.252.351-.507.527-.76.49-.705.978-1.411 1.457-2.125.126-.187.247-.377.372-.565.521-.785 1.039-1.572 1.546-2.367l-47.759 1.377z"/></g></svg>