<svg xmlns="http://www.w3.org/2000/svg" viewBox="0 0 512 512"><path fill="#ffb125" d="M346.334 455.128H165.666l43.53-101.222h93.608z"/><path fill="#ff901d" d="M302.804 353.906h-47.591l43.529 101.222h47.592z"/><path d="M417.011 512H94.989c-5.801 0-10.161-5.294-9.048-10.987l17.4-89.044a9.22 9.22 0 0 1 9.048-7.451h287.223a9.22 9.22 0 0 1 9.048 7.451l17.4 89.044c1.112 5.693-3.247 10.987-9.049 10.987z" fill="#2d5872"/><path d="M426.059 501.013l-17.4-89.044a9.22 9.22 0 0 0-9.048-7.451h-41.622L378.992 512h38.019c5.802 0 10.161-5.294 9.048-10.987z" fill="#1d4859"/><path d="M124.861 475.19l6.842-35.011a2.99 2.99 0 0 1 2.935-2.417h242.725a2.99 2.99 0 0 1 2.935 2.417l6.841 35.011a2.99 2.99 0 0 1-2.935 3.564H127.796a2.99 2.99 0 0 1-2.935-3.564z" fill="#e1effb"/><path d="M387.139 475.19l-6.841-35.011a2.99 2.99 0 0 0-2.935-2.417h-44.779l8.01 40.992h43.61a2.99 2.99 0 0 0 2.935-3.564z" fill="#c3d8e5"/><path d="M300.224 296.738V4.718A4.718 4.718 0 0 0 295.506 0h-55.121a4.72 4.72 0 0 0-3.033 1.104L137.21 85.145a4.718 4.718 0 0 0-.685 6.519l32.844 42.032a4.718 4.718 0 0 0 6.726.729l41.864-34.662c3.076-2.546 7.727-.359 7.727 3.634v193.341a4.718 4.718 0 0 1-4.718 4.718H163.08a4.718 4.718 0 0 0-4.718 4.718v49.99a4.718 4.718 0 0 0 4.718 4.718h190.13a4.718 4.718 0 0 0 4.718-4.718v-49.99a4.718 4.718 0 0 0-4.718-4.718h-48.268a4.718 4.718 0 0 1-4.718-4.718z" fill="#ff4c4c"/><g fill="#ea2828"><path d="M304.942 301.456a4.718 4.718 0 0 1-4.718-4.718V4.718A4.718 4.718 0 0 0 295.506 0h-42.524v281.457c0 11.046 8.954 20 20 20h31.96v-.001zM353.21 301.456h-42.524v59.426h42.524a4.718 4.718 0 0 0 4.718-4.718v-49.99a4.718 4.718 0 0 0-4.718-4.718z"/></g></svg>