<svg xmlns="http://www.w3.org/2000/svg" viewBox="0 0 512 512"><path d="M210.291 277.576h91.573C263.932 229.475 267.89 160.15 267.89 160.15h-23.626c.001 0 3.959 69.325-33.973 117.426z" fill="#fed130"/><path d="M267.891 160.15h-23.626s.759 13.313-1.579 32.319c-3.608 29.322 3.944 59.12 21.674 82.752.593.79 1.196 1.575 1.811 2.354h35.694c-37.933-48.1-33.974-117.425-33.974-117.425z" fill="#f7bc14"/><path d="M321.653 298.56H191.027c-2.347 0-3.976-2.34-3.16-4.541l13.051-35.229a3.37 3.37 0 0 1 3.16-2.199h104.524c1.41 0 2.67.877 3.16 2.199l13.051 35.229c.816 2.202-.812 4.541-3.16 4.541z" fill="#ffb125"/><path d="M324.813 294.02l-13.051-35.229a3.37 3.37 0 0 0-3.16-2.199h-34.079l15.548 41.97h31.582c2.348-.002 3.976-2.341 3.16-4.542z" fill="#ff901d"/><path d="M258.727 1.619l29.969 75.535a2.564 2.564 0 0 0 2.22 1.613l81.099 5.161c2.317.147 3.261 3.052 1.473 4.533l-62.577 51.844a2.563 2.563 0 0 0-.848 2.61l20.153 78.724c.576 2.249-1.895 4.044-3.856 2.802l-68.644-43.494a2.564 2.564 0 0 0-2.745 0l-68.644 43.494c-1.961 1.243-4.432-.553-3.856-2.802l20.153-78.724a2.562 2.562 0 0 0-.848-2.61l-62.577-51.844c-1.788-1.481-.844-4.386 1.473-4.533l81.099-5.161a2.562 2.562 0 0 0 2.22-1.613L253.96 1.619c.856-2.158 3.911-2.158 4.767 0z" fill="#61aff6"/><path d="M258.727 1.619l29.969 75.535a2.564 2.564 0 0 0 2.22 1.613l81.099 5.161c2.317.147 3.261 3.052 1.473 4.533l-62.577 51.844a2.563 2.563 0 0 0-.848 2.61l20.153 78.724c.576 2.249-1.895 4.044-3.856 2.802l-68.644-43.494a2.564 2.564 0 0 0-2.745 0l-68.644 43.494c-1.961 1.243-4.432-.553-3.856-2.802l20.153-78.724a2.562 2.562 0 0 0-.848-2.61l-62.577-51.844c-1.788-1.481-.844-4.386 1.473-4.533l81.099-5.161a2.562 2.562 0 0 0 2.22-1.613L253.96 1.619c.856-2.158 3.911-2.158 4.767 0z" fill="#ff4c4c"/><g fill="#ea2828"><path d="M246.135 67.364a17.336 17.336 0 0 0 15.833 10.941l28.486.463-.042-.105a2.547 2.547 0 0 1-1.716-1.508L258.727 1.618c-.856-2.158-3.91-2.158-4.767 0l-16.955 42.735 9.13 23.011zM372.016 83.929l-37.231-2.369-64.383 53.34 16.527 64.558 39.432 24.985c1.961 1.243 4.432-.553 3.856-2.802l-20.153-78.724a2.562 2.562 0 0 1 .848-2.61l62.577-51.844c1.787-1.482.843-4.387-1.473-4.534z"/></g><path d="M505.367 341.542H341.229v-42.753a6.32 6.32 0 0 0-6.32-6.321H177.091a6.321 6.321 0 0 0-6.321 6.321v42.753H6.633a6.32 6.32 0 0 0-6.32 6.321V505.68a6.32 6.32 0 0 0 6.32 6.32H505.367a6.32 6.32 0 0 0 6.321-6.32V347.862a6.32 6.32 0 0 0-6.321-6.32z" fill="#b9bbc1"/><g fill="#a0a3aa"><path d="M505.367 341.542h-31.426V512h31.426a6.32 6.32 0 0 0 6.321-6.32V347.862a6.32 6.32 0 0 0-6.321-6.32zM170.771 341.542h-37.747V512h37.747z"/></g><path d="M341.229 512H170.771V298.788a6.32 6.32 0 0 1 6.32-6.32h157.817a6.32 6.32 0 0 1 6.32 6.32L341.229 512z" fill="#b9bbc1"/><path d="M334.909 292.468h-30.104V512h36.424V298.788a6.32 6.32 0 0 0-6.32-6.32z" fill="#a0a3aa"/><path d="M83.016 484.852c-32.025 0-58.08-26.055-58.08-58.08 0-32.026 26.055-58.081 58.08-58.081h.856c32.025 0 58.08 26.055 58.08 58.081 0 32.025-26.055 58.08-58.08 58.08h-.856z" fill="#fed130"/><path d="M83.872 368.69h-.856c-5.509 0-10.834.787-15.888 2.227 23.125 8.029 39.774 30.03 39.774 55.854s-16.649 47.824-39.773 55.853a57.876 57.876 0 0 0 15.887 2.227h.856c32.025 0 58.08-26.055 58.08-58.08 0-32.026-26.055-58.081-58.08-58.081z" fill="#f7bc14"/><path d="M256.509 460.315c-32.026 0-58.081-26.055-58.081-58.081 0-32.025 26.055-58.08 58.081-58.08h.855c32.025 0 58.08 26.055 58.08 58.08 0 32.026-26.055 58.081-58.08 58.081h-.855z" fill="#fed130"/><path d="M257.364 344.154h-.855c-5.58 0-10.973.807-16.084 2.283 23.047 8.072 39.626 30.029 39.626 55.797s-16.579 47.726-39.626 55.798a57.885 57.885 0 0 0 16.085 2.283h.855c32.025 0 58.08-26.055 58.08-58.081-.001-32.026-26.055-58.08-58.081-58.08z" fill="#f7bc14"/><path d="M428.128 484.852c-32.025 0-58.08-26.055-58.08-58.08 0-32.026 26.055-58.081 58.08-58.081h.856c32.025 0 58.08 26.055 58.08 58.081 0 32.025-26.055 58.08-58.08 58.08h-.856z" fill="#fed130"/><path d="M428.984 368.69h-.856a57.88 57.88 0 0 0-16.035 2.269c23.067 8.061 39.663 30.03 39.663 55.812s-16.597 47.75-39.663 55.811a57.874 57.874 0 0 0 16.035 2.269h.856c32.025 0 58.08-26.055 58.08-58.08 0-32.026-26.055-58.081-58.08-58.081z" fill="#f7bc14"/><g fill="#2c5871"><path d="M429.104 459.344c11.692 0 21.258-5.403 21.258-19.664v-1.683c0-7.352-3.809-11.338-9.035-13.375 4.34-2.037 6.909-7.706 6.909-14.703 0-11.781-7.972-15.855-18.689-15.855-14.969 0-19.398 9.123-19.398 15.412 0 3.72.797 4.961 5.935 4.961 4.251 0 5.492-1.772 5.492-4.429 0-3.543 2.126-5.935 7.883-5.935 4.783 0 7.794 1.949 7.794 7.795 0 7.617-3.72 8.68-8.149 8.68-2.569 0-3.455 2.303-3.455 4.518 0 2.303.886 4.517 3.455 4.517 5.669 0 9.743 1.86 9.743 8.415v1.683c0 6.731-2.834 9.566-9.478 9.566-5.669 0-9.212-2.48-9.212-6.466 0-2.834-1.24-4.075-5.935-4.075-3.986 0-5.492.975-5.492 4.517.002 7.175 5.847 16.121 20.374 16.121zM68.386 459.078h31.533c1.949 0 3.632-2.48 3.632-5.137 0-2.657-1.683-4.96-3.632-4.96H75.295v-2.126c0-9.211 28.078-15.412 28.078-34.544 0-11.249-9.566-17.981-19.841-17.981-9.832 0-19.043 6.2-19.043 16.298 0 4.783 2.214 6.2 5.226 6.2 3.809 0 6.023-2.126 6.023-4.252 0-5.492 3.543-7.794 7.883-7.794 5.846 0 8.237 4.252 8.237 7.883 0 12.489-28.521 20.018-28.521 34.19v8.592c.001 2.214 3.012 3.631 5.049 3.631zM258.298 367.076c-.974 0-1.772.354-2.392.886l-10.452 7.972c-1.417.885-2.214 2.569-2.214 4.163 0 2.303 1.506 4.606 3.72 4.606.62 0 1.417-.177 2.126-.797l2.834-2.834v47.299c0 2.391 2.834 3.632 5.757 3.632 2.834 0 5.757-1.24 5.757-3.632v-57.573c.001-2.305-2.745-3.722-5.136-3.722z"/></g></svg>