<svg xmlns="http://www.w3.org/2000/svg" viewBox="0 0 512.001 512.001"><path d="M156.299 508.917l-23.889-66.395a4.663 4.663 0 0 0-4.795-3.066l-70.29 6.185c-3.855.339-6.421-3.894-4.336-7.155l180.83-282.855 111.625 71.363-180.831 282.855c-2.084 3.261-7.004 2.709-8.314-.932z" fill="#ff4c4c"/><path d="M306.813 202.296L267.8 177.355 100.951 441.803l26.664-2.346a4.66 4.66 0 0 1 4.795 3.066l8.294 23.05 166.109-263.277z" fill="#e1effb"/><path d="M355.701 508.917l23.889-66.395a4.663 4.663 0 0 1 4.795-3.066l70.29 6.185c3.855.339 6.421-3.894 4.336-7.155l-180.83-282.855-111.625 71.363L347.387 509.85c2.084 3.26 7.004 2.708 8.314-.933z" fill="#ff4c4c"/><path d="M205.185 202.296l39.013-24.941 166.849 264.448-26.664-2.346a4.66 4.66 0 0 0-4.795 3.066l-8.294 23.05-166.109-263.277z" fill="#e1effb"/><path d="M274.807 8.303a25.454 25.454 0 0 0 30.148 5.636c13.412-6.675 29.659-.381 35.074 13.588a25.454 25.454 0 0 0 26.076 16.146c14.917-1.379 27.794 10.359 27.797 25.34a25.453 25.453 0 0 0 18.483 24.475c14.408 4.103 22.175 19.7 16.766 33.671a25.452 25.452 0 0 0 8.393 29.499c11.953 9.031 13.561 26.38 3.471 37.453a25.453 25.453 0 0 0-2.83 30.539c7.884 12.739 3.116 29.498-10.294 36.178a25.454 25.454 0 0 0-13.671 27.455c2.75 14.727-7.751 28.631-22.667 30.017a25.454 25.454 0 0 0-22.666 20.662c-2.756 14.725-17.57 23.898-31.98 19.801a25.453 25.453 0 0 0-28.599 11.079c-7.889 12.736-25.017 15.937-36.973 6.912a25.453 25.453 0 0 0-30.67 0c-11.957 9.026-29.084 5.824-36.973-6.912a25.452 25.452 0 0 0-28.599-11.079c-14.41 4.097-29.224-5.076-31.98-19.801a25.453 25.453 0 0 0-22.666-20.662c-14.917-1.385-25.417-15.29-22.667-30.017a25.454 25.454 0 0 0-13.671-27.455c-13.409-6.68-18.177-23.439-10.294-36.178a25.453 25.453 0 0 0-2.83-30.539c-10.09-11.073-8.483-28.423 3.471-37.453a25.452 25.452 0 0 0 8.393-29.499c-5.409-13.971 2.358-29.568 16.766-33.671a25.453 25.453 0 0 0 18.483-24.475c.003-14.981 12.88-26.72 27.797-25.34a25.452 25.452 0 0 0 26.076-16.146c5.415-13.968 21.662-20.263 35.074-13.588a25.454 25.454 0 0 0 30.148-5.636c10.095-11.069 27.519-11.069 37.614 0z" fill="#ffb125"/><path d="M441.016 194.111c10.09-11.073 8.483-28.423-3.471-37.454a25.452 25.452 0 0 1-8.393-29.499c5.409-13.971-2.358-29.568-16.766-33.671a25.453 25.453 0 0 1-18.483-24.475c-.003-14.981-12.88-26.72-27.797-25.34a25.452 25.452 0 0 1-26.076-16.146c-5.415-13.968-21.662-20.263-35.074-13.588a25.454 25.454 0 0 1-30.148-5.636c-10.095-11.069-27.519-11.069-37.614 0a25.41 25.41 0 0 1-4.37 3.796c7.497 5.168 17.361 6.029 25.778 1.84 13.412-6.675 29.659-.381 35.074 13.588a25.454 25.454 0 0 0 26.076 16.146c14.917-1.379 27.794 10.359 27.797 25.34a25.453 25.453 0 0 0 18.483 24.475c14.408 4.103 22.175 19.7 16.766 33.671a25.452 25.452 0 0 0 8.393 29.499c11.953 9.031 13.561 26.38 3.471 37.454a25.453 25.453 0 0 0-2.83 30.539c7.884 12.739 3.116 29.498-10.294 36.178a25.454 25.454 0 0 0-13.671 27.455c2.75 14.727-7.751 28.631-22.667 30.017a25.454 25.454 0 0 0-22.666 20.662c-2.756 14.725-17.57 23.898-31.98 19.801a25.453 25.453 0 0 0-28.599 11.079c-.471.76-.977 1.485-1.511 2.177a25.378 25.378 0 0 1 10.892 4.735c11.957 9.026 29.084 5.824 36.973-6.912a25.452 25.452 0 0 1 28.599-11.079c14.41 4.097 29.224-5.076 31.98-19.801a25.453 25.453 0 0 1 22.666-20.662c14.917-1.385 25.417-15.29 22.667-30.017a25.454 25.454 0 0 1 13.671-27.455c13.409-6.68 18.177-23.439 10.294-36.178a25.45 25.45 0 0 1 2.83-30.539z" fill="#ff901d"/><circle cx="256" cy="190.951" r="139.53" fill="#e1effb"/><path d="M256 51.421c-7.897 0-15.638.666-23.177 1.927 66.026 11.041 116.351 68.439 116.351 137.601S298.85 317.509 232.823 328.55A140.395 140.395 0 0 0 256 330.477c77.059 0 139.528-62.469 139.528-139.528S333.059 51.421 256 51.421z" fill="#c3d8e5"/><path d="M275.663 245.167V107.15a2.23 2.23 0 0 0-2.23-2.23h-26.052c-.524 0-1.032.185-1.433.522l-47.33 39.72a2.23 2.23 0 0 0-.324 3.081l15.523 19.866a2.23 2.23 0 0 0 3.179.345l19.786-16.382c1.454-1.204 3.652-.17 3.652 1.718v91.379a2.23 2.23 0 0 1-2.23 2.23h-27.36a2.23 2.23 0 0 0-2.23 2.23v23.627a2.23 2.23 0 0 0 2.23 2.23h89.861a2.23 2.23 0 0 0 2.23-2.23v-23.627a2.23 2.23 0 0 0-2.23-2.23h-22.813a2.232 2.232 0 0 1-2.229-2.232z" fill="#61aff6"/></svg>