<svg height="496pt" viewBox="0 -12 496 496" width="496pt" xmlns="http://www.w3.org/2000/svg"><path d="M495.922 16v16H0V16C0 7.2 7.121 0 16 0h463.922c8.797 0 16 7.2 16 16zm0 0" fill="#ccd1d9"/><path d="M104 176h56v24h-56zm0 0M336 176h56v24h-56zm0 0" fill="#e6e9ed"/><path d="M40 72h416v64H40zm0 0" fill="#a0d468"/><path d="M192 200h-32v-24h-56v24H56c-8.8 0-16 7.2-16 16v96c0 8.8 7.2 16 16 16h152c8.8 0 16-7.2 16-16v-96c0-8.8-7.2-16-16-16zm232 0h-32v-24h-56v24h-48c-8.8 0-16 7.2-16 16v96c0 8.8 7.2 16 16 16h152c8.8 0 16-7.2 16-16v-96c0-8.8-7.2-16-16-16zm72-168v440H.078V32zm-40 104V72H40v64zm0 0" fill="#e6e9ed"/><g fill="#ccd1d9"><path d="M216.031 376h-168c-4.422 0-8-3.574-8-8s3.578-8 8-8h168c4.426 0 8 3.574 8 8s-3.574 8-8 8zm0 0M216.031 408h-168c-4.422 0-8-3.574-8-8s3.578-8 8-8h168c4.426 0 8 3.574 8 8s-3.574 8-8 8zm0 0M128.031 440h-80c-4.422 0-8-3.574-8-8s3.578-8 8-8h80c4.426 0 8 3.574 8 8s-3.574 8-8 8zm0 0M448.031 376h-168c-4.422 0-8-3.574-8-8s3.578-8 8-8h168c4.426 0 8 3.574 8 8s-3.574 8-8 8zm0 0M448.031 408h-168c-4.422 0-8-3.574-8-8s3.578-8 8-8h168c4.426 0 8 3.574 8 8s-3.574 8-8 8zm0 0M352.031 440h-72c-4.422 0-8-3.574-8-8s3.578-8 8-8h72c4.426 0 8 3.574 8 8s-3.574 8-8 8zm0 0"/></g><path d="M104 216a7.99 7.99 0 0 1-8-8v-24c0-4.426 3.574-8 8-8s8 3.574 8 8v24c0 4.426-3.574 8-8 8zm0 0" fill="#656d78"/><path d="M160 192h-56c-4.426 0-8-3.574-8-8s3.574-8 8-8h56c4.426 0 8 3.574 8 8s-3.574 8-8 8zm0 0" fill="#656d78"/><path d="M160 216a7.99 7.99 0 0 1-8-8v-24c0-4.426 3.574-8 8-8s8 3.574 8 8v24c0 4.426-3.574 8-8 8zm0 0" fill="#656d78"/><path d="M72 216a7.99 7.99 0 0 1-8-8v-8c0-4.426 3.574-8 8-8s8 3.574 8 8v8c0 4.426-3.574 8-8 8zm0 0M192 216a7.99 7.99 0 0 1-8-8v-8c0-4.426 3.574-8 8-8s8 3.574 8 8v8c0 4.426-3.574 8-8 8zm0 0" fill="#da4453"/><path d="M336 216a7.99 7.99 0 0 1-8-8v-24c0-4.426 3.574-8 8-8s8 3.574 8 8v24c0 4.426-3.574 8-8 8zm0 0" fill="#656d78"/><path d="M392 192h-56c-4.426 0-8-3.574-8-8s3.574-8 8-8h56c4.426 0 8 3.574 8 8s-3.574 8-8 8zm0 0" fill="#656d78"/><path d="M392 216a7.99 7.99 0 0 1-8-8v-24c0-4.426 3.574-8 8-8s8 3.574 8 8v24c0 4.426-3.574 8-8 8zm0 0" fill="#656d78"/><path d="M304 216a7.99 7.99 0 0 1-8-8v-8c0-4.426 3.574-8 8-8s8 3.574 8 8v8c0 4.426-3.574 8-8 8zm0 0M424 216a7.99 7.99 0 0 1-8-8v-8c0-4.426 3.574-8 8-8s8 3.574 8 8v8c0 4.426-3.574 8-8 8zm0 0" fill="#da4453"/><path d="M336 112H160c-4.426 0-8-3.574-8-8s3.574-8 8-8h176c4.426 0 8 3.574 8 8s-3.574 8-8 8zm0 0" fill="#8cc152"/><path d="M224 216v96c0 8.8-7.2 16-16 16H56c-8.8 0-16-7.2-16-16v-96c0-8.8 7.2-16 16-16h152c8.8 0 16 7.2 16 16zm0 0M456 216v96c0 8.8-7.2 16-16 16H288c-8.8 0-16-7.2-16-16v-96c0-8.8 7.2-16 16-16h152c8.8 0 16 7.2 16 16zm0 0" fill="#ed5565"/><path d="M176 256H88c-4.426 0-8-3.574-8-8s3.574-8 8-8h88c4.426 0 8 3.574 8 8s-3.574 8-8 8zm0 0M176 288H88c-4.426 0-8-3.574-8-8s3.574-8 8-8h88c4.426 0 8 3.574 8 8s-3.574 8-8 8zm0 0M408 256h-88c-4.426 0-8-3.574-8-8s3.574-8 8-8h88c4.426 0 8 3.574 8 8s-3.574 8-8 8zm0 0M408 288h-88c-4.426 0-8-3.574-8-8s3.574-8 8-8h88c4.426 0 8 3.574 8 8s-3.574 8-8 8zm0 0" fill="#da4453"/><path d="M24.207 24c-4.422 0-8.039-3.574-8.039-8s3.535-8 7.953-8h.086c4.418 0 8 3.574 8 8s-3.582 8-8 8zm0 0" fill="#ed5565"/><path d="M48.207 24c-4.422 0-8.039-3.574-8.039-8s3.535-8 7.953-8h.086c4.418 0 8 3.574 8 8s-3.582 8-8 8zm0 0" fill="#ffce54"/><path d="M72.207 24c-4.422 0-8.039-3.574-8.039-8s3.535-8 7.953-8h.086c4.418 0 8 3.574 8 8s-3.582 8-8 8zm0 0" fill="#8cc152"/></svg>