<svg height="496pt" viewBox="-12 0 496 496" width="496pt" xmlns="http://www.w3.org/2000/svg"><path d="M432 0v40l-56 56V56zm0 0" fill="#f5f7fa"/><path d="M472 40l-56 56h-40l56-56zm0 0" fill="#e6e9ed"/><path d="M336 418.64l8 77.36-88-31.91V464a199.368 199.368 0 0 0 80-45.36zm0 0M144 464v.09L56 496l8-77.36A199.368 199.368 0 0 0 144 464zm0 0" fill="#da4453"/><path d="M313.121 158.879C284.161 129.922 244.161 112 200 112c-88.32 0-160 71.68-160 160 0 88.406 71.68 160 160 160s160-71.594 160-160c0-44.16-17.922-84.16-46.879-113.121zm28.32-28.32C377.601 166.809 400 216.809 400 272c0 57.922-24.64 110.168-64 146.64A199.368 199.368 0 0 1 256 464c-17.762 5.2-36.559 8-56 8s-38.238-2.8-56-8a199.368 199.368 0 0 1-80-45.36C24.64 382.16 0 329.923 0 272 0 161.602 89.52 72 200 72c55.2 0 105.281 22.406 141.441 58.559zm0 0" fill="#ed5565"/><path d="M284.8 187.2C263.122 165.44 233.122 152 200 152c-66.238 0-120 53.77-120 120 0 66.238 53.762 120 120 120s120-53.762 120-120c0-33.121-13.441-63.121-35.2-84.8zm28.321-28.321C342.078 187.839 360 227.839 360 272c0 88.406-71.68 160-160 160S40 360.406 40 272c0-88.32 71.68-160 160-160 44.16 0 84.16 17.922 113.121 46.879zm0 0" fill="#f5f7fa"/><path d="M256.559 215.45C242.079 200.96 222.079 192 200 192c-44.078 0-80 35.922-80 80 0 44.168 35.922 80 80 80 44.16 0 80-35.832 80-80 0-22.078-8.96-42.078-23.441-56.55zM284.8 187.2C306.566 208.878 320 238.878 320 272c0 66.238-53.762 120-120 120S80 338.238 80 272c0-66.23 53.762-120 120-120 33.121 0 63.121 13.45 84.8 35.2zm0 0" fill="#ed5565"/><path d="M256.559 215.45C271.039 229.93 280 249.93 280 272c0 44.168-35.84 80-80 80-44.078 0-80-35.832-80-80 0-44.078 35.922-80 80-80 22.078 0 42.078 8.96 56.559 23.45zm-28.239 28.23C221.04 236.488 211.04 232 200 232c-22.078 0-40 17.922-40 40 0 22.09 17.922 40 40 40s40-17.91 40-40c0-11.04-4.48-21.04-11.68-28.32zm0 0" fill="#f5f7fa"/><path d="M228.32 243.68c7.2 7.28 11.68 17.28 11.68 28.32 0 22.09-17.922 40-40 40s-40-17.91-40-40c0-22.078 17.922-40 40-40 11.04 0 21.04 4.488 28.32 11.68zm0 0" fill="#ed5565"/><path d="M200 280a7.984 7.984 0 0 1-5.656-2.344 7.99 7.99 0 0 1 0-11.312l240-240c3.129-3.13 8.183-3.13 11.312 0s3.13 8.183 0 11.312l-240 240A7.984 7.984 0 0 1 200 280zm0 0" fill="#ffd2a6"/></svg>