<svg height="496pt" viewBox="-64 0 496 496" width="496pt" xmlns="http://www.w3.org/2000/svg"><path d="M96 160h176v-24h96l-48 48H0l48-48h48zm0 0" fill="#434a54"/><path d="M280 168H88c-4.426 0-8-3.574-8-8s3.574-8 8-8h192c4.426 0 8 3.574 8 8s-3.574 8-8 8zm0 0M368 136v312l-48 48V184zm0 0" fill="#353b44"/><path d="M360 64l8-8v16c0 13.281-10.719 24-24 24s-24-10.719-24-24V56l8 8 8-8 8 8 8-8zm0 0" fill="#e6e9ed"/><path d="M320 72c0 13.281 10.719 24 24 24h-72V24c0-13.281 10.719-24 24-24s24 10.719 24 24zm0 0" fill="#ccd1d9"/><path d="M120 0c-13.281 0-24 10.719-24 24v136h176V24c0-13.281 10.719-24 24-24zm0 0" fill="#e6e9ed"/><path d="M40 224h240v80H40zm0 0" fill="#a0d468"/><path d="M320 184v312H0V184zm-40 120v-80H40v80zm0 56c0-8.8-7.2-16-16-16s-16 7.2-16 16 7.2 16 16 16 16-7.2 16-16zm-208 0c0-8.8-7.2-16-16-16s-16 7.2-16 16 7.2 16 16 16 16-7.2 16-16zm0 0" fill="#656d78"/><path d="M96 424a7.99 7.99 0 0 1-8-8v-8c0-4.426 3.574-8 8-8s8 3.574 8 8v8c0 4.426-3.574 8-8 8zm0 0M128 440a7.99 7.99 0 0 1-8-8v-38.664c0-4.426 3.574-8 8-8s8 3.574 8 8V432c0 4.426-3.574 8-8 8zm0 0M160 456a7.99 7.99 0 0 1-8-8v-72c0-4.426 3.574-8 8-8s8 3.574 8 8v72c0 4.426-3.574 8-8 8zm0 0M224 424a7.99 7.99 0 0 1-8-8v-8c0-4.426 3.574-8 8-8s8 3.574 8 8v8c0 4.426-3.574 8-8 8zm0 0M192 438.664a7.99 7.99 0 0 1-8-8V392c0-4.426 3.574-8 8-8s8 3.574 8 8v38.664c0 4.426-3.574 8-8 8zm0 0" fill="#434a54"/><path d="M264.238 464c-4.422 0-8.039-3.574-8.039-8s3.535-8 7.953-8h.086c4.418 0 8 3.574 8 8s-3.582 8-8 8zm0 0M56.238 464c-4.422 0-8.039-3.574-8.039-8s3.535-8 7.953-8h.086c4.418 0 8 3.574 8 8s-3.582 8-8 8zm0 0" fill="#353b44"/><g fill="#8cc152"><path d="M64 280a7.99 7.99 0 0 0-8 8v16h16v-16c0-4.426-3.574-8-8-8zm0 0M128 264a7.99 7.99 0 0 0-8 8v32h16v-32c0-4.426-3.574-8-8-8zm0 0M192 288a7.99 7.99 0 0 0-8 8v8h16v-8c0-4.426-3.574-8-8-8zm0 0M256 256a7.99 7.99 0 0 0-8 8v40h16v-40c0-4.426-3.574-8-8-8zm0 0M96 240a7.99 7.99 0 0 0-8 8v56h16v-56c0-4.426-3.574-8-8-8zm0 0M160 256a7.99 7.99 0 0 0-8 8v40h16v-40c0-4.426-3.574-8-8-8zm0 0M224 240a7.99 7.99 0 0 0-8 8v56h16v-56c0-4.426-3.574-8-8-8zm0 0"/></g><path d="M232 104a7.99 7.99 0 0 1-8-8V80c0-4.426 3.574-8 8-8s8 3.574 8 8v16c0 4.426-3.574 8-8 8zm0 0M208 96a7.99 7.99 0 0 1-8-8v-8c0-4.426 3.574-8 8-8s8 3.574 8 8v8c0 4.426-3.574 8-8 8zm0 0" fill="#f6bb42"/><path d="M232 72h-41.137c-3.574-13.77-16-24-30.863-24-17.648 0-32 14.352-32 32s14.352 32 32 32c14.863 0 27.29-10.23 30.863-24H232c4.426 0 8-3.574 8-8s-3.574-8-8-8zm-72 24c-8.824 0-16-7.176-16-16s7.176-16 16-16 16 7.176 16 16-7.176 16-16 16zm0 0" fill="#ffce54"/><path d="M56 352c8.8 0 16 7.2 16 16s-7.2 16-16 16-16-7.2-16-16 7.2-16 16-16zm0 0M264 352c8.8 0 16 7.2 16 16s-7.2 16-16 16-16-7.2-16-16 7.2-16 16-16zm0 0" fill="#434a54"/><path d="M56 344c8.8 0 16 7.2 16 16s-7.2 16-16 16-16-7.2-16-16 7.2-16 16-16zm0 0M264 344c8.8 0 16 7.2 16 16s-7.2 16-16 16-16-7.2-16-16 7.2-16 16-16zm0 0" fill="#aab2bd"/></svg>