<svg height="496pt" viewBox="0 -36 496.08 496" width="496pt" xmlns="http://www.w3.org/2000/svg"><path d="M200 176.04l-40 24v-48zm0 0" fill="#f5f7fa"/><path d="M176 120.04c30.96 0 56 25.038 56 56 0 30.96-25.04 56-56 56s-56-25.04-56-56c0-30.962 25.04-56 56-56zm-16 80l40-24-40-24zm0 0" fill="#ed5565"/><path d="M320 64.04v232H32v-232zm-88 112c0-30.962-25.04-56-56-56s-56 25.038-56 56c0 30.96 25.04 56 56 56s56-25.04 56-56zm0 0" fill="#a0d468"/><path d="M32 296.04h24v24H32zm0 0" fill="#434a54"/><path d="M56 296.04h124c-6.64 0-12 5.358-12 12 0 6.64 5.36 12 12 12H56zm0 0" fill="#656d78"/><path d="M192 308.04c0 6.628-5.371 12-12 12s-12-5.372-12-12c0-6.626 5.371-12 12-12s12 5.374 12 12zm0 0" fill="#aab2bd"/><path d="M296 320.04H180c6.64 0 12-5.36 12-12 0-6.642-5.36-12-12-12h116zm0 0" fill="#656d78"/><path d="M296 296.04h24v24h-24zm0 0" fill="#434a54"/><path d="M352 352.04h48v40h-48zm0 0M352 280.04h48v40h-48zm0 0M352 208.04h48v40h-48zm0 0M352 136.04h48v40h-48zm0 0M352 64.04h48v40h-48zm0 0" fill="#a0d468"/><path d="M400 392.04v-40h-48v40zm0-72v-40h-48v40zm0-72v-40h-48v40zm0-72v-40h-48v40zm0-72v-40h-48v40zm96-72l.078 392h-496L0 32.04zm-176 288v-256H32v256zm0 0" fill="#e6e9ed"/><path d="M496 16.04v16H0v-16C0 7.16 7.04.12 15.922.04H480c8.879 0 16 7.12 16 16zm0 0" fill="#ccd1d9"/><path d="M24.176 24.04c-4.422 0-8.04-3.575-8.04-8 0-4.423 3.536-8 7.954-8h.086c4.418 0 8 3.577 8 8a8 8 0 0 1-8 8zm0 0" fill="#ed5565"/><path d="M48.176 24.04c-4.422 0-8.04-3.575-8.04-8 0-4.423 3.536-8 7.954-8h.086c4.418 0 8 3.577 8 8a8 8 0 0 1-8 8zm0 0" fill="#ffce54"/><path d="M72.176 24.04c-4.422 0-8.04-3.575-8.04-8 0-4.423 3.536-8 7.954-8h.086c4.418 0 8 3.577 8 8a8 8 0 0 1-8 8zm0 0" fill="#8cc152"/><g fill="#ccd1d9"><path d="M464.008 80.04h-40c-4.422 0-8-3.575-8-8 0-4.423 3.578-8 8-8h40c4.426 0 8 3.577 8 8 0 4.425-3.574 8-8 8zm0 0M440.008 104.04h-16c-4.422 0-8-3.575-8-8 0-4.423 3.578-8 8-8h16c4.426 0 8 3.577 8 8 0 4.425-3.574 8-8 8zm0 0M464.008 152.04h-40c-4.422 0-8-3.575-8-8 0-4.423 3.578-8 8-8h40c4.426 0 8 3.577 8 8 0 4.425-3.574 8-8 8zm0 0M440.008 176.04h-16c-4.422 0-8-3.575-8-8 0-4.423 3.578-8 8-8h16c4.426 0 8 3.577 8 8 0 4.425-3.574 8-8 8zm0 0M464.008 224.04h-40c-4.422 0-8-3.575-8-8 0-4.423 3.578-8 8-8h40c4.426 0 8 3.577 8 8 0 4.425-3.574 8-8 8zm0 0M440.008 248.04h-16c-4.422 0-8-3.575-8-8 0-4.423 3.578-8 8-8h16c4.426 0 8 3.577 8 8 0 4.425-3.574 8-8 8zm0 0M464.008 296.04h-40c-4.422 0-8-3.575-8-8 0-4.423 3.578-8 8-8h40c4.426 0 8 3.577 8 8 0 4.425-3.574 8-8 8zm0 0M440.008 320.04h-16c-4.422 0-8-3.575-8-8 0-4.423 3.578-8 8-8h16c4.426 0 8 3.577 8 8 0 4.425-3.574 8-8 8zm0 0M464.008 368.04h-40c-4.422 0-8-3.575-8-8 0-4.423 3.578-8 8-8h40c4.426 0 8 3.577 8 8 0 4.425-3.574 8-8 8zm0 0M440.008 392.04h-16c-4.422 0-8-3.575-8-8 0-4.423 3.578-8 8-8h16c4.426 0 8 3.577 8 8 0 4.425-3.574 8-8 8zm0 0M232.008 368.04h-192c-4.422 0-8-3.575-8-8 0-4.423 3.578-8 8-8h192c4.426 0 8 3.577 8 8 0 4.425-3.574 8-8 8zm0 0M128.008 392.04h-88c-4.422 0-8-3.575-8-8 0-4.423 3.578-8 8-8h88c4.426 0 8 3.577 8 8 0 4.425-3.574 8-8 8zm0 0"/></g><path d="M320.246 368.04c-4.422 0-8.039-3.575-8.039-8 0-4.423 3.535-8 7.953-8h.086c4.418 0 8 3.577 8 8 0 4.425-3.582 8-8 8zm0 0M296.246 368.04c-4.422 0-8.039-3.575-8.039-8 0-4.423 3.535-8 7.953-8h.086c4.418 0 8 3.577 8 8 0 4.425-3.582 8-8 8zm0 0M272.246 368.04c-4.422 0-8.039-3.575-8.039-8 0-4.423 3.535-8 7.953-8h.086c4.418 0 8 3.577 8 8 0 4.425-3.582 8-8 8zm0 0" fill="#fff"/></svg>