<svg height="672" viewBox="-28 0 504 504" width="672" xmlns="http://www.w3.org/2000/svg"><path d="M352 208a7.99 7.99 0 0 1-8-8v-72c0-4.426 3.574-8 8-8s8 3.574 8 8v72c0 4.426-3.574 8-8 8zm0 0" fill="#ccd1d9"/><path d="M176 456v40H72v-40zm0 0" fill="#656d78"/><path d="M64 88h32v48H64zm0 0" fill="#f6bb42"/><path d="M64 136v24H0V80c0-13.281 10.719-24 24-24h40zm0 0" fill="#656d78"/><path d="M152 136v320H96V32l28-32 28 32zm0 0" fill="#ffce54"/><path d="M416 88l32 48H152V88zm0 0" fill="#f6bb42"/><path d="M408 400v32c0 30.96-25.04 56-56 56s-56-25.04-56-56v-32c0-19.602 10.078-36.879 25.36-46.879 2.32 8.086 7.84 14.809 15.12 18.879-9.84 5.441-16.48 15.922-16.48 28v32c0 17.68 14.32 32 32 32s32-14.32 32-32v-32c0-12.078-6.64-22.559-16.48-28 7.273-4.078 12.8-10.8 15.12-18.879 15.282 10 25.36 27.277 25.36 46.879zm0 0M408 256v32c0 19.602-10.078 36.879-25.36 46.879-2.32-8.086-7.84-14.809-15.12-18.879 9.84-5.441 16.48-15.922 16.48-28v-32c0-17.68-14.32-32-32-32s-32 14.32-32 32v32c0 12.078 6.64 22.559 16.48 28-7.273 4.078-12.8 10.8-15.12 18.879-15.282-10-25.36-27.277-25.36-46.879v-32c0-30.96 25.04-56 56-56s56 25.04 56 56zm0 0" fill="#e6e9ed"/><path d="M382.64 334.879c.88 2.883 1.36 6 1.36 9.121s-.48 6.238-1.36 9.121c-2.32 8.086-7.84 14.809-15.12 18.879-4.56 2.559-9.918 4-15.52 4s-10.96-1.441-15.52-4c-7.273-4.078-12.8-10.8-15.12-18.879-.88-2.883-1.36-6-1.36-9.121s.48-6.238 1.36-9.121c2.32-8.086 7.84-14.809 15.12-18.879 4.56-2.559 9.918-4 15.52-4s10.96 1.441 15.52 4c7.28 4.078 12.8 10.8 15.12 18.879zm0 0" fill="#ed5565"/><path d="M184 504H64c-4.426 0-8-3.574-8-8s3.574-8 8-8h120c4.426 0 8 3.574 8 8s-3.574 8-8 8zm0 0" fill="#434a54"/><path d="M360 336c0-4.426-3.574-8-8-8s-8 3.574-8 8c-4.426 0-8 3.574-8 8s3.574 8 8 8c0 4.426 3.574 8 8 8s8-3.574 8-8c4.426 0 8-3.574 8-8s-3.574-8-8-8zm0 0" fill="#da4453"/><path d="M432 504H272c-4.426 0-8-3.574-8-8s3.574-8 8-8h160c4.426 0 8 3.574 8 8s-3.574 8-8 8zm0 0" fill="#656d78"/></svg>