<svg height="496pt" viewBox="0 -27 496 495" width="496pt" xmlns="http://www.w3.org/2000/svg"><path d="M160 32.5h336v288H160zm0 0" fill="#e6e9ed"/><path d="M496 16.5v16H160v-16c0-8.879 7.129-16 16-16h304c8.879 0 16 7.121 16 16zm0 0" fill="#ccd1d9"/><path d="M456 72.5v80H200v-80zm0 0" fill="#5d9cec"/><path d="M328.023 224.5H280c-4.426 0-8-3.574-8-8s3.574-8 8-8h48.023c4.426 0 8 3.574 8 8s-3.574 8-8 8zm0 0M455.992 256.5H272c-4.426 0-8-3.574-8-8s3.574-8 8-8h183.992c4.422 0 8 3.574 8 8s-3.578 8-8 8zm0 0M344.023 192.5h-64c-4.421 0-8-3.574-8-8s3.579-8 8-8h64c4.426 0 8 3.574 8 8s-3.574 8-8 8zm0 0M456 192.5h-79.977c-4.421 0-8-3.574-8-8s3.579-8 8-8H456c4.426 0 8 3.574 8 8s-3.574 8-8 8zm0 0M343.992 288.5h-63.969c-4.421 0-8-3.574-8-8s3.579-8 8-8h63.97c4.421 0 8 3.574 8 8s-3.579 8-8 8zm0 0M456 288.5h-80.008c-4.426 0-8-3.574-8-8s3.574-8 8-8H456c4.426 0 8 3.574 8 8s-3.574 8-8 8zm0 0M455.992 224.5h-95.969c-4.421 0-8-3.574-8-8s3.579-8 8-8h95.97c4.421 0 8 3.574 8 8s-3.579 8-8 8zm0 0" fill="#ccd1d9"/><path d="M399.992 120.5H256.023c-4.421 0-8-3.574-8-8s3.579-8 8-8h143.97c4.421 0 8 3.574 8 8s-3.579 8-8 8zm0 0" fill="#4a89dc"/><path d="M48 376.5c8.8 0 16 7.2 16 16s-7.2 16-16 16-16-7.2-16-16 7.2-16 16-16zm0 0" fill="#5d9cec"/><path d="M280 352.5v80c0 4.398-3.602 8-8 8H8c-4.398 0-8-3.602-8-8v-80c0-4.398 3.602-8 8-8h264c4.398 0 8 3.602 8 8zm-216 40c0-8.8-7.2-16-16-16s-16 7.2-16 16 7.2 16 16 16 16-7.2 16-16zm0 0" fill="#656d78"/><path d="M48 272.5c8.8 0 16 7.2 16 16s-7.2 16-16 16-16-7.2-16-16 7.2-16 16-16zm0 0" fill="#5d9cec"/><path d="M280 312.5v16c0 4.398-3.602 8-8 8H8c-4.398 0-8-3.602-8-8v-80c0-4.398 3.602-8 8-8h264c4.398 0 8 3.602 8 8zm-216-24c0-8.8-7.2-16-16-16s-16 7.2-16 16 7.2 16 16 16 16-7.2 16-16zm0 0" fill="#656d78"/><path d="M48 168.5c8.8 0 16 7.2 16 16s-7.2 16-16 16-16-7.2-16-16 7.2-16 16-16zm0 0" fill="#5d9cec"/><path d="M280 200.5v24c0 4.398-3.602 8-8 8H8c-4.398 0-8-3.602-8-8v-80c0-4.398 3.602-8 8-8h264c4.398 0 8 3.602 8 8zm-216-16c0-8.8-7.2-16-16-16s-16 7.2-16 16 7.2 16 16 16 16-7.2 16-16zm0 0" fill="#656d78"/><g fill="#434a54"><path d="M175.992 200.5c-1.199 0-2.426-.273-3.566-.84a8 8 0 0 1-3.578-10.734l8-16a8.015 8.015 0 0 1 10.738-3.578c3.95 1.976 5.55 6.785 3.574 10.738l-8 16a8.013 8.013 0 0 1-7.168 4.414zm0 0M207.992 200.5c-1.199 0-2.426-.273-3.566-.84a8 8 0 0 1-3.578-10.734l8-16a8.013 8.013 0 0 1 10.738-3.578c3.95 1.976 5.55 6.785 3.574 10.738l-8 16a8.013 8.013 0 0 1-7.168 4.414zm0 0M239.992 200.5c-1.199 0-2.426-.273-3.566-.84a8 8 0 0 1-3.578-10.734l8-16a8.013 8.013 0 0 1 10.738-3.578c3.95 1.976 5.55 6.785 3.574 10.738l-8 16a8.013 8.013 0 0 1-7.168 4.414zm0 0M175.992 304.5c-1.199 0-2.426-.273-3.566-.84a8 8 0 0 1-3.578-10.734l8-16a8.015 8.015 0 0 1 10.738-3.578c3.95 1.976 5.55 6.785 3.574 10.738l-8 16a8.013 8.013 0 0 1-7.168 4.414zm0 0M207.992 304.5c-1.199 0-2.426-.273-3.566-.84a8 8 0 0 1-3.578-10.734l8-16a8.013 8.013 0 0 1 10.738-3.578c3.95 1.976 5.55 6.785 3.574 10.738l-8 16a8.013 8.013 0 0 1-7.168 4.414zm0 0M239.992 304.5c-1.199 0-2.426-.273-3.566-.84a8 8 0 0 1-3.578-10.734l8-16a8.013 8.013 0 0 1 10.738-3.578c3.95 1.976 5.55 6.785 3.574 10.738l-8 16a8.013 8.013 0 0 1-7.168 4.414zm0 0M175.992 408.5c-1.199 0-2.426-.273-3.566-.84a8 8 0 0 1-3.578-10.734l8-16c1.984-3.961 6.793-5.54 10.738-3.578 3.95 1.976 5.55 6.785 3.574 10.738l-8 16a8.013 8.013 0 0 1-7.168 4.414zm0 0M207.992 408.5c-1.199 0-2.426-.273-3.566-.84a8 8 0 0 1-3.578-10.734l8-16c1.984-3.961 6.785-5.54 10.738-3.578 3.95 1.976 5.55 6.785 3.574 10.738l-8 16a8.013 8.013 0 0 1-7.168 4.414zm0 0M239.992 408.5c-1.199 0-2.426-.273-3.566-.84a8 8 0 0 1-3.578-10.734l8-16c1.984-3.961 6.785-5.54 10.738-3.578 3.95 1.976 5.55 6.785 3.574 10.738l-8 16a8.013 8.013 0 0 1-7.168 4.414zm0 0M8 232.5h264v8H8zm0 0M8 336.5h264v8H8zm0 0"/></g><path d="M184.223 24.5c-4.422 0-8.04-3.574-8.04-8s3.536-8 7.954-8h.086c4.418 0 8 3.574 8 8s-3.582 8-8 8zm0 0" fill="#ed5565"/><path d="M208.223 24.5c-4.422 0-8.04-3.574-8.04-8s3.536-8 7.954-8h.086c4.418 0 8 3.574 8 8s-3.582 8-8 8zm0 0" fill="#ffce54"/><path d="M232.223 24.5c-4.422 0-8.04-3.574-8.04-8s3.536-8 7.954-8h.086c4.418 0 8 3.574 8 8s-3.582 8-8 8zm0 0" fill="#8cc152"/></svg>