<svg height="496pt" viewBox="0 0 496 496" width="496pt" xmlns="http://www.w3.org/2000/svg"><path d="M125.281 312H8.398C2.878 291.602 0 270.16 0 248s2.879-43.602 8.398-64h84zm0 0" fill="#5d9cec"/><g fill="#a0d468"><path d="M120 136c13.281 0 24 10.719 24 24s-10.719 24-24 24H92.398L84 151.441c6.879-1.761 12-8 12-15.441zm0 0"/><path d="M144 88c13.281 0 24 10.719 24 24s-10.719 24-24 24H96c0-8.8-7.2-16-16-16s-16 7.2-16 16c0 8.879 7.2 16 16 16 1.36 0 2.719-.16 4-.559L92.398 184h-84c9.45-35.84 26.883-68.48 50.082-96zm0 0M374 148.48L326.559 208H280c-13.281 0-24-10.719-24-24s10.719-24 24-24h32c-13.281 0-24-10.719-24-24h80c0 5.04 2.32 9.52 6 12.48zm0 0"/><path d="M496 248c0 19.281-2.16 38-6.398 56H352c-13.281 0-24-10.719-24-24s10.719-24 24-24h40c-13.281 0-24-10.719-24-24s10.719-24 24-24h-65.441L374 148.48c2.719 2.239 6.238 3.52 10 3.52 8.8 0 16-7.2 16-16s-7.2-16-16-16-16 7.2-16 16h-80c0-13.281 10.719-24 24-24h-64c-13.281 0-24-10.719-24-24s10.719-24 24-24h166.32C464.48 109.441 496 175.04 496 248zm0 0"/></g><path d="M248 112h64c-13.281 0-24 10.719-24 24H144c13.281 0 24-10.719 24-24s-10.719-24-24-24H58.559C104 34.16 172 0 248 0c64 0 122.238 24.238 166.238 64H248c-13.281 0-24 10.719-24 24s10.719 24 24 24zm0 0" fill="#5d9cec"/><path d="M160 360h45.281l-38.96 48.879C163.68 403.602 158.237 400 152 400c-1.36 0-2.719.16-4 .559L125.281 312H160c13.281 0 24 10.719 24 24s-10.719 24-24 24zm0 0" fill="#a0d468"/><path d="M280 160c-13.281 0-24 10.719-24 24s10.719 24 24 24h46.559L205.28 360H160c13.281 0 24-10.719 24-24s-10.719-24-24-24h-34.719L92.398 184H120c13.281 0 24-10.719 24-24s-10.719-24-24-24h168c0 13.281 10.719 24 24 24zm0 0" fill="#5d9cec"/><path d="M152 432c8.8 0 16-7.2 16-16 0-2.559-.559-4.96-1.68-7.121L205.281 360H224c13.281 0 24 10.719 24 24s-10.719 24-24 24h-16c13.281 0 24 10.719 24 24s-10.719 24-24 24h-95.121C62.16 422.96 24.32 371.922 8.399 312H125.28L148 400.559c-6.879 1.761-12 8-12 15.441 0 8.8 7.2 16 16 16zm0 0" fill="#a0d468"/><path d="M224 408c13.281 0 24-10.719 24-24s-10.719-24-24-24h-18.719L326.56 208H392c-13.281 0-24 10.719-24 24s10.719 24 24 24h-40c-13.281 0-24 10.719-24 24s10.719 24 24 24h137.602c-5.364 23.52-14.168 45.84-25.762 66.238-.961 1.684-1.918 3.282-2.88 4.961C447.763 360.961 428.96 352 408 352c-39.762 0-72 32.238-72 72 0 18.48 6.96 35.36 18.398 48.078C322.16 487.441 286.078 496 248 496c-49.84 0-96.238-14.719-135.121-40H208c13.281 0 24-10.719 24-24s-10.719-24-24-24zm0 0" fill="#5d9cec"/><path d="M351.121 40c50.727 33.04 88.559 84.078 104.488 144 5.512 20.398 8.391 41.84 8.391 64s-2.879 43.602-8.398 64c-9.45 35.84-26.883 68.48-50.082 96h-.079c-42.195 50.008-103.867 82.984-173.32 87.441 5.254.336 10.535.559 15.879.559 76 0 144-34.16 189.441-88h.086c23.192-27.52 40.633-60.16 50.082-96 5.512-20.398 8.391-41.84 8.391-64s-2.879-43.602-8.398-64C471.68 124.078 433.84 73.04 383.113 40 344.238 14.719 297.84 0 248 0c-5.488 0-10.91.223-16.305.574C275.56 3.32 316.36 17.398 351.121 40zm0 0" fill="#4a89dc"/><path d="M414.32 64h-32C432.48 109.441 464 175.04 464 248c0 19.281-2.16 38-6.398 56h32c4.238-18 6.398-36.719 6.398-56 0-72.96-31.52-138.559-81.68-184zm0 0" fill="#8cc152"/><path d="M460.96 375.2C472.72 388 480 405.2 480 424c0 39.762-32.238 72-72 72-21.281 0-40.398-9.2-53.602-23.922C342.961 459.36 336 442.48 336 424c0-39.762 32.238-72 72-72 20.96 0 39.762 8.96 52.96 23.2zm0 0" fill="#ed5565"/><path d="M460.96 375.2c-13.198-14.24-32-23.2-52.96-23.2-5.496 0-10.824.672-15.953 1.832 14.426 3.29 27.183 10.871 36.914 21.367C440.719 388 448 405.2 448 424c0 34.281-23.984 62.91-56.078 70.168A72.016 72.016 0 0 0 408 496c39.762 0 72-32.238 72-72 0-18.8-7.281-36-19.04-48.8zm0 0M166.297 416.84a7.928 7.928 0 0 1-4.984-1.75c-3.458-2.754-4.016-7.793-1.258-11.242l207.722-260.36a7.996 7.996 0 0 1 11.239-1.258c3.457 2.754 4.015 7.793 1.257 11.243L172.551 413.832a7.95 7.95 0 0 1-6.254 3.008zm0 0" fill="#da4453"/><path d="M96 144.008a7.99 7.99 0 0 1-8-8c0-4.422 3.574-8 8-8L368 128c4.426 0 8 3.574 8 8s-3.574 8-8 8zm0 0M148.016 408.527c-3.559 0-6.817-2.398-7.743-6.007L76.215 153.45c-1.102-4.282 1.48-8.641 5.762-9.747 4.238-1.078 8.64 1.48 9.742 5.762l64.058 249.07c1.102 4.281-1.48 8.64-5.761 9.746a7.79 7.79 0 0 1-2 .246zm0 0" fill="#da4453"/><path d="M432 432h-48c-4.426 0-8-3.574-8-8s3.574-8 8-8h48c4.426 0 8 3.574 8 8s-3.574 8-8 8zm0 0" fill="#434a54"/><path d="M408 456.008a7.99 7.99 0 0 1-8-8V400c0-4.426 3.574-8 8-8s8 3.574 8 8v48.008c0 4.426-3.574 8-8 8zm0 0" fill="#434a54"/><path d="M80 112c13.2 0 24 10.8 24 24 0 11.16-7.68 20.52-18 23.16-1.922.61-3.953.84-6 .84-13.2 0-24-10.68-24-24 0-13.2 10.8-24 24-24zm0 0M384 112c13.2 0 24 10.8 24 24s-10.8 24-24 24c-5.633 0-10.922-1.922-15-5.29-5.52-4.42-9-11.16-9-18.71 0-13.2 10.8-24 24-24zm0 0M173.48 405.32c1.68 3.23 2.52 6.84 2.52 10.68 0 13.2-10.8 24-24 24s-24-10.8-24-24c0-11.16 7.68-20.52 18-23.16 1.922-.61 3.953-.84 6-.84 9.367 0 17.52 5.398 21.48 13.32zm0 0" fill="#ed5565"/></svg>