<svg height="496pt" viewBox="-56 0 496 496" width="496pt" xmlns="http://www.w3.org/2000/svg"><path d="M176.078 264v104l-40-56-31.918 44.719-.082-.078-20-28.641-28 40h-24V264zm0 0" fill="#5d9cec"/><path d="M104.16 356.719L96.078 368h-40l28-40 20 28.64zm0 0" fill="#434a54"/><path d="M136.078 312l40 56h-80l8.082-11.281zm0 0M312.078 312l40 56h-80l8.082-11.281zm0 0" fill="#656d78"/><path d="M280.16 356.719L272.078 368h-40l28-40 20 28.64zm0 0" fill="#434a54"/><path d="M352.078 264v104l-40-56-31.918 44.719-.082-.078-20-28.641-28 40h-24V264zm0 0" fill="#5d9cec"/><path d="M384 232l.078 264h-384L0 232zm-31.922 136V264h-144v104zm-176 0V264h-144v104zm0 0" fill="#e6e9ed"/><path d="M0 200h384v32H0zm0 0" fill="#ccd1d9"/><path d="M200.078 96l16 32-16 32h-16l-16-32 16-32zm0 0" fill="#ed5565"/><path d="M200.078 160l16-32-16-32h-16l-16 32 16 32zm184-104L384 200H0V56l80.078 40 112-96 112 96zm0 0M64.047 304c-4.422 0-8.04-3.574-8.04-8s3.536-8 7.954-8h.086c4.418 0 8 3.574 8 8s-3.582 8-8 8zm0 0" fill="#ffce54"/><g fill="#ccd1d9"><path d="M344.04 408h-128c-4.423 0-8-3.574-8-8s3.577-8 8-8h128c4.425 0 8 3.574 8 8s-3.575 8-8 8zm0 0M344.04 440h-128c-4.423 0-8-3.574-8-8s3.577-8 8-8h128c4.425 0 8 3.574 8 8s-3.575 8-8 8zm0 0M280.04 472h-64c-4.423 0-8-3.574-8-8s3.577-8 8-8h64c4.425 0 8 3.574 8 8s-3.575 8-8 8zm0 0M168.16 408h-128c-4.426 0-8-3.574-8-8s3.574-8 8-8h128c4.426 0 8 3.574 8 8s-3.586 8-8 8zm0 0M168.16 440h-128c-4.426 0-8-3.574-8-8s3.574-8 8-8h128c4.426 0 8 3.574 8 8s-3.586 8-8 8zm0 0M104.16 472h-64c-4.426 0-8-3.574-8-8s3.574-8 8-8h64c4.426 0 8 3.574 8 8s-3.586 8-8 8zm0 0"/></g><path d="M240.047 304c-4.422 0-8.04-3.574-8.04-8s3.536-8 7.954-8h.086c4.418 0 8 3.574 8 8s-3.582 8-8 8zm0 0" fill="#ffce54"/><path d="M24.09 224c-4.426 0-8.043-3.574-8.043-8s3.539-8 7.953-8h.09c4.414 0 8 3.574 8 8s-3.586 8-8 8zm0 0" fill="#ed5565"/><path d="M48.09 224c-4.426 0-8.043-3.574-8.043-8s3.539-8 7.953-8h.09c4.414 0 8 3.574 8 8s-3.586 8-8 8zm0 0" fill="#ffce54"/><path d="M72.09 224c-4.426 0-8.043-3.574-8.043-8s3.539-8 7.953-8h.09c4.414 0 8 3.574 8 8s-3.586 8-8 8zm0 0" fill="#8cc152"/></svg>