<svg height="488pt" viewBox="-12 0 488 488.016" width="488pt" xmlns="http://www.w3.org/2000/svg"><path d="M232.008 56.016a23.72 23.72 0 0 0 16-6.16v22.16l-16 16-16-16v-22.16a23.72 23.72 0 0 0 16 6.16zm0 0" fill="#eac6bb"/><path d="M272.008 72.016h40c17.68 0 32-14.32 32-32 0-13.282 10.719-24 24-24h40c0 26.558 21.441 48 48 48 0 17.68-14.32 32-32 32-13.281 0-24 10.718-24 24 0 22.082-17.918 40-40 40h-73.442c.961-2.48 1.442-5.2 1.442-8v-64c0-8.88-7.121-16-16-16zm0 0" fill="#ed5565"/><path d="M441.07 61.625c-5.047 10.031-13.168 18.39-25.062 18.39-24.75 0-32 26.72-32 40 0 22.083-17.918 24-40 24h-56v8c0 2.801-.48 5.52-1.442 8h73.442c22.082 0 40-17.917 40-40 0-13.28 10.719-24 24-24 17.68 0 32-14.32 32-32-5.223 0-10.23-.855-14.938-2.39zm0 0" fill="#da4453"/><path d="M232.008 88.016l16-16h24c8.879 0 16 7.12 16 16v64c0 2.8-.48 5.52-1.442 8-3.199 9.359-12.086 16-22.558 16v-8h-64v8c-13.281 0-24-10.72-24-24v-64c0-8.88 7.12-16 16-16h24zm0 0" fill="#e6e9ed"/><path d="M232.008 264.016h-32v-96h64v96zm0 0" fill="#5d9cec"/><path d="M200.008 264.016h80l64 96h48l72 128h-464l72-96h32l80-128zm0 0" fill="#656d78"/><path d="M344.008 360.016l-64-96h-32l64 96zm0 0M392.008 360.016h-32l72 128h32zm0 0" fill="#434a54"/><path d="M256.023 0c-4.421 0-8 3.574-8 8v.016h-8.015V8c0-4.426-3.574-8-8-8-4.422 0-8 3.574-8 8v.016h-8.016V8c0-4.426-3.578-8-8-8a7.99 7.99 0 0 0-8 8v8.016c0 4.425 3.574 8 8 8h48.031c4.426 0 8-3.575 8-8V8c0-4.426-3.574-8-8-8zm0 0" fill="#ffce54"/><path d="M144.008 408c4.426 0 8-3.574 8-8s-3.574-8-8-8h-39.992l-.008.016h-32L60.023 408zm0 0M288.008 376H401l-8.992-15.984h-48L344 360h-55.992c-4.422 0-8 3.574-8 8s3.578 8 8 8zm0 0" fill="#434a54"/><path d="M256.008 24.016v24c0 7.12-3.04 13.52-8 17.84a23.758 23.758 0 0 1-16 6.16 23.72 23.72 0 0 1-16-6.16c-4.961-4.32-8-10.727-8-17.84v-24zm0 0" fill="#eac6bb"/><path d="M248.008 24.016v24c0 7.12-3.04 13.52-8 17.84-3.305 2.984-7.457 5.015-12.024 5.785 1.305.23 2.649.375 4.024.375a23.72 23.72 0 0 0 16-6.16c4.96-4.32 8-10.727 8-17.84v-24zm0 0" fill="#d3b1a9"/><path d="M192.008 112.016v62.527c2.512.89 5.176 1.473 8 1.473v-64zm0 0M272.008 112.016h-8v64c2.816 0 5.496-.512 8-1.391zm0 0" fill="#ccd1d9"/><path d="M228.008 200h8v64.016h-8zm0 0" fill="#4a89dc"/><path d="M200.008 112.016a4 4 0 1 1-8 0 4 4 0 0 1 8 0zm0 0M272.008 112.016a4 4 0 1 1-8 0 4 4 0 0 1 8 0zm0 0" fill="#ccd1d9"/><path d="M236.008 200a4 4 0 1 1-8 0 4 4 0 0 1 8 0zm0 0" fill="#4a89dc"/></svg>