<svg height="488pt" viewBox="0 -16 488 488" width="488pt" xmlns="http://www.w3.org/2000/svg"><path d="M456 368H80c-17.602 0-32-14.398-32-32v24c0 17.602 14.398 32 32 32h376c17.602 0 32-14.398 32-32v-24c0 17.602-14.398 32-32 32zm0 0" fill="#ccd1d9"/><path d="M136 368H80c-17.602 0-32-14.398-32-32V32C48 14.398 62.398 0 80 0h376c17.602 0 32 14.398 32 32v304c0 17.602-14.398 32-32 32zm0 0" fill="#e6e9ed"/><path d="M364 176c11 0 20 9 20 20s-9 20-20 20c-11.105 0-20-9-20-20s8.895-20 20-20zm0 0M364 296c11 0 20 9 20 20s-9 20-20 20c-11.105 0-20-9-20-20s8.895-20 20-20zm0 0M364 236c11 0 20 9 20 20s-9 20-20 20c-11.105 0-20-9-20-20s8.895-20 20-20zm0 0M244 296c11 0 20 9 20 20s-9 20-20 20c-11.105 0-20-9-20-20s8.895-20 20-20zm0 0M304 296c11 0 20 9 20 20s-9 20-20 20c-11.105 0-20-9-20-20s8.895-20 20-20zm0 0M304 236c11 0 20 9 20 20s-9 20-20 20c-11.105 0-20-9-20-20s8.895-20 20-20zm0 0M244 236c11 0 20 9 20 20s-9 20-20 20c-11.105 0-20-9-20-20s8.895-20 20-20zm0 0M244 176c11 0 20 9 20 20s-9 20-20 20c-11.105 0-20-9-20-20s8.895-20 20-20zm0 0M304 176c11 0 20 9 20 20s-9 20-20 20c-11.105 0-20-9-20-20s8.895-20 20-20zm0 0" fill="#ccd1d9"/><path d="M364 168c11 0 20 9 20 20s-9 20-20 20c-11.105 0-20-9-20-20s8.895-20 20-20zm0 0M364 288c11 0 20 9 20 20s-9 20-20 20c-11.105 0-20-9-20-20s8.895-20 20-20zm0 0M364 228c11 0 20 9 20 20s-9 20-20 20c-11.105 0-20-9-20-20s8.895-20 20-20zm0 0M244 288c11 0 20 9 20 20s-9 20-20 20c-11.105 0-20-9-20-20s8.895-20 20-20zm0 0M304 288c11 0 20 9 20 20s-9 20-20 20c-11.105 0-20-9-20-20s8.895-20 20-20zm0 0M304 228c11 0 20 9 20 20s-9 20-20 20c-11.105 0-20-9-20-20s8.895-20 20-20zm0 0M244 228c11 0 20 9 20 20s-9 20-20 20c-11.105 0-20-9-20-20s8.895-20 20-20zm0 0M244 168c11 0 20 9 20 20s-9 20-20 20c-11.105 0-20-9-20-20s8.895-20 20-20zm0 0M304 168c11 0 20 9 20 20s-9 20-20 20c-11.105 0-20-9-20-20s8.895-20 20-20zm0 0" fill="#fff"/><path d="M224 40h224v88H224zm0 0" fill="#5d9cec"/><path d="M448.238 248c-4.422 0-8.039-3.574-8.039-8 0-4.414 3.535-8 7.953-8h.086c4.418 0 8 3.586 8 8 0 4.426-3.582 8-8 8zm0 0M448.238 280c-4.422 0-8.039-3.574-8.039-8s3.535-8 7.953-8h.086c4.418 0 8 3.574 8 8s-3.582 8-8 8zm0 0M424.238 248c-4.422 0-8.039-3.574-8.039-8 0-4.414 3.535-8 7.953-8h.086c4.418 0 8 3.586 8 8 0 4.426-3.582 8-8 8zm0 0M424.238 280c-4.422 0-8.039-3.574-8.039-8s3.535-8 7.953-8h.086c4.418 0 8 3.574 8 8s-3.582 8-8 8zm0 0" fill="#ccd1d9"/><path d="M448.238 240c-4.422 0-8.039-3.574-8.039-8s3.535-8 7.953-8h.086c4.418 0 8 3.574 8 8s-3.582 8-8 8zm0 0M448.238 272c-4.422 0-8.039-3.574-8.039-8s3.535-8 7.953-8h.086c4.418 0 8 3.574 8 8s-3.582 8-8 8zm0 0M424.238 240c-4.422 0-8.039-3.574-8.039-8s3.535-8 7.953-8h.086c4.418 0 8 3.574 8 8s-3.582 8-8 8zm0 0M424.238 272c-4.422 0-8.039-3.574-8.039-8s3.535-8 7.953-8h.086c4.418 0 8 3.574 8 8s-3.582 8-8 8zm0 0" fill="#fff"/><path d="M448 336a7.99 7.99 0 0 1-8-8v-32c0-4.426 3.574-8 8-8s8 3.574 8 8v32c0 4.426-3.574 8-8 8zm0 0M424 336a7.99 7.99 0 0 1-8-8v-32c0-4.426 3.574-8 8-8s8 3.574 8 8v32c0 4.426-3.574 8-8 8zm0 0M448 208a7.99 7.99 0 0 1-8-8v-32c0-4.426 3.574-8 8-8s8 3.574 8 8v32c0 4.426-3.574 8-8 8zm0 0M424 208a7.99 7.99 0 0 1-8-8v-32c0-4.426 3.574-8 8-8s8 3.574 8 8v32c0 4.426-3.574 8-8 8zm0 0" fill="#ccd1d9"/><path d="M136 432a7.99 7.99 0 0 1-8-8v-96c0-4.426 3.574-8 8-8s8 3.574 8 8v96c0 4.426-3.574 8-8 8zm0 0M16 432a7.99 7.99 0 0 1-8-8v-96c0-4.426 3.574-8 8-8s8 3.574 8 8v96c0 4.426-3.574 8-8 8zm0 0" fill="#434a54"/><path d="M120 448c-4.426 0-8-3.574-8-8s3.574-8 8-8c4.414 0 8-3.586 8-8 0-4.426 3.574-8 8-8s8 3.574 8 8c0 13.23-10.77 24-24 24zm0 0M32 448c-13.23 0-24-10.77-24-24 0-4.426 3.574-8 8-8s8 3.574 8 8c0 4.414 3.586 8 8 8 4.426 0 8 3.574 8 8s-3.574 8-8 8zm0 0M15.992 336a7.99 7.99 0 0 1-8-8c0-13.23 10.77-24 24-24 4.422 0 8 3.574 8 8s-3.578 8-8 8c-4.418 0-8 3.586-8 8 0 4.426-3.578 8-8 8zm0 0" fill="#434a54"/><path d="M120 448H32c-4.426 0-8-3.574-8-8s3.574-8 8-8h88c4.426 0 8 3.574 8 8s-3.574 8-8 8zm0 0" fill="#434a54"/><path d="M400 80H272c-4.426 0-8-3.574-8-8s3.574-8 8-8h128c4.426 0 8 3.574 8 8s-3.574 8-8 8zm0 0M360 104h-48c-4.426 0-8-3.574-8-8s3.574-8 8-8h48c4.426 0 8 3.574 8 8s-3.574 8-8 8zm0 0" fill="#4a89dc"/><path d="M184 56v256c0 8.8-7.2 16-16 16h-64c-8.8 0-16-7.2-16-16V56c0-8.8 7.2-16 16-16h64c8.8 0 16 7.2 16 16zm0 0" fill="#656d78"/><path d="M136 240a7.99 7.99 0 0 1-8-8V128c0-4.426 3.574-8 8-8s8 3.574 8 8v104c0 4.426-3.574 8-8 8zm0 0M48 304H31.992c-4.426 0-8 3.574-8 8s3.574 8 8 8H48zm0 0" fill="#434a54"/><g fill="#656d78"><path d="M144 376h-16c-4.426 0-8-3.574-8-8s3.574-8 8-8h16c4.426 0 8 3.574 8 8s-3.574 8-8 8zm0 0M144 400h-16c-4.426 0-8-3.574-8-8s3.574-8 8-8h16c4.426 0 8 3.574 8 8s-3.574 8-8 8zm0 0M144 424h-16c-4.426 0-8-3.574-8-8s3.574-8 8-8h16c4.426 0 8 3.574 8 8s-3.574 8-8 8zm0 0M112 456a7.99 7.99 0 0 1-8-8v-16c0-4.426 3.574-8 8-8s8 3.574 8 8v16c0 4.426-3.574 8-8 8zm0 0M88 456a7.99 7.99 0 0 1-8-8v-16c0-4.426 3.574-8 8-8s8 3.574 8 8v16c0 4.426-3.574 8-8 8zm0 0M64 456a7.99 7.99 0 0 1-8-8v-16c0-4.426 3.574-8 8-8s8 3.574 8 8v16c0 4.426-3.574 8-8 8zm0 0M40 456a7.99 7.99 0 0 1-8-8v-16c0-4.426 3.574-8 8-8s8 3.574 8 8v16c0 4.426-3.574 8-8 8zm0 0M24 400H8c-4.426 0-8-3.574-8-8s3.574-8 8-8h16c4.426 0 8 3.574 8 8s-3.574 8-8 8zm0 0M24 376H8c-4.426 0-8-3.574-8-8s3.574-8 8-8h16c4.426 0 8 3.574 8 8s-3.574 8-8 8zm0 0M24 352H8c-4.426 0-8-3.574-8-8s3.574-8 8-8h16c4.426 0 8 3.574 8 8s-3.574 8-8 8zm0 0M24 424H8c-4.426 0-8-3.574-8-8s3.574-8 8-8h16c4.426 0 8 3.574 8 8s-3.574 8-8 8zm0 0"/></g></svg>