<svg height="488pt" viewBox="-19 0 487 488" width="488pt" xmlns="http://www.w3.org/2000/svg"><path d="M131.781 123.281c-2.883 2.957-6.883 4.719-11.281 4.719-8.8 0-16-7.2-16-16s7.2-16 16-16 16 7.2 16 16c0 4.398-1.762 8.398-4.719 11.281zm0 0" fill="#e6e9ed"/><path d="M24.5 24v440h304v24H.5V24zm0 0" fill="#ccd1d9"/><path d="M352.5 40h-40V0zm0 0" fill="#f5f7fa"/><path d="M154.422 78.078c18.797 18.723 18.797 49.129 0 67.844l-22.64-22.64c2.956-2.884 4.718-6.884 4.718-11.282 0-8.8-7.2-16-16-16V64c12.32 0 24.559 4.64 33.922 14.078zm0 0" fill="#ac92ec"/><path d="M131.781 123.281l22.64 22.64c-18.722 18.798-49.128 18.798-67.843 0-18.797-18.722-18.797-49.128 0-67.843C95.941 68.641 108.18 64 120.5 64v32c-8.8 0-16 7.2-16 16s7.2 16 16 16c4.398 0 8.398-1.762 11.281-4.719zm0 0" fill="#48cfad"/><path d="M72.5 336h72v24h-72zm0 0" fill="#ccd1d9"/><path d="M72.5 360h72v56h-72zm0 0M144.5 360h80v56h-80zm0 0" fill="#fff"/><path d="M144.5 336h80v24h-80zm0 0M224.5 336h80v24h-80zm0 0" fill="#ccd1d9"/><path d="M224.5 360h80v56h-80zm0 0" fill="#fff"/><path d="M72.5 360v56h232v-80h-232zm280-320v424h-328V0h288v40zM154.422 145.922c18.797-18.723 18.797-49.129 0-67.844C145.059 68.641 132.82 64 120.5 64s-24.559 4.64-33.922 14.078c-18.797 18.723-18.797 49.129 0 67.844 18.723 18.797 49.121 18.797 67.844 0zm0 0" fill="#e6e9ed"/><path d="M424.5 129.922v8h-32v-8c0-8.809 7.121-16 16-16 8.8 0 16 7.2 16 16zm0 0M392.5 137.922h32v105.36h-32zm0 0" fill="#656d78"/><path d="M424.5 376v11.281L408.5 416l-16-28.719V376zm0 0" fill="#ffce54"/><path d="M392.5 243.281h32V376h-32zm0 0" fill="#656d78"/><g fill="#ccd1d9"><path d="M296.5 88h-88c-4.426 0-8-3.574-8-8s3.574-8 8-8h88c4.426 0 8 3.574 8 8s-3.574 8-8 8zm0 0M296.5 120h-88c-4.426 0-8-3.574-8-8s3.574-8 8-8h88c4.426 0 8 3.574 8 8s-3.574 8-8 8zm0 0M256.5 152h-48c-4.426 0-8-3.574-8-8s3.574-8 8-8h48c4.426 0 8 3.574 8 8s-3.574 8-8 8zm0 0M168.5 224h-88c-4.426 0-8-3.574-8-8s3.574-8 8-8h88c4.426 0 8 3.574 8 8s-3.574 8-8 8zm0 0M168.5 256h-88c-4.426 0-8-3.574-8-8s3.574-8 8-8h88c4.426 0 8 3.574 8 8s-3.574 8-8 8zm0 0M128.5 288h-48c-4.426 0-8-3.574-8-8s3.574-8 8-8h48c4.426 0 8 3.574 8 8s-3.574 8-8 8zm0 0"/></g><path d="M232.5 296.016a7.99 7.99 0 0 1-8-8V256c0-4.426 3.574-8 8-8s8 3.574 8 8v32.016c0 4.425-3.574 8-8 8zm0 0" fill="#48cfad"/><path d="M256.516 296.016c-4.422 0-8-3.575-8-8V216c0-4.426 3.578-8 8-8 4.425 0 8 3.574 8 8v72.016c0 4.425-3.575 8-8 8zm0 0" fill="#ac92ec"/><path d="M280.5 296.016a7.99 7.99 0 0 1-8-8V240c0-4.426 3.574-8 8-8s8 3.574 8 8v48.016c0 4.425-3.574 8-8 8zm0 0" fill="#48cfad"/><path d="M136.5 360h16v56h-16zm0 0M224.5 360h16v56h-16zm0 0" fill="#e6e9ed"/><path d="M208.516 296.016c-4.422 0-8-3.575-8-8v-80c0-4.422 3.578-8 8-8 4.425 0 8 3.578 8 8v80c0 4.425-3.575 8-8 8zm0 0" fill="#656d78"/><path d="M296.516 296.016h-88c-4.422 0-8-3.575-8-8 0-4.422 3.578-8 8-8h88c4.425 0 8 3.578 8 8 0 4.425-3.575 8-8 8zm0 0" fill="#656d78"/><path d="M392.5 235.313h32v16h-32zm0 0M441.469 136.96a23.832 23.832 0 0 0-16.953-7.023h-.016l-32-.007v16l32 .007h.016a7.91 7.91 0 0 1 5.64 2.344 7.945 7.945 0 0 1 2.344 5.656v92.68c0 4.414 3.574 8 8 8s8-3.586 8-8v-92.68c0-6.417-2.496-12.433-7.031-16.976zm0 0" fill="#ffce54"/></svg>