<svg id="Layer_1" data-name="Layer 1" xmlns="http://www.w3.org/2000/svg" xmlns:xlink="http://www.w3.org/1999/xlink" viewBox="0 0 411.03 507.93"><defs><style>.cls-1{fill:#f4cea8}.cls-1,.cls-3,.cls-6,.cls-7,.cls-8{stroke:#231f20;stroke-miterlimit:10}.cls-3{fill:#9b5c25}.cls-6{fill:#fff}.cls-7{fill:#e43a26}.cls-8{fill:#525a72}</style></defs><path class="cls-1" d="M433 259c13.59 18.23 14 40 14.69 78 .66 35.29.43 58.67-13.77 81-26 40.88-79.16 41.09-87.2 41h2.34c-8 .09-61.2-.12-87.2-41-14.21-22.33-14.43-45.71-13.77-81 .7-38 1.1-59.77 14.68-78 34.41-46.2 135.83-46.2 170.23 0z" transform="translate(-145.2 -194.35)"/><path d="M341.75 359.57c3.15-19.37 4.73-29.07 6.95-29.1s4 9.61 7.77 28.89c3.15 16.1 4.31 25.61.22 28-1.65 1-4.51 1-7.17 1.07s-5.42.1-7-.79c-4.17-2.23-3.44-11.64-.77-28.07z" transform="translate(-145.2 -194.35)" fill="#ffd88a" stroke="#231f20" stroke-miterlimit="10"/><circle class="cls-3" cx="257.13" cy="143.43" r="12.07"/><circle class="cls-3" cx="146.58" cy="143.43" r="12.07"/><path d="M382.26 427.61c-8.32 12.84-28.83 15-43 8.89-11.59-5-20.93-16.41-18.67-20.74 2.48-4.73 16.17 4 35.85-1.19 15.61-4.1 21.76-13.46 26.67-10.37s4.37 15.35-.85 23.41z" transform="translate(-145.2 -194.35)" fill="#5d240e" stroke="#231f20" stroke-miterlimit="10"/><path d="M382.93 426.51a53 53 0 0 0-9.85-.68c-14.64.37-25.75 6.79-31.63 10.93a39.33 39.33 0 0 0 13.77 3c3.76.12 12.81.4 20.82-5.63a27.78 27.78 0 0 0 6.89-7.62z" transform="translate(-145.2 -194.35)" fill="#ee7154" stroke="#231f20" stroke-miterlimit="10"/><path class="cls-3" d="M428.63 315c.4-.91-7.46-6.36-16.82-8.41-1.16-.26-2.58-.48-5.41-.92-8.59-1.33-11.43-2.88-13.27-1.24a3.63 3.63 0 0 0-1.17 3.67c1.17 2.93 8.44 1.11 18.64 2.3 11.4 1.37 17.67 5.44 18.03 4.6zM263.79 320.62c-.39-.91 7.5-6.32 16.88-8.3 1.16-.25 2.58-.46 5.41-.88 8.6-1.28 11.45-2.81 13.28-1.16a3.64 3.64 0 0 1 1.14 3.72c-1.19 2.92-8.44 1.05-18.65 2.18-11.39 1.22-17.7 5.25-18.06 4.44z" transform="translate(-145.2 -194.35)"/><path class="cls-1" d="M235.59 342.15c.31 10.83 11.44 16.94 12.17 17.32a119.09 119.09 0 0 1 0-17.32c.09-1 .38-4.26.59-8.74.12-2.5.17-4.55.19-5.92a11.45 11.45 0 0 0-6.85 1.18c-6.21 3.4-6.14 12.12-6.1 13.48zM459.62 341.34c-.7 10.37-10.36 16.27-11.59 17-.14-3.8-.38-10.57-.54-17.74-.21-9.4-.06-8.65-.05-8.65s0-.1 0-.11 0-1.55.17-5.91a11.37 11.37 0 0 1 6.77 1.59c5.91 3.75 5.33 12.41 5.24 13.82z" transform="translate(-145.2 -194.35)"/><circle class="cls-6" cx="151.3" cy="136.1" r="3.05"/><circle class="cls-6" cx="261.97" cy="136.1" r="3.05"/><path class="cls-3" d="M439 224.67c8.59 4.31 10.05 18.54 10.67 25.77 2.17 25.6 3.27 75.41-2.06 75.48-4.51.06 2.3-35.83-19.28-53.7-13-10.77-25-5.68-69.77-6.22-59-.71-71.09-10.45-86.67 1.33-24.45 18.49-18.55 60.43-23.37 60.16-6.11-.34-4.28-67.23-4.19-70.38 1.15-39.24 4.81-48.9 12-52.89 9.24-5.12 15.59 4 36 1.78 20.19-2.15 21.7-11.84 36.89-11.11 19 .91 19.88 16.28 39.56 16.89 12.43.38 20.33-5.5 34.66-3.11a40 40 0 0 1 14.67 4.89c3.48 2 4.24 3.31 8.45 5.77 6.11 3.59 9.65 3.94 12.44 5.34z" transform="translate(-145.2 -194.35)"/><path class="cls-6" d="M440.78 701.78h-166V474.2a335.07 335.07 0 0 1 166 0z" transform="translate(-145.2 -194.35)"/><path class="cls-1" d="M241.22 327c21.4-19.73 26.9-20.5 29.48-20.6s12.18.18 23.26 14.08a30.17 30.17 0 0 0-15.26 7.26c-9.65 8.79-9.7 20.91-9.7 23.26s.06 11.67 6.33 19.7c7.4 9.49 22 7.58 22.66 13.78a4.06 4.06 0 0 1-.45 2.37c-2.24 4.13-11.53 2.21-24.29 1.48a179.28 179.28 0 0 0-20.29 0l-26.26-47.22c3.3-3.33 8.24-8.28 14.52-14.11z" transform="translate(-145.2 -194.35)"/><path class="cls-7" d="M357.2 686l-13-25.88q1-92.39 2.06-184.79l14.89.8 6.39 182.63q-5.16 13.62-10.34 27.24z" transform="translate(-145.2 -194.35)"/><path class="cls-8" d="M464.68 684.81l-74.38 7.74q-7-115-14-230.11 6.8.84 13.78 1.56c13.56 1.39 26.7 2.31 39.36 2.85l59.84-32.48-44.15-44.07q14.36-28.57 28.69-57.15l69 64.3c1.4 1.23 14.74 13.26 12.76 30.83-.95 8.44-5.25 14.72-8.59 18.81-21.7 26.6-87.61 73.69-94.68 78.73q-1.31 17.29-2.6 34.61zM249.22 686.3l74.67 4.14q1.77-113.55 3.55-227.11-6.46 1-13.33 1.78a305.08 305.08 0 0 1-40.22 1.78l-61.33-29.56 42-46.14-31.41-55.71L157.37 403c-1.34 1.28-14.08 13.95-11.26 31.4 1.36 8.39 6 14.45 9.48 18.37 23 25.53 91.06 69.39 98.37 74.08l4.26 34.44z" transform="translate(-145.2 -194.35)"/><path class="cls-7" d="M367.8 457.89c.69 15.74-8.07 26.27-14.44 26.22-6.05-.05-13.88-9.66-14.43-23.71q7.19-.37 14.77-1 7.3-.68 14.1-1.51z" transform="translate(-145.2 -194.35)"/><path class="cls-6" d="M325.82 493.34l-2.67-.38q-3.27-18.94-6.52-37.89a116.67 116.67 0 0 0 32.81 4.6zM384 490.57l2.64-.58q1.83-19.12 3.67-38.27a118.23 118.23 0 0 1-14.2 4.28 116.39 116.39 0 0 1-18.18 2.75z" transform="translate(-145.2 -194.35)"/><image width="658" height="414" transform="matrix(.25 0 0 .25 120.3 163.98)" xlink:href="TCC/TCC_prototipo/Untitled-asas1.png"/><image width="260" height="261" transform="matrix(.62 0 0 .62 123.77 65.03)" xlink:href="TCC/TCC_prototipo/1157fdadad4e8054c1.png"/><path class="cls-1" d="M241.22 327c21.4-19.73 26.9-20.5 29.48-20.6s12.18.18 23.26 14.08a25.39 25.39 0 0 0-8 1.92c-9.56 4.08-13.77 13.14-15.11 16.15-5.63 12.63.34 18.31-3.81 30.74-1.82 5.45-5.62 12.27-14.11 19l-26.23-47.18c3.3-3.33 8.24-8.28 14.52-14.11zM455.36 325.58c-22.33-18.67-27.85-19.18-30.44-19.14s-12.16.76-22.55 15.17a30.2 30.2 0 0 1 15.63 6.52c10.06 8.27 10.71 20.38 10.84 22.76s.5 11.67-5.37 20c-6.94 9.83-21.65 8.63-22 14.85a4.1 4.1 0 0 0 .56 2.35c2.44 4 11.62 1.65 24.33.31a179.52 179.52 0 0 1 20.28-1l23.91-48.47c-3.43-3.15-8.63-7.86-15.19-13.35z" transform="translate(-145.2 -194.35)"/><path class="cls-1" d="M455.36 325.58c-22.33-18.67-27.85-19.18-30.44-19.14s-12.16.76-22.55 15.17a25.38 25.38 0 0 1 8.08 1.54c9.75 3.61 14.39 12.46 15.87 15.4 6.24 12.35.54 18.31 5.29 30.52 2.09 5.36 6.2 12 15 18.34l23.91-48.47c-3.4-3.16-8.6-7.87-15.16-13.36z" transform="translate(-145.2 -194.35)"/></svg>