<svg height="512" viewBox="0 0 64 64" width="512" xmlns="http://www.w3.org/2000/svg"><g data-name="Compass"><path d="M43.62 43A15.968 15.968 0 0 1 33 47.97V44h1l2-1v-3l-2-2h-4l-2 2v3l2 3v1.88a16.053 16.053 0 0 1-7.72-3.16L23 44v-4l1-3 5-3v-4l-3-3v-4l-2-4h-1.34a16.029 16.029 0 0 1 17.09-1H33l-2 2v4l5 3v5l6 1v4l-2 4v2z" fill="#5aaae7"/><path d="M29 30v4l-5 3-1 3v4l-.72.72A16.02 16.02 0 0 1 22.66 19H24l2 4v4zM33 44v3.97c-.33.02-.66.03-1 .03a16.524 16.524 0 0 1-2-.12V46l-2-3v-3l2-2h4l2 2v3l-2 1zM39.75 18a16 16 0 0 1 3.87 25H40v-2l2-4v-4l-6-1v-5l-5-3v-4l2-2z" fill="#00ccb3"/><g fill="#1e81ce"><path d="M35 12a1 1 0 0 1-.8-.4L30 6v6h-2V3a1 1 0 0 1 1.8-.6L34 8V2h2v9a1 1 0 0 1-.684.949A1.019 1.019 0 0 1 35 12zM33 62h-2a3 3 0 0 1-3-3h2a1 1 0 0 0 1 1h2a1 1 0 0 0 0-2h-2a3 3 0 0 1 0-6h2a3 3 0 0 1 3 3h-2a1 1 0 0 0-1-1h-2a1 1 0 0 0 0 2h2a3 3 0 0 1 0 6zM62 29v-2h-6a1 1 0 0 0-1 1v8a1 1 0 0 0 1 1h6v-2h-5v-2h3v-2h-3v-2zM9 37a1 1 0 0 1-.961-.725L7 32.64l-1.039 3.635a1 1 0 0 1-1.931-.032l-2-8 1.94-.486 1.094 4.378.975-3.41a1 1 0 0 1 1.922 0l.975 3.41 1.094-4.378 1.94.486-2 8a1 1 0 0 1-.953.757z"/></g><path d="M25.77 58.277A26.977 26.977 0 0 1 5.99 39.269l1.927-.538a24.977 24.977 0 0 0 18.313 17.6zM38.229 58.277l-.458-1.946a24.978 24.978 0 0 0 18.313-17.6l1.926.538a26.977 26.977 0 0 1-19.781 19.008zM56.084 25.269a24.978 24.978 0 0 0-18.313-17.6l.458-1.946A26.977 26.977 0 0 1 58.01 24.731zM7.669 26.23l-1.946-.46A27.171 27.171 0 0 1 25.77 5.723l.46 1.946A25.159 25.159 0 0 0 7.669 26.23z" fill="#ff9811"/></g></svg>