<svg height="512" viewBox="0 0 64 64" width="512" xmlns="http://www.w3.org/2000/svg"><g data-name="Location"><path d="M49 46v6.45a28.227 28.227 0 0 1-5.42 3.57A27.638 27.638 0 0 1 32 58.97V54l3-3v-4l2-2v-4l-5-5h-8l-4 4v3l2 2h4v4l2 2v7.84a27.977 27.977 0 0 1-19.14-10.7L13 44v-3l3-3v-3l-5-5v-3h3l4-4v-4l4-4v-4l-3-3h-3.96A27.84 27.84 0 0 1 28 3.16V11l4 4h5l5 5v6l-2 2v4l4 4v5z" fill="#5aaae7"/><path d="M31 3a27.016 27.016 0 0 0-3 .16V11l4 4h5l5 5v6l-2 2v4l1.57 1.57L44 36v5l.3.3L49 46v6.45A28 28 0 0 0 31 3z" fill="#00ccb3"/><path d="M61 43c0 9-12 18-12 18a46.387 46.387 0 0 1-5.42-4.98C40.4 52.58 37 47.79 37 43a12 12 0 1 1 24 0z" fill="#ff5023"/><g fill="#00ccb3"><path d="M37 43v2l-2 2v4l-3 3v4.97c-.33.02-.66.03-1 .03a27.016 27.016 0 0 1-3-.16V51l-2-2v-4h-4l-2-2v-3l3-3 1-1h8l5 5zM37 24v3l-2 2h-2v-4l-2-2v-2h6zM22 11v4l-4 4v4l-4 4h-3v3l5 5v3l-3 3v3l-4.14 4.14A27.992 27.992 0 0 1 15.04 8H19z"/></g><path d="M49 38a5 5 0 0 0-4.7 3.3A4.788 4.788 0 0 0 44 43a5 5 0 1 0 5-5z" fill="#ffd422"/></g></svg>