<svg height="512" viewBox="0 0 64 64" width="512" xmlns="http://www.w3.org/2000/svg"><path d="M37 19H3v30a2.006 2.006 0 0 0 2 2h44a2.006 2.006 0 0 0 2-2V19z" fill="#ffa733"/><path d="M61 43c0 9-12 18-12 18a43.035 43.035 0 0 1-9.32-10A15.508 15.508 0 0 1 37 43a12 12 0 0 1 24 0z" fill="#ff5023"/><path d="M51 5v6H34V3h15a2.006 2.006 0 0 1 2 2zM20 3v8H3V5a2.006 2.006 0 0 1 2-2z" fill="#ffa733"/><path d="M3 11h17v8H3zM34 11h17v8H34z" fill="#bcbec0"/><path d="M34 19v4a2.006 2.006 0 0 1-2 2H22a2.006 2.006 0 0 1-2-2V3h14z" fill="#e6e7e8"/><path d="M51 38.41a5.106 5.106 0 0 0-2-.41 5 5 0 0 0 0 10 5.106 5.106 0 0 0 2-.41 5.011 5.011 0 0 0 0-9.18z" fill="#ffd422"/></svg>