<svg height="512" viewBox="0 0 64 64" width="512" xmlns="http://www.w3.org/2000/svg"><g data-name="Navigation Setting"><path d="M55.31 37.71a23.7 23.7 0 0 1-2.79 6.74l3.52 4.52-7.07 7.07-4.52-3.52a23.7 23.7 0 0 1-6.74 2.79L37 61H27l-.71-5.69a23.7 23.7 0 0 1-6.74-2.79l-4.52 3.52-7.07-7.07 3.52-4.52a23.7 23.7 0 0 1-2.79-6.74L3 37V27l5.69-.71a23.7 23.7 0 0 1 2.79-6.74l-3.52-4.52 7.07-7.07 4.52 3.52a23.7 23.7 0 0 1 6.74-2.79L27 3h10l.71 5.69a23.7 23.7 0 0 1 6.74 2.79l4.52-3.52 7.07 7.07-3.52 4.52a23.7 23.7 0 0 1 2.79 6.74L61 27v10z" fill="#ff5023"/><circle cx="32" cy="32" fill="#ffd422" r="17"/><path d="M41 23L29.69 34.31l-10.61-2.12z" fill="#ff6243"/><g fill="#ed1c24"><path d="M41 23l-9.19 21.92-2.12-10.61zM31 10h2v2h-2zM45.428 17.155l1.414-1.414 1.414 1.414-1.414 1.414zM52 31h2v2h-2zM45.424 46.849l1.414-1.414 1.414 1.414-1.414 1.414zM31 52h2v2h-2zM15.73 46.845l1.414-1.414 1.414 1.414-1.414 1.414zM10 31h2v2h-2zM15.734 17.151l1.414-1.414 1.414 1.414-1.414 1.414z"/></g></g></svg>