<svg height="512" viewBox="0 0 64 64" width="512" xmlns="http://www.w3.org/2000/svg"><g data-name="Point"><path d="M44 19c0 9-12 18-12 18s-12-9-12-18a12 12 0 0 1 24 0z" fill="#ff5023"/><path d="M11 56v1H3V43h8v1z" fill="#3d9ae2"/><path d="M46 45.87l9.65-5.57a3 3 0 0 1 4.5 2.6 2.982 2.982 0 0 1-1.5 2.6L41.02 55.68a13.989 13.989 0 0 1-8.63 1.78l-11.92-1.41c-.31-.03-.63-.05-.94-.05H11V44h2l1.67-1a13.991 13.991 0 0 1 7.21-2h.85a13.935 13.935 0 0 1 4.43.72L31 43h12a2.993 2.993 0 0 1 2.12.88 3.08 3.08 0 0 1 .87 1.99z" fill="#ffc477"/><circle cx="32" cy="19" fill="#ffd422" r="5"/><path d="M43 50H28v-2h15a2 2 0 0 0 0-4H31a1 1 0 0 1-.316-.051l-3.845-1.282a12.993 12.993 0 0 0-4.11-.667h-.851a13 13 0 0 0-6.689 1.853l-1.674 1A1 1 0 0 1 13 45h-2v-2h1.723l1.437-.862A15 15 0 0 1 21.878 40h.851a14.977 14.977 0 0 1 4.743.77l3.69 1.23H43a4 4 0 0 1 0 8z" fill="#ffa733"/></g></svg>