<svg height="496pt" viewBox="0 0 496 496.944" width="496pt" xmlns="http://www.w3.org/2000/svg"><path d="M328.473 104.945h144v32h-144zm0 0M24.473 104.945h144v32h-144zm0 0" fill="#e6e9ed"/><path d="M488.473 136.945v72h-16l-16 7.118v-47.118h-96v64h58l-90 40v-136zm0 0M168.473 268.465l-52.32 11.68 4.32-15.2v-8l-41.121-24h57.12v-64h-96v40l-.562.957-15.437-8.957h-16v-64h160zm0 0" fill="#aab2bd"/><path d="M184.473 88.945v-48l64-32 64 32v48zm0 0" fill="#fcd770"/><path d="M328.473 280.945v-192h-160v179.52l6.32-1.36a89.62 89.62 0 0 1 19.598-2.16c9.363 0 18.64 1.438 27.52 4.32l20.562 6.56 16.078 5.12c3.922 0 7.84.559 11.68 1.598l50.242 14.402h16l1.84-1.203zm0 0" fill="#ccd1d9"/><path d="M456.473 168.945v47.118l-38 16.882h-58v-64zm0 0M136.473 168.945v64H79.352L39.91 209.902l.563-.957v-40zm0 0" fill="#69d6f4"/><path d="M488.473 232.945v120l-88 24h-8l-6.16-9.203-48-72-9.84-14.797v-8l90-40 38-16.882 16-7.118h16zm0 0M120.473 256.945v8l-4.32 15.2-24.962 87.28-2.718 9.52h-8l-72-24v-152h16l15.437 8.957 39.442 23.043zm0 0" fill="#b4dd7f"/><g fill="#f0d0b4"><path d="M247.352 444.063l1.12 5.84c0 4.48-1.761 8.8-4.96 12l-12 12-2.078 2.081a16.97 16.97 0 0 1-12 4.961c-9.364 0-16.961-7.601-16.961-16.96 0-4.481 1.757-8.801 4.96-12l14.079-14.083c3.199-3.199 7.52-4.957 12-4.957 4.64 0 8.96 1.918 12 4.957a16.425 16.425 0 0 1 3.84 6.16zm0 0"/><path d="M219.512 437.902l-14.078 14.082a16.97 16.97 0 0 1-12 4.961c-9.364 0-16.961-7.601-16.961-16.96 0-4.481 1.757-8.801 4.96-12l14.079-14.083c3.199-3.199 7.52-4.957 12-4.957 4.64 0 8.96 1.918 12 4.957a17.082 17.082 0 0 1 4.96 12c0 4.48-1.761 8.801-4.96 12zm0 0"/><path d="M195.512 389.902a17.082 17.082 0 0 1 4.96 12c0 4.48-1.761 8.801-4.96 12l-14.078 14.082a16.97 16.97 0 0 1-12 4.961c-9.364 0-16.961-7.601-16.961-16.96 0-4.481 1.757-8.801 4.96-12l14.079-14.083c3.199-3.199 7.52-4.957 12-4.957 4.64 0 8.96 1.918 12 4.957zm0 0"/><path d="M171.512 365.902a17.082 17.082 0 0 1 4.96 12c0 4.48-1.761 8.801-4.96 12l-14.078 14.082a16.97 16.97 0 0 1-12 4.961c-9.364 0-16.961-7.601-16.961-16.96 0-1.2.16-2.481.398-3.602.64-3.2 2.242-6.078 4.563-8.399l14.078-14.082c3.199-3.199 7.52-4.957 12-4.957 4.64 0 8.96 1.918 12 4.957zm0 0M266.55 460.063c3.762 3.12 5.923 7.68 5.923 12.562 0 4.48-1.84 8.64-4.801 11.52-2.879 2.96-7.04 4.8-11.52 4.8h-1.52c-4 0-7.839-1.441-10.8-4.082l-12.32-10.96 12-12c3.199-3.2 4.96-7.52 4.96-12l-1.12-5.84h.082zm0 0"/></g><path d="M344.473 400.305c0 9.199-7.442 16.64-16.641 16.64h-1.36c-3.84 0-7.6-1.36-10.64-3.84l-1.281-1.042c3.761 3.12 5.922 7.68 5.922 12.562 0 4.48-1.84 8.64-4.801 11.52-2.879 2.96-7.04 4.8-11.52 4.8h-1.761c-3.84 0-7.52-1.36-10.48-3.761l-1.36-1.121c3.761 3.12 5.922 7.68 5.922 12.562 0 4.48-1.84 8.64-4.801 11.52-2.879 2.96-7.04 4.8-11.52 4.8-4.96 0-9.761-1.761-13.601-4.882l-19.117-16h-.082c-.801-2.32-2.16-4.477-3.84-6.16a17.065 17.065 0 0 0-12-4.958c-4.48 0-8.801 1.758-12 4.957 3.199-3.199 4.96-7.52 4.96-12 0-4.636-1.921-8.957-4.96-12a17.065 17.065 0 0 0-12-4.957c-4.48 0-8.801 1.758-12 4.957 3.199-3.199 4.96-7.52 4.96-12 0-4.636-1.921-8.957-4.96-12a17.065 17.065 0 0 0-12-4.957c-4.48 0-8.801 1.758-12 4.957 3.199-3.199 4.96-7.52 4.96-12 0-4.636-1.921-8.957-4.96-12a17.065 17.065 0 0 0-12-4.957c-4.48 0-8.801 1.758-12 4.957l-14.078 14.082c-2.32 2.32-3.922 5.2-4.563 8.399l-32.398-19.438-5.282-1.52 24.961-87.28 52.32-11.68 6.321-1.36a89.62 89.62 0 0 1 19.598-2.16c9.363 0 18.64 1.438 27.52 4.32l20.562 6.56 16.078 5.12c-6.64 0-13.117 1.52-19.04 4.48l-44.64 22.317c-6.398 3.203-10.398 9.684-10.398 16.801v1.602c0 5.199 2.078 9.918 5.52 13.28 3.359 3.438 8.077 5.52 13.28 5.52 3.438 0 6.72-.96 9.68-2.64l29.758-17.922a24.441 24.441 0 0 1 12.48-3.438c6 0 11.762 2.239 16.16 6.239l67.602 60.8a17.435 17.435 0 0 1 4.078 5.602c.961 2.078 1.442 4.398 1.442 6.719zm0 0" fill="#cf9e76"/><path d="M338.313 295.742l48 72-1.84 1.203-40 24-1.442.64c-.96-2.081-2.32-4-4.078-5.6l-67.601-60.801a24.023 24.023 0 0 0-16.16-6.239c-4.399 0-8.72 1.2-12.481 3.438l-29.758 17.922c-2.96 1.68-6.242 2.64-9.68 2.64-5.203 0-9.921-2.082-13.28-5.52-3.442-3.363-5.52-8.081-5.52-13.28v-1.602c0-7.117 4-13.598 10.398-16.8l44.64-22.317a42.424 42.424 0 0 1 19.04-4.48c3.922 0 7.84.558 11.68 1.597l50.242 14.402h16zm0 0" fill="#f0d0b4"/><path d="M248.473 144.945c8.824 0 16 7.176 16 16h16c0-14.867-10.243-27.289-24-30.867v-17.133h-16v17.133c-13.762 3.578-24 16-24 30.867 0 17.649 14.351 32 32 32 8.824 0 16 7.176 16 16 0 8.825-7.176 16-16 16-8.825 0-16-7.175-16-16h-16c0 14.864 10.238 27.285 24 30.864v17.136h16V239.81c13.757-3.579 24-16 24-30.864 0-17.648-14.352-32-32-32-8.825 0-16-7.175-16-16 0-8.824 7.175-16 16-16zm0 0"/><path d="M480.473 128.945v-32h-144v-16h-16V36l-72-36-72 36v44.945h-16v16h-144v32h-16v229.766l78.703 26.234h15.336l1.914-6.707 24.125 14.473c.394 13.121 10.914 23.672 24.015 24.137.465 13.054 10.946 23.535 24 24 .465 13.054 10.946 23.535 24 24 .465 13.359 11.41 24.097 24.875 24.097a24.84 24.84 0 0 0 14.032-4.328l7.07 6.238a24.345 24.345 0 0 0 16.105 6.09h1.48c13.313 0 24.145-10.761 24.313-24.035 13.168-.168 23.832-10.832 24-24 13.176-.168 23.848-10.847 24-24.023 13.293-.32 24.032-11.184 24.032-24.551 0-.91-.184-1.793-.29-2.695l31.77-19.055 4.238 6.36h13.352l94.93-25.891v-230.11zm-16-16v16h-128v-16zm-272-67.058l56-28 56 28v35.058h-112zm-160 67.058h128v16h-128zm49.297 256l-65.297-21.77v-138.23h5.832l90.168 52.59v2.29L82.44 368.944zM48.473 205.68v-28.735h80v48H81.488zm88 186.297c0-2.403.933-4.649 2.625-6.344l14.062-14.067a8.933 8.933 0 0 1 6.344-2.62c4.945 0 8.969 4.023 8.969 8.964a8.946 8.946 0 0 1-2.625 6.348l-14.063 14.062a8.937 8.937 0 0 1-6.344 2.625c-4.945 0-8.968-4.023-8.968-8.968zm24 24c0-2.403.933-4.649 2.625-6.344l14.062-14.067a8.933 8.933 0 0 1 6.344-2.62c4.945 0 8.969 4.023 8.969 8.964a8.946 8.946 0 0 1-2.625 6.348l-14.063 14.062a8.937 8.937 0 0 1-6.344 2.625c-4.945 0-8.968-4.023-8.968-8.968zm24 24c0-2.403.933-4.649 2.625-6.344l14.062-14.067a8.933 8.933 0 0 1 6.344-2.62c4.945 0 8.969 4.023 8.969 8.964a8.946 8.946 0 0 1-2.625 6.348l-14.063 14.062a8.937 8.937 0 0 1-6.344 2.625c-4.945 0-8.968-4.023-8.968-8.968zm32.968 32.968c-4.945 0-8.968-4.023-8.968-8.968 0-2.403.933-4.649 2.625-6.344l14.062-14.067a8.933 8.933 0 0 1 6.344-2.62c4.945 0 8.969 4.023 8.969 8.964a8.946 8.946 0 0 1-2.625 6.348l-14.063 14.062a8.937 8.937 0 0 1-6.344 2.625zm38.688 8h-1.48a8.36 8.36 0 0 1-5.52-2.09l-5.984-5.28 6.007-6.009c2.176-2.175 3.84-4.703 5.063-7.421l7.25 6.039a8.335 8.335 0 0 1 3.008 6.418c0 4.597-3.746 8.343-8.344 8.343zm71.734-72h-1.383a8.597 8.597 0 0 1-5.503-1.992l-1.25-1.043-.016-.015-42.117-35.094-10.242 12.289 42.12 35.094a8.365 8.365 0 0 1 3 6.418c0 4.597-3.745 8.343-8.343 8.343h-1.738a8.35 8.35 0 0 1-5.344-1.937l-1.32-1.098-.016-.015-42.117-35.094-10.242 12.289 42.12 35.094a8.353 8.353 0 0 1 3 6.418c0 4.597-3.745 8.343-8.343 8.343a13.151 13.151 0 0 1-8.418-3.05l-17.848-14.872c-3.933-8.046-12.015-13.656-21.488-13.992-.465-13.054-10.941-23.535-24-24-.465-13.054-10.941-23.535-24-24-.465-13.351-11.406-24.086-24.871-24.086-6.672 0-12.945 2.598-17.656 7.313l-14.063 14.062c-.848.848-1.547 1.793-2.25 2.735L100.97 362.32l21.543-75.41 54.015-12c14.176-3.14 29.114-2.469 42.922 1.953l11.774 3.77-39.942 19.969c-9.136 4.558-14.808 13.742-14.808 23.957v1.593c0 14.778 12.015 26.793 26.793 26.793 4.855 0 9.62-1.32 13.789-3.824l29.793-17.875c5.953-3.566 14.015-2.797 19.183 1.852l67.602 60.84a8.664 8.664 0 0 1 2.84 6.398 8.61 8.61 0 0 1-8.61 8.61zm17.426-25.824c-.336-.344-.602-.746-.96-1.074l-67.602-60.84c-10.27-9.246-26.32-10.781-38.125-3.672l-29.786 17.863a10.69 10.69 0 0 1-5.55 1.547c-5.954 0-10.793-4.84-10.793-10.793v-1.593c0-4.11 2.289-7.817 5.968-9.657l44.63-22.308c7.656-3.824 16.73-4.664 24.937-2.32l50.273 14.359 16.567.277 40.222 60.348zm135.184-36.289l-81.075 22.113h-2.644l-60.281-90.425 137.695-61.575h6.305zm-32-135.977l-31.696 14.09h-48.304v-48h80zm22.304-9.91l-6.304 2.797v-42.797h-112v80h28.304l-60.304 26.797v15.625l3.718 5.578h-2.597l-49.196-14.058c-3.863-1.102-7.863-1.551-11.878-1.703l-36.192-11.575c-16.496-5.273-34.344-6.09-51.266-2.328l-45.542 10.117.648-2.261.305-14.785-19.551-11.407h35.55v-80h-112v35.407l-5.831-3.407H16.473v-48h144v96h16v-144h144v144h16v-96h144v56zm0 0"/><path d="M240.473 48.945h16v16h-16zm0 0M272.473 48.945h16v16h-16zm0 0M208.473 48.945h16v16h-16zm0 0"/></svg>