<svg height="496pt" viewBox="0 0 496 496" width="496pt" xmlns="http://www.w3.org/2000/svg"><path d="M248 8h208c17.68 0 32 14.32 32 32v96c0 17.68-14.32 32-32 32h-64v48l-88-48h-56c-17.68 0-32-14.32-32-32V40c0-17.68 14.32-32 32-32zm0 0M248 328h-56l-88-48v48H40c-17.68 0-32 14.32-32 32v96c0 17.68 14.32 32 32 32h208c17.68 0 32-14.32 32-32v-96c0-17.68-14.32-32-32-32zm0 0" fill="#e6e9ed"/><path d="M354.32 432.16L376 424c0 6.64 2.719 12.64 7.04 16.96 4.32 4.321 10.32 7.04 16.96 7.04 13.281 0 24-10.719 24-24l21.762 8.16 21.437 8.078C479.762 444.878 488 456.801 488 470.16V488H312v-17.84c0-13.36 8.238-25.281 20.8-29.922zm0 0" fill="#ff826e"/><path d="M136 232H8v-17.84c0-13.36 8.238-25.281 20.8-29.922L72 168l24 32 24-32 43.2 16.238c12.562 4.64 20.8 16.563 20.8 29.922V232zm0 0" fill="#b4dd7f"/><path d="M464 369.36A54.687 54.687 0 0 0 480 408s-2 6-7.04 12C468 426 460 432 448 432c-.719.078-1.52.078-2.238.16L424 424v-16c1.52-1.121 2.96-2.32 4.32-3.68 5.442-5.52 9.36-12.558 10.88-20.398l.8.078c13.281 0 24-10.719 24-24zm0 0M343.04 376.96c4.32 4.321 10.32 7.04 16.96 7.04l.8-.078c1.919 9.758 7.52 18.238 15.2 24.078v16l-21.68 8.16c-.8-.082-1.52-.082-2.32-.16-24 0-32-24-32-24a54.687 54.687 0 0 0 16-38.64V360c0 6.64 2.719 12.64 7.04 16.96zm0 0" fill="#b27946"/><path d="M360 336c-13.281 0-24 10.719-24 24v-32c0-35.36 28.64-64 64-64 17.68 0 33.68 7.2 45.281 18.719C456.801 294.32 464 310.32 464 328v32c0-6.64-2.719-12.64-7.04-16.96-4.32-4.321-10.32-7.04-16.96-7.04zm0 0" fill="#b27946"/><path d="M152.96 87.04C148.64 82.718 142.64 80 136 80c-15.68 0-30.96-4.64-44-13.281L88 64l-4.719 4.719C76.078 75.922 66.238 80 56 80c-6.64 0-12.64 2.719-16.96 7.04C34.718 91.36 32 97.36 32 104V72c0-17.68 7.2-33.68 18.719-45.281C62.32 15.199 78.32 8 96 8c35.36 0 64 28.64 64 64v32c0-6.64-2.719-12.64-7.04-16.96zm0 0" fill="#fcd770"/><g fill="#f0d0b4"><path d="M424 424c0 13.281-10.719 24-24 24-6.64 0-12.64-2.719-16.96-7.04-4.321-4.32-7.04-10.32-7.04-16.96v-16c6.64 5.04 14.96 8 24 8 4.96 0 9.68-.879 24-8zm0 0M464 360c0 13.281-10.719 24-24 24l-.8-.078c.562-2.563.8-5.203.8-7.922v-40c6.64 0 12.64 2.719 16.96 7.04 4.321 4.32 7.04 10.32 7.04 16.96zm0 0"/><path d="M440 336v40c0 2.719-.238 5.36-.8 7.922-1.52 7.84-5.438 14.879-10.88 20.398-1.36 1.36-2.8 2.559-4.32 3.68-14.32 7.121-19.04 8-24 8-9.04 0-17.36-2.96-24-8-7.68-5.84-13.281-14.32-15.2-24.078-.562-2.563-.8-5.203-.8-7.922v-40zm0 0"/><path d="M360 384c-6.64 0-12.64-2.719-16.96-7.04-4.321-4.32-7.04-10.32-7.04-16.96 0-13.281 10.719-24 24-24v40c0 2.719.238 5.36.8 7.922zm0 0M96 160c4.96 0 9.68-.879 24-8v16l-24 32-24-32v-16c6.64 5.04 14.96 8 24 8zm0 0M152.96 120.96c-4.32 4.321-10.32 7.04-16.96 7.04l-.8-.078c.562-2.563.8-5.203.8-7.922V80c6.64 0 12.64 2.719 16.96 7.04C157.282 91.36 160 97.36 160 104s-2.719 12.64-7.04 16.96zm0 0"/><path d="M136 80v40c0 2.719-.238 5.36-.8 7.922-1.52 7.84-5.438 14.879-10.88 20.398-1.36 1.36-2.8 2.559-4.32 3.68-14.32 7.121-19.04 8-24 8-9.04 0-17.36-2.96-24-8-7.68-5.84-13.281-14.32-15.2-24.078-.562-2.563-.8-5.203-.8-7.922V80c10.238 0 20.078-4.078 27.281-11.281L88 64l4 2.719C105.04 75.359 120.32 80 136 80zm0 0"/><path d="M56 120c0 2.719.238 5.36.8 7.922L56 128c-13.281 0-24-10.719-24-24 0-6.64 2.719-12.64 7.04-16.96C43.36 82.718 49.36 80 56 80zm0 0"/></g><path d="M192 214.176c0-16.582-10.434-31.633-25.953-37.457L128 162.457v-6.777c6.055-5.434 10.719-12.36 13.398-20.223C156.473 132.871 168 119.793 168 104V72c0-39.695-32.297-72-72-72S24 32.305 24 72v32c0 15.793 11.527 28.871 26.602 31.457 2.68 7.856 7.343 14.781 13.398 20.223v6.777l-38.04 14.262C10.435 182.543 0 197.594 0 214.176V240h192zM96 152c-17.648 0-32-14.352-32-32V87.258c9.375-1.656 18.191-6.137 24.969-12.914l.062-.063c11.793 7.535 25.121 11.88 38.969 13.153V120c0 17.648-14.352 32-32 32zm48-34.223V90.23c4.762 2.778 8 7.883 8 13.778 0 5.894-3.238 10.992-8 13.77zM96 16c30.871 0 56 25.121 56 56v4.45c-4.727-2.755-10.145-4.45-16-4.45a71.076 71.076 0 0 1-39.527-11.969l-9.489-6.328-9.328 9.328C71.953 68.727 64.062 72 56 72c-5.855 0-11.273 1.695-16 4.45V72c0-30.879 25.129-56 56-56zm-56 88c0-5.895 3.238-11 8-13.777v27.547c-4.762-2.77-8-7.875-8-13.77zm56 64c5.617 0 10.984-1.023 16-2.8v.136l-16 21.336-16-21.336v-.137C85.016 166.977 90.383 168 96 168zm80 56h-32v-16h-16v16H64v-16H48v16H16v-9.824c0-9.953 6.258-18.977 15.574-22.473L69.2 177.602 96 213.336l26.8-35.734 37.626 14.109c9.316 3.488 15.574 12.512 15.574 22.465zm0 0M470.672 433.008c12.055-8.457 16.648-21.664 16.914-22.48l1.566-4.696-3.504-3.496C476.977 393.664 472 381.648 472 369.375V328c0-39.703-32.297-72-72-72s-72 32.297-72 72v41.375c0 12.273-4.977 24.29-13.656 32.969l-3.504 3.496 1.566 4.695c.274.817 4.875 14.082 16.824 22.52-15.101 6.023-25.23 20.816-25.23 37.12V496h192v-25.824c0-16.344-10.168-31.168-25.328-37.168zM432 418.457v-6.777c6.055-5.434 10.719-12.36 13.398-20.223 4.754-.816 9.145-2.64 12.946-5.305 2.383 8.512 6.52 16.512 12.199 23.336-3.04 5.48-10.04 14.52-23.129 14.535l-.469.032zm-64 0l-14.96 5.606L352 424c-12.672 0-19.55-9.04-22.55-14.496 5.679-6.832 9.823-14.832 12.206-23.352 3.793 2.672 8.192 4.496 12.946 5.313 2.68 7.848 7.343 14.773 13.398 20.215zm80-44.68V346.23c4.762 2.778 8 7.883 8 13.778 0 5.894-3.238 10.992-8 13.77zM400 408c-17.648 0-32-14.352-32-32v-32h64v32c0 17.648-14.352 32-32 32zm-48-34.223c-4.762-2.777-8-7.882-8-13.777s3.238-11 8-13.777zm32 47.422c5.016 1.785 10.383 2.801 16 2.801s10.984-1.023 16-2.8v2.8c0 8.824-7.176 16-16 16s-16-7.176-16-16zM400 272c30.871 0 56 25.129 56 56v4.45c-4.727-2.755-10.145-4.45-16-4.45h-80c-5.855 0-11.273 1.695-16 4.45V328c0-30.871 25.129-56 56-56zm80 208h-32v-16h-16v16h-64v-16h-16v16h-32v-9.824c0-9.953 6.258-18.985 15.574-22.48L370 434.785C374.457 447.12 386.16 456 400 456s25.543-8.879 29.992-21.207l14.313 5.367.007.113.247-.015 19.867 7.445c9.316 3.488 15.574 12.52 15.574 22.473zm0 0M264 64c4.414 0 8 3.594 8 8h16c0-10.414-6.71-19.215-16-22.527V32h-16v17.473c-9.29 3.312-16 12.113-16 22.527 0 13.23 10.77 24 24 24 4.414 0 8 3.594 8 8s-3.586 8-8 8-8-3.594-8-8h-16c0 10.414 6.71 19.215 16 22.527V144h16v-17.473c9.29-3.312 16-12.113 16-22.527 0-13.23-10.77-24-24-24-4.414 0-8-3.594-8-8s3.586-8 8-8zm0 0"/><path d="M456 0H248c-22.055 0-40 17.945-40 40v96c0 22.055 17.945 40 40 40h53.96L400 229.48V176h56c22.055 0 40-17.945 40-40V40c0-22.055-17.945-40-40-40zm24 136c0 13.23-10.77 24-24 24h-72v42.52L306.04 160H248c-13.23 0-24-10.77-24-24V40c0-13.23 10.77-24 24-24h208c13.23 0 24 10.77 24 24zm0 0M248 320h-53.96L96 266.52V320H40c-22.055 0-40 17.945-40 40v96c0 22.055 17.945 40 40 40h208c22.055 0 40-17.945 40-40v-96c0-22.055-17.945-40-40-40zm24 136c0 13.23-10.77 24-24 24H40c-13.23 0-24-10.77-24-24v-96c0-13.23 10.77-24 24-24h72v-42.52L189.96 336H248c13.23 0 24 10.77 24 24zm0 0"/><path d="M32 352h16v16H32zm0 0M64 352h16v16H64zm0 0M96 352h160v16H96zm0 0M32 384h224v16H32zm0 0M32 416h224v16H32zm0 0M240 448h16v16h-16zm0 0M32 448h192v16H32zm0 0M304 32h160v16H304zm0 0M304 64h160v16H304zm0 0M352 96h112v16H352zm0 0M304 96h32v16h-32zm0 0M304 128h128v16H304zm0 0M448 128h16v16h-16zm0 0"/></svg>