<svg height="496pt" viewBox="0 0 496 496" width="496pt" xmlns="http://www.w3.org/2000/svg"><path d="M440 456h-48v-64h-40l32-40 69.281 20C473.84 377.922 488 396.719 488 418.078V456zm0 0M264 456h-48v-37.922c0-21.36 14.16-40.156 34.719-46.078L320 352l32 40h-40v64zm0 0" fill="#b4dd7f"/><path d="M232 344h-48v-64h-40l32-40 69.281 20c7.117 2.078 13.52 5.602 18.719 10.398V272c0 8.8 3.602 16.8 9.36 22.64a29.398 29.398 0 0 0 6.16 4.72c.32 2.242.48 4.48.48 6.718V344zm0 0M56 344H8v-37.922c0-21.36 14.16-40.156 34.719-46.078l13.36-3.84L112 240l32 40h-40v64zm0 0" fill="#ff826e"/><path d="M296 240c-17.2 0-31.2 13.52-31.922 30.48 0 0 0-.082-.078-.082V208c0-48.64 39.36-88 88-88 24.32 0 46.32 9.84 62.238 25.762C430.16 161.68 440 183.68 440 208v64c0-8.8-3.602-16.8-9.36-22.64C424.8 243.601 416.8 240 408 240l-2.64-8c-3.2-9.52-12.16-16-22.239-16-4.64 0-9.2 1.36-13.043 3.922-5.437 3.68-11.758 5.52-18.078 5.52s-12.64-1.84-18.078-5.52c-3.844-2.563-8.402-3.922-13.043-3.922-10.078 0-19.04 6.48-22.238 16zm0 0M232 161.36c0 25.28 11.602 49.038 31.121 64.48H264v44.558c-5.2-4.796-11.602-8.32-18.719-10.398L176 240v-26.078c2.719-1.844 5.281-4 7.602-6.32 4.476-4.48 8.238-9.762 10.957-15.602H200c17.68 0 32-14.32 32-32zm0 0M65.36 182.64C71.2 188.399 79.2 192 88 192h5.441A54.89 54.89 0 0 0 112 213.922V240l-55.922 16.16L56 256c-12 0-22-6-28.96-12C20 238 16 232 16 232a82.371 82.371 0 0 0 40-70.64V160c0 8.8 3.602 16.8 9.36 22.64zm0 0M232 96v64c0-8.8-3.602-16.8-9.36-22.64C216.8 131.601 208.8 128 200 128v-16c-10.078 0-19.84-2.398-28.64-6.8-8.801-4.4-16.481-10.802-22.56-18.802L144 80l-4.8 6.398C127.12 102.48 108.16 112 88 112v16c-17.68 0-32 14.32-32 32V96c0-48.64 39.36-88 88-88 24.32 0 46.32 9.84 62.238 25.762C222.16 49.68 232 71.68 232 96zm0 0" fill="#b27946"/><g fill="#f0d0b4"><path d="M320 325.922C329.04 332.32 340.078 336 352 336s22.96-3.68 32-10.078V352l-32 40-32-40zm0 0"/><path d="M408 240.398V280c0 8.559-1.922 16.719-5.441 24-2.72 5.84-6.48 11.121-10.957 15.602-2.32 2.32-4.883 4.476-7.602 6.32C374.96 332.32 363.922 336 352 336s-22.96-3.68-32-10.078A54.89 54.89 0 0 1 301.441 304c-3.52-7.281-5.441-15.36-5.441-24v-40l2.64-8c3.2-9.52 12.16-16 22.239-16 4.64 0 9.2 1.36 13.043 3.922 5.437 3.68 11.758 5.52 18.078 5.52s12.64-1.84 18.078-5.52c3.844-2.563 8.402-3.922 13.043-3.922 10.078 0 19.04 6.48 22.238 16l2.641 8zm0 0"/><path d="M430.64 249.36C436.399 255.2 440 263.2 440 272c0 17.68-14.32 32-32 32h-5.441c3.52-7.281 5.441-15.441 5.441-24v-40c8.8 0 16.8 3.602 22.64 9.36zm0 0M264.078 270.48C264.801 253.52 278.801 240 296 240v40c0 8.64 1.922 16.719 5.441 24H296c-6 0-11.68-1.68-16.48-4.64a29.398 29.398 0 0 1-6.16-4.72C267.601 288.8 264 280.8 264 272c0-.48 0-1.04.078-1.52zm0 0M112 213.922C121.04 220.32 132.078 224 144 224s22.96-3.68 32-10.078V240l-32 40-32-40zm0 0M222.64 137.36C228.399 143.2 232 151.2 232 160c0 17.68-14.32 32-32 32h-5.441c3.52-7.281 5.441-15.441 5.441-24v-40c8.8 0 16.8 3.602 22.64 9.36zm0 0"/><path d="M200 128.398V168c0 8.559-1.922 16.719-5.441 24-2.72 5.84-6.48 11.121-10.957 15.602-2.32 2.32-4.883 4.476-7.602 6.32C166.96 220.32 155.922 224 144 224s-22.96-3.68-32-10.078A54.89 54.89 0 0 1 93.441 192C89.921 184.719 88 176.64 88 168v-56c20.16 0 39.121-9.52 51.2-25.602L144 80l4.8 6.398c6.079 8 13.759 14.403 22.56 18.801 8.8 4.403 18.562 6.801 28.64 6.801zm0 0"/><path d="M93.441 192H88c-8.8 0-16.8-3.602-22.64-9.36C59.601 176.8 56 168.8 56 160c0-17.68 14.32-32 32-32v40c0 8.64 1.922 16.719 5.441 24zm0 0"/></g><path d="M392 456v32h-80v-96h80zm0 0M184 344v32h-80v-96h80zm0 0" fill="#fcd770"/><path d="M496 418.113c0-24.808-16.648-46.922-40.48-53.808L392 345.985v-16.106c6.16-4.942 11.352-11.016 15.344-17.879H408c22.055 0 40-17.945 40-40v-64c0-52.938-43.063-96-96-96-52.762 0-95.695 42.793-95.977 95.496C245.711 194.504 240 178.375 240 161.352V96c0-52.938-43.063-96-96-96S48 43.062 48 96v65.352c0 25.976-13.84 50.425-36.121 63.793l-7.191 4.312 4.656 6.984c.488.727 8.207 12.04 21.16 19.942C12.168 265.848 0 284.96 0 306.113V352h96v32h96v-32h96v-40.809c2.586.528 5.266.809 8 .809h.656c3.985 6.863 9.184 12.937 15.344 17.879v16.105l-63.52 18.32c-23.832 6.88-40.48 29-40.48 53.81V464h96v32h96v-32h96zm-81.879-123C415.305 290.258 416 285.215 416 280v-30.527c9.29 3.312 16 12.113 16 22.527 0 11.105-7.617 20.383-17.879 23.113zM352 128c44.113 0 80 35.887 80 80v32.145c-5.207-3.938-11.352-6.704-18.09-7.704l-.972-2.937A31.414 31.414 0 0 0 383.098 208a31.358 31.358 0 0 0-17.442 5.281 24.566 24.566 0 0 1-27.312 0A31.358 31.358 0 0 0 320.902 208a31.404 31.404 0 0 0-29.832 21.504l-.972 2.937c-6.746 1-12.883 3.774-18.09 7.704V208C272 163.887 307.887 128 352 128zm-96 102.2v25.417c-2.742-1.305-5.559-2.472-8.48-3.312L184 233.985v-16.106c6.16-4.942 11.352-11.016 15.344-17.879H200c10.992 0 20.96-4.465 28.2-11.672 5.03 16.168 14.554 30.649 27.8 41.871zm-88 6.991l-24 30-24-30v-9.902c7.414 3.016 15.512 4.711 24 4.711s16.586-1.695 24-4.71zM96 136v-16.457c18.703-2.117 36.098-11.574 48-26.297 11.902 14.723 29.297 24.18 48 26.297V168c0 26.473-21.527 48-48 48s-48-21.527-48-48zm110.121 47.113C207.305 178.258 208 173.215 208 168v-30.527c9.29 3.312 16 12.113 16 22.527 0 11.105-7.617 20.383-17.879 23.113zM144 16c44.113 0 80 35.887 80 80v32.191c-4.672-3.535-10.055-6.175-16-7.382V104h-8c-17.527 0-34.281-8.375-44.8-22.406L144 66.672l-11.2 14.93C122.282 95.625 105.528 104 88 104h-8v16.809c-5.945 1.207-11.328 3.847-16 7.382V96c0-44.113 35.887-80 80-80zM80 137.473V168c0 5.215.695 10.258 1.879 15.113C71.617 180.383 64 171.105 64 160c0-10.414 6.71-19.215 16-22.527zm-20.297 50.765C66.953 195.504 76.961 200 88 200h.656c3.985 6.863 9.184 12.937 15.344 17.879v16.105l-48.465 13.977c-12.137-.207-22.086-8.313-27.758-14.258 15.23-11.437 26.278-27.496 31.926-45.465zM64 336v-32H48v32H16v-29.887c0-17.715 11.887-33.511 28.91-38.433l64.168-18.512L127.352 272H96v64zm112 32h-64v-80h64zm96-61.887V336h-32v-32h-16v32h-32v-64h-31.352l18.274-22.832 64.176 18.512c4.75 1.367 9.214 3.656 13.14 6.648.707 11.961 6.625 22.457 15.594 29.32.047.825.168 1.633.168 2.465zM272 272c0-10.414 6.71-19.215 16-22.527V280c0 5.215.695 10.258 1.879 15.113C279.617 292.383 272 283.105 272 272zm32 8v-38.703l2.246-6.738c2.106-6.32 8-10.559 14.656-10.559 3.067 0 6.028.895 8.57 2.594 13.688 9.125 31.368 9.125 45.063 0a15.321 15.321 0 0 1 8.563-2.594c6.664 0 12.55 4.238 14.656 10.559l2.246 6.738V280c0 26.473-21.527 48-48 48s-48-21.527-48-48zm48 64a63.56 63.56 0 0 0 24-4.71v9.901l-24 30-24-30v-9.902A63.56 63.56 0 0 0 352 344zm-80 104v-32h-16v32h-32v-29.887c0-17.715 11.887-33.511 28.91-38.433l64.168-18.512L335.352 384H304v64zm112 32h-64v-80h64zm96-32h-32v-32h-16v32h-32v-64h-31.352l18.274-22.832 64.168 18.512c17.023 4.914 28.91 20.718 28.91 38.433zm0 0"/><path d="M336 416h32v16h-32zm0 0M336 448h32v16h-32zm0 0M128 304h32v16h-32zm0 0M128 336h32v16h-32zm0 0"/></svg>