<svg height="496pt" viewBox="0 0 496 496" width="496pt" xmlns="http://www.w3.org/2000/svg"><path d="M232 80.96V160c0-6.64-2.719-12.64-7.04-16.96-4.32-4.321-10.32-7.04-16.96-7.04h-8v-16h-.238c-12.883 0-25.684-2.16-37.84-6.238-12.082-4-23.524-10-33.922-17.762l-2.8 4.16c-4.16 6.238-9.68 11.2-16.079 14.559C102.72 118.16 95.52 120 88 120v16h-8c-13.281 0-24 10.719-24 24V87.2C56 43.44 91.441 8 135.2 8c10.48 0 20.8 2.078 30.241 6 9.598 3.922 18.32 9.762 25.758 17.2L200 40c9.441 2.398 17.441 7.762 23.04 14.96 5.679 7.278 8.96 16.321 8.96 26zm0 0" fill="#fcd770"/><g fill="#f0d0b4"><path d="M112 240v-26.078c22.559 9.52 27.2 10.078 32 10.078 11.922 0 22.96-3.68 32-10.078V240l-32 32zm0 0"/><path d="M200 136v32c0 5.602-.8 10.96-2.32 16-3.68 12.32-11.36 22.8-21.68 29.922C166.96 220.32 155.922 224 144 224c-4.8 0-9.441-.559-32-10.078-2.719-1.844-5.281-4-7.602-6.32-6.476-6.48-11.437-14.563-14.078-23.602-1.52-5.04-2.32-10.398-2.32-16v-48c7.52 0 14.719-1.84 21.121-5.281 6.399-3.36 11.918-8.32 16.078-14.559L128 96c10.398 7.762 21.84 13.762 33.922 17.762 12.156 4.078 24.957 6.238 37.84 6.238H200zm0 0"/><path d="M90.32 184H80c-6.64 0-12.64-2.719-16.96-7.04C58.718 172.64 56 166.64 56 160c0-13.281 10.719-24 24-24h8v32c0 5.602.8 10.96 2.32 16zm0 0M224.96 143.04c4.321 4.32 7.04 10.32 7.04 16.96 0 13.281-10.719 24-24 24h-10.32c1.52-5.04 2.32-10.398 2.32-16v-32h8c6.64 0 12.64 2.719 16.96 7.04zm0 0"/></g><path d="M248 336v56l-16-8h-64l-16-64 23.121-23.121L184 304l16-56 .32-.96L245.281 260c9.117 2.64 16.88 7.762 22.797 14.48l-60.316 40.079a18.211 18.211 0 0 0-7.762 14.96v4.243c0 5.039 2.078 9.597 5.36 12.879S213.2 352 218.237 352c3.762 0 7.442-1.2 10.48-3.36l19.204-12.8zm0 0M80 384c-6.64 0-12.64 2.719-16.96 7.04C58.718 395.36 56 401.36 56 408H8V306.078c0-21.36 14.16-40.156 34.719-46.078l44.96-12.96.321.96 16 56 8.879-7.121L136 320l-16 64zm0 0" fill="#e6e9ed"/><path d="M175.121 296.879L144 272l32-32 24.32 7.04-.32.96-16 56zm0 0M112.879 296.879L104 304l-16-56-.32-.96L112 240l32 32zm0 0" fill="#aab2bd"/><path d="M152 320l16 64h-48l16-64zm0 0M175.121 296.879L152 320h-16l-23.121-23.121L144 272zm0 0M488 329.52v4.242C488 343.84 479.84 352 469.762 352c-3.762 0-7.442-1.2-10.48-3.36l-19.204-12.8-36.957-24.559L344 272l-96.078 63.84-19.203 12.8a18.154 18.154 0 0 1-10.48 3.36c-5.04 0-9.598-2.078-12.88-5.36S200 338.8 200 333.763v-4.242c0-6 2.879-11.52 7.762-14.961l60.316-40.079L344 224l136.238 90.559a18.211 18.211 0 0 1 7.762 14.96zm0 0" fill="#ff826e"/><path d="M403.121 311.281L344 272l-96.078 63.84.078.16v56l32 16v-48h128v96H280v-48l-32 16v64h192V336l.078-.16zm0 0" fill="#e6e9ed"/><path d="M104 384v48H80c-13.281 0-24-10.719-24-24 0-6.64 2.719-12.64 7.04-16.96C67.36 386.718 73.36 384 80 384zm0 0" fill="#aab2bd"/><path d="M120 384h112v48H104v-48zm0 0" fill="#fcd770"/><path d="M280 408l-48 24v-48zm0 0" fill="#969faa"/><path d="M370.64 360H408v96H280v-96zm0 0" fill="#b4dd7f"/><path d="M484.656 307.895L344 214.39l-74.938 49.816c-6.207-5.496-13.519-9.59-21.542-11.902L184 233.985v-16.106A64.218 64.218 0 0 0 203.29 192H208c17.648 0 32-14.352 32-32V80.984a50.173 50.173 0 0 0-35.832-48.136l-7.313-7.313C180.383 9.07 158.488 0 135.191 0 87.121 0 48 39.121 48 87.191V160c0 17.648 14.352 32 32 32h4.71A64.218 64.218 0 0 0 104 217.879v16.105l-63.52 18.32c-23.832 6.88-40.48 29-40.48 53.81V416h49.137C52.71 429.77 65.129 440 80 440h153.887l6.113-3.055V496h208V350.777l6.762 4.496A26.085 26.085 0 0 0 469.785 360C484.238 360 496 348.238 496 333.785v-4.297c0-8.558-4.184-16.593-11.344-21.593zm-229.61-34.368l-51.862 34.48c-7 4.888-11.184 12.923-11.184 21.481v4.297C192 348.238 203.762 360 218.215 360c5.45 0 10.672-1.656 14.937-4.672l6.848-4.55v28.277L233.887 376h-59.649l-13.383-53.543 14.848-14.848 12.688 10.153 17.386-60.852 37.32 10.77c4.317 1.25 8.317 3.28 11.95 5.847zM224 392v32H112v-32zm-80-109.754l19.137 15.305L148.687 312h-9.375l-14.449-14.45zM142.246 328h3.516l12 48h-27.524zM240 419.055v-22.11L262.113 408zM190.398 252.48l-10.789 37.766-23.632-18.902L178.32 249zM208 176h-.55c.327-2.625.55-5.29.55-8v-24c8.824 0 16 7.176 16 16s-7.176 16-16 16zM135.191 16c19.016 0 36.899 7.406 50.344 20.848l10.367 10.375 2.16.53A34.201 34.201 0 0 1 224 80.985v51.465c-4.727-2.754-10.145-4.449-16-4.449v-8l-.207-7.977-7.977-.023c-24.007-.063-47.808-8.023-67.015-22.406l-6.746-5.051-7.489 11.152A36.755 36.755 0 0 1 88 112h-8v16c-5.855 0-11.273 1.695-16 4.45V87.19C64 47.937 95.938 16 135.191 16zM80 176c-8.824 0-16-7.176-16-16s7.176-16 16-16v24c0 2.71.223 5.375.55 8zm16-8v-40.61a52.668 52.668 0 0 0 34.031-20.222c18.465 12.008 39.977 19.152 61.969 20.566V168c0 26.473-21.527 48-48 48s-48-21.527-48-48zm48 64a63.56 63.56 0 0 0 24-4.71v9.398l-24 24-24-24v-9.399A63.56 63.56 0 0 0 144 232zm-34.32 16.992l22.343 22.344-23.632 18.902L97.6 252.48zM49.137 400H16v-93.887c0-17.715 11.887-33.511 28.91-38.433l37.313-10.77 17.386 60.844 12.688-10.152 14.848 14.847L113.762 376H80v-32H64v36.45c-7.273 4.245-12.695 11.206-14.863 19.55zM64 408c0-8.824 7.176-16 16-16h16v32H80c-8.824 0-16-7.176-16-16zm368 72H256v-51.055L297.887 408 256 387.055v-46.918l88-58.528 88 58.528zm48-146.215c0 5.63-4.586 10.215-10.215 10.215-2.12 0-4.16-.648-5.898-1.871L344 262.39l-119.879 79.738a10.245 10.245 0 0 1-5.906 1.871c-5.63 0-10.215-4.586-10.215-10.215v-4.297c0-3.328 1.625-6.465 4.2-8.258L344 233.61l131.64 87.511a10.2 10.2 0 0 1 4.36 8.367zm0 0"/><path d="M272 352v32h16v-16h67.719l-28.957 43.45-17.106-17.106-11.312 11.312 30.894 30.895L374.945 368H400v80H288v-16h-16v32h144V352h-30.383l13.04-19.559-13.313-8.882L366.383 352zm0 0"/></svg>