<svg xmlns="http://www.w3.org/2000/svg" height="512pt" viewBox="0 0 512 512" width="512pt"><path d="M456.832 0H55.164C24.746 0 0 24.746 0 55.168v401.664C0 487.254 24.746 512 55.164 512h401.668C487.254 512 512 487.254 512 456.832V55.168C512 24.746 487.254 0 456.832 0zm0 0" fill="#005ab1"/><path d="M456.832 0H255.996v512h200.836C487.254 512 512 487.254 512 456.832V55.168C512 24.746 487.254 0 456.832 0zm0 0" fill="#00345c"/><path d="M400.602 447.734H111.398c-8.285 0-15-6.718-15-15 0-8.285 6.715-15 15-15h289.204c8.28 0 15 6.715 15 15 0 8.282-6.72 15-15 15zm0 0M336.332 383.469H175.664c-8.281 0-15-6.719-15-15 0-8.285 6.719-15 15-15h160.668c8.281 0 15 6.715 15 15 0 8.281-6.719 15-15 15zm0 0" fill="#ebf6ff"/><path d="M432.73 64.27H79.27c-8.286 0-15 6.714-15 15V304.2c0 8.284 6.714 15 15 15h353.464c8.282 0 15-6.716 15-15V79.27c-.004-8.286-6.718-15-15.004-15zm0 0" fill="#fdf3f4"/><path d="M432.73 64.27H255.996V319.2H432.73c8.286 0 15-6.716 15-15V79.27c0-8.286-6.714-15-15-15zm0 0" fill="#daecf0"/><path d="M442.055 295.645L332.585 137.98a14.99 14.99 0 0 0-12.276-6.445h-.043a14.999 14.999 0 0 0-12.274 6.38l-56.875 80.976a14.995 14.995 0 0 0-1.18 15.254l37.81 76.69a15.002 15.002 0 0 0 13.452 8.364h128.535a14.99 14.99 0 0 0 13.29-8.047 15.006 15.006 0 0 0-.97-15.507zm0 0" fill="#00b44b"/><path d="M314.652 297.566L205.188 75.633a15.002 15.002 0 0 0-26.907 0L68.812 297.566A14.996 14.996 0 0 0 82.267 319.2h218.933a15 15 0 0 0 13.453-21.633zm0 0" fill="#80d398"/><path d="M400.602 417.734H255.996v30h144.606c8.28 0 15-6.718 15-15 0-8.285-6.72-15-15-15zm0 0M351.332 368.469c0-8.285-6.719-15-15-15h-80.336v30h80.336c8.281 0 15-6.719 15-15zm0 0" fill="#b2dcff"/></svg>