<svg xmlns="http://www.w3.org/2000/svg" height="512pt" viewBox="0 0 512 512" width="512pt"><path d="M119.434 417.734H55.168C24.746 417.734 0 438.88 0 464.867V497c0 8.285 6.715 15 15 15h144.602c8.28 0 15-6.715 15-15v-32.133c0-25.988-24.75-47.133-55.168-47.133zm0 0" fill="#ebf6ff"/><path d="M456.836 417.734h-64.27c-30.418 0-55.164 21.145-55.164 47.133V497c0 8.285 6.715 15 15 15H497c8.281 0 15-6.715 15-15v-32.133c0-25.988-24.746-47.133-55.164-47.133zm0 0" fill="#b2dcff"/><path d="M312.23 401.668H199.77c-30.422 0-55.168 24.746-55.168 55.168V497c0 8.285 6.714 15 15 15h192.796c8.286 0 15-6.715 15-15v-40.164c0-30.422-24.746-55.168-55.168-55.168zm0 0" fill="#73bcff"/><path d="M312.23 401.668H256V512h96.398c8.286 0 15-6.715 15-15v-40.164c0-30.422-24.746-55.168-55.168-55.168zm0 0" fill="#0095ff"/><path d="M320.27 273.133H191.734c-8.285 0-15 6.719-15 15v96.402c0 25.988 21.145 47.133 47.133 47.133 12.406 0 23.707-4.82 32.133-12.684 8.426 7.864 19.727 12.684 32.137 12.684 25.984 0 47.133-21.145 47.133-47.133v-96.402c0-8.281-6.72-15-15-15zm0 0" fill="#005ab1"/><path d="M320.27 273.133H256v145.855-.004c8.426 7.864 19.727 12.684 32.137 12.684 25.984 0 47.133-21.145 47.133-47.133v-96.398c0-8.285-6.72-15.004-15-15.004zm0 0" fill="#005ab1"/><path d="M433.93 42.727c-8.903-8.903-20.739-13.805-33.328-13.805-12.59 0-24.426 4.902-33.329 13.805l-81.687 81.687h-59.172L144.73 42.727c-8.902-8.903-20.742-13.805-33.332-13.805S86.973 33.824 78.07 42.727c-8.898 8.902-13.804 20.738-13.804 33.328 0 12.59 4.902 24.425 13.804 33.328l98.664 98.664v80.086c0 8.285 6.715 15 15 15h128.532c8.285 0 15-6.715 15-15v-80.086l98.66-98.664c8.902-8.903 13.808-20.738 13.808-33.328 0-12.59-4.906-24.426-13.804-33.328zm0 0" fill="#80d398"/><path d="M433.93 42.727c-8.903-8.903-20.739-13.805-33.328-13.805-12.59 0-24.426 4.902-33.329 13.805l-81.687 81.687H256v178.723h64.27c8.28 0 15-6.719 15-15v-80.09l98.66-98.664c8.898-8.903 13.804-20.738 13.804-33.328 0-12.59-4.906-24.426-13.804-33.328zm0 0" fill="#00b44b"/><path d="M256 0c-42.57 0-77.203 34.637-77.203 77.207 0 42.57 34.633 77.207 77.203 77.207s77.203-34.637 77.203-77.207C333.203 34.637 298.57 0 256 0zm0 0" fill="#ffcebf"/><path d="M333.203 77.207C333.203 34.637 298.57 0 256 0v154.414c42.57 0 77.203-34.637 77.203-77.207zm0 0" fill="#ffa78f"/></svg>