<svg xmlns="http://www.w3.org/2000/svg" height="512pt" viewBox="0 0 512 512" width="512pt"><path d="M452.45 116.36C480.503 155.757 497 203.95 497 256c0 133.102-107.898 241-241 241S15 389.102 15 256 122.898 15 256 15c52.05 0 100.242 16.5 139.64 44.555" fill="#fff4d8"/><path d="M452.45 116.36l-56.81-56.805C356.247 31.5 308.05 15 256 15v482c133.102 0 241-107.898 241-241 0-52.05-16.496-100.242-44.55-139.64zm0 0" fill="#ffd864"/><path d="M256 512c-68.383 0-132.668-26.629-181.02-74.98C26.63 388.668 0 324.379 0 256S26.629 123.332 74.98 74.98C123.332 26.63 187.621 0 256 0c53.559 0 104.852 16.367 148.344 47.336 6.746 4.805 8.32 14.172 3.515 20.918-4.804 6.75-14.171 8.32-20.918 3.52C348.563 44.444 303.285 30 256 30 131.383 30 30 131.383 30 256s101.383 226 226 226 226-101.383 226-226c0-47.285-14.445-92.566-41.773-130.941-4.805-6.746-3.23-16.114 3.52-20.918 6.745-4.805 16.112-3.23 20.917 3.515C495.633 151.145 512 202.441 512 256c0 68.379-26.629 132.668-74.98 181.02C388.668 485.37 324.383 512 256 512zm0 0" fill="#bb5d4c"/><path d="M386.941 71.773c6.747 4.805 16.114 3.23 20.918-3.52 4.805-6.745 3.23-16.112-3.515-20.917C360.855 16.367 309.559 0 256 0v30c47.285 0 92.563 14.445 130.941 41.773zm0 0M464.664 107.656c-4.805-6.746-14.172-8.32-20.918-3.515-6.75 4.804-8.32 14.171-3.52 20.918C467.556 163.434 482 208.715 482 256c0 124.617-101.383 226-226 226v30c68.383 0 132.668-26.629 181.02-74.98C485.37 388.668 512 324.379 512 256c0-53.559-16.367-104.855-47.336-148.344zm0 0" fill="#a44f3e"/><path d="M256 431.668c-96.863 0-175.664-78.805-175.664-175.668S159.136 80.332 256 80.332c96.863 0 175.668 78.805 175.668 175.668S352.863 431.668 256 431.668zm0-321.336c-80.32 0-145.664 65.348-145.664 145.668 0 80.32 65.344 145.668 145.664 145.668S401.668 336.32 401.668 256c0-80.32-65.344-145.668-145.668-145.668zm0 0" fill="#ff6194"/><path d="M401.668 256c0 80.32-65.348 145.668-145.668 145.668v30c96.863 0 175.668-78.805 175.668-175.668S352.863 80.332 256 80.332v30c80.324 0 145.668 65.348 145.668 145.668zm0 0" fill="#ff39b1"/><path d="M256 160.668c-52.566 0-95.332 42.766-95.332 95.332 0 52.566 42.766 95.332 95.332 95.332 52.566 0 95.336-42.766 95.336-95.332 0-52.566-42.77-95.332-95.336-95.332zm0 0" fill="#ff6194"/><path d="M351.336 256c0-52.566-42.77-95.332-95.336-95.332v190.664c52.566 0 95.336-42.766 95.336-95.332zm0 0" fill="#ff39b1"/><path d="M15 512c-3.84 0-7.68-1.465-10.605-4.395-5.86-5.855-5.86-15.355 0-21.21l70.585-70.59c5.86-5.856 15.356-5.856 21.215 0 5.86 5.86 5.86 15.355 0 21.215l-70.59 70.585A14.941 14.941 0 0 1 15 512zm0 0" fill="#bb5d4c"/><path d="M497 512c-3.84 0-7.68-1.465-10.605-4.395l-70.586-70.585c-5.86-5.856-5.86-15.356 0-21.215 5.855-5.856 15.351-5.856 21.214 0l70.582 70.59c5.86 5.855 5.86 15.355 0 21.21A14.941 14.941 0 0 1 497 512zm0 0" fill="#a44f3e"/><path d="M256 256l141.594-141.594M256 271c-3.84 0-7.68-1.465-10.605-4.395-5.86-5.855-5.86-15.355 0-21.21L386.988 103.8c5.856-5.86 15.356-5.86 21.211 0 5.86 5.855 5.86 15.355 0 21.21L266.605 266.606A14.941 14.941 0 0 1 256 271zm0 0" fill="#27d9f7"/><path d="M511.598 68.36a14.996 14.996 0 0 0-9.856-10.786l-35.484-11.832-11.828-35.484A15.01 15.01 0 0 0 443.645.402a15.01 15.01 0 0 0-14.055 3.993l-56.805 56.804a15 15 0 0 0-3.625 15.352l14.203 42.601a15.006 15.006 0 0 0 9.485 9.489l42.601 14.203a14.998 14.998 0 0 0 15.352-3.625l56.804-56.805a14.995 14.995 0 0 0 3.993-14.055zm0 0" fill="#005ab1"/><path d="M511.598 68.36a14.996 14.996 0 0 0-9.856-10.786l-35.484-11.832-79.274 79.274a14.994 14.994 0 0 0 5.864 3.62l42.601 14.204a14.994 14.994 0 0 0 15.352-3.621l56.804-56.805a14.995 14.995 0 0 0 3.993-14.055zm0 0" fill="#00345c"/></svg>