<svg xmlns="http://www.w3.org/2000/svg" height="512pt" viewBox="0 0 512.001 512" width="512pt"><path d="M511.266 185.465a14.995 14.995 0 0 0-12.11-10.211L340.437 152.19 269.454 8.36A15.005 15.005 0 0 0 256 0a15 15 0 0 0-13.45 8.36L171.57 152.19 12.844 175.254a14.995 14.995 0 0 0-12.11 10.21 14.992 14.992 0 0 0 3.797 15.376l114.852 111.953L92.27 470.871a15.003 15.003 0 0 0 21.766 15.813l105.503-55.465h72.926l105.504 55.465a15.001 15.001 0 0 0 15.797-1.141 14.995 14.995 0 0 0 5.964-14.672l-27.109-158.078L507.473 200.84a14.999 14.999 0 0 0 3.793-15.375zm0 0" fill="#ffd12b"/><path d="M511.266 185.465a14.995 14.995 0 0 0-12.11-10.211L340.437 152.19 269.454 8.36A15.005 15.005 0 0 0 256 0v431.219h36.465l105.504 55.465a14.958 14.958 0 0 0 6.98 1.726c3.11 0 6.203-.969 8.817-2.867a14.995 14.995 0 0 0 5.964-14.672l-27.109-158.078L507.473 200.84a14.999 14.999 0 0 0 3.793-15.375zm0 0" fill="#ff8e1d"/><path d="M296.168 241c-8.285 0-15 6.715-15 15v65.332h-50.332V256c0-8.285-6.719-15-15-15-8.285 0-15 6.715-15 15v241c0 8.285 6.715 15 15 15 8.281 0 15-6.715 15-15v-65.781h50.332V497c0 8.285 6.715 15 15 15s15-6.715 15-15V256c0-8.285-6.715-15-15-15zm-65.332 160.219v-49.887h50.332v49.887zm0 0" fill="#bb5d4c"/><path d="M296.168 241c-8.285 0-15 6.715-15 15v65.332H256v30h25.168v49.887H256v30h25.168V497c0 8.285 6.715 15 15 15s15-6.715 15-15V256c0-8.285-6.715-15-15-15zm0 0" fill="#a44f3e"/></svg>