<svg xmlns="http://www.w3.org/2000/svg" height="511pt" viewBox="1 0 512 511" width="511pt"><path d="M330.809 512.48c-8.286 0-15-6.714-15-15V126.281c0-8.285 6.714-15 15-15 8.28 0 15 6.715 15 15v371.2c0 8.285-6.72 15-15 15zm0 0" fill="#27d9f7"/><path d="M207.79 273.625H79.261c-8.282 0-15 6.715-15 14.996v176.727c0 25.988 21.144 47.132 47.136 47.132 12.403 0 23.704-4.816 32.13-12.68 8.425 7.864 19.726 12.68 32.132 12.68 25.988 0 47.133-21.144 47.133-47.132V288.62c-.004-8.281-6.719-14.996-15.004-14.996zm0 0" fill="#005ab1"/><path d="M207.79 273.625h-64.267v226.176h.004c8.426 7.863 19.727 12.68 32.133 12.68 25.988 0 47.13-21.145 47.13-47.133V288.62c0-8.281-6.716-14.996-15-14.996zm0 0" fill="#00345c"/><path d="M332 229.594l-90.883-90.883c-8.902-8.899-20.738-13.805-33.328-13.805H47.133C21.145 124.91 0 146.051 0 172.04v128.527C0 326.555 21.145 347.7 47.133 347.7c24.96 0 45.453-19.508 47.031-44.078H207.79c8.285 0 15-6.715 15-15v-34.926l42.559 42.555c8.902 8.902 20.738 13.805 33.328 13.805 12.59 0 24.422-4.903 33.324-13.805 18.379-18.375 18.379-48.277 0-66.656zm0 0" fill="#ff8e1d"/><path d="M332 229.594l-90.883-90.883c-8.902-8.899-20.738-13.805-33.328-13.805h-64.266v178.715h64.266c8.285 0 15-6.715 15-15v-34.926l42.559 42.555c8.902 8.902 20.738 13.805 33.328 13.805 12.59 0 24.422-4.903 33.324-13.805 18.379-18.375 18.379-48.277 0-66.656zm0 0" fill="#ff6d15"/><path d="M143.523.5c-42.566 0-77.199 34.633-77.199 77.203s34.633 77.203 77.2 77.203c42.574 0 77.206-34.633 77.206-77.203S186.098.5 143.523.5zm0 0" fill="#ffcebf"/><path d="M507.133 115.223L462.8 70.89l44.785-44.786A15 15 0 1 0 496.98.5H330.808c-8.286 0-15 6.715-15 15v110.777c0 8.285 6.714 15 15 15H497c8.285 0 15-6.714 15-15 0-4.375-1.875-8.312-4.867-11.054zm0 0" fill="#ff6194"/><path d="M220.73 77.703C220.73 35.133 186.098.5 143.523.5v154.406c42.575 0 77.207-34.633 77.207-77.203zm0 0" fill="#ffa78f"/><path d="M507.133 115.223L462.8 70.89H315.809v55.39c0 8.281 6.714 15 15 15H496.98c.008-.004.016-.004.02 0 8.285 0 15-6.719 15-15 0-4.379-1.875-8.316-4.867-11.058zm0 0" fill="#ff39b1"/></svg>