<svg xmlns="http://www.w3.org/2000/svg" height="512pt" viewBox="0 0 512 512.001" width="512pt"><path d="M433.93 42.727c-8.903-8.903-20.739-13.805-33.328-13.805-12.59 0-24.426 4.902-33.329 13.805l-81.687 81.687h-59.172l-81.687-81.687c-8.899-8.903-20.735-13.805-33.325-13.805-12.593 0-24.43 4.902-33.328 13.805-18.379 18.378-18.379 48.277-.004 66.656l92.961 92.957a15.003 15.003 0 0 0 10.606 4.394h148.73c3.977 0 7.793-1.582 10.602-4.394l92.957-92.957c18.383-18.38 18.383-48.281.004-66.656zm0 0" fill="#ff6194"/><path d="M433.93 42.727c-8.903-8.903-20.739-13.805-33.328-13.805-12.59 0-24.426 4.902-33.329 13.805l-81.687 81.687H256v82.32h74.367c3.977 0 7.793-1.582 10.602-4.394l92.957-92.957c18.383-18.38 18.383-48.281.004-66.656zm0 0" fill="#ff39b1"/><path d="M320.27 241H256c-8.285 0-15 6.715-15 15v208.867C241 490.855 262.145 512 288.137 512c25.988 0 47.133-21.145 47.133-47.133V256c0-8.285-6.72-15-15-15zm0 0" fill="#00345c"/><path d="M256 0c-42.57 0-77.203 34.637-77.203 77.207 0 42.57 34.633 77.207 77.203 77.207s77.207-34.637 77.207-77.207C333.207 34.637 298.57 0 256 0zm0 0" fill="#ffcebf"/><path d="M223.867 241c-25.988 0-47.133 21.145-47.133 47.133v96.398c0 25.992 21.145 47.133 47.133 47.133 25.988 0 47.133-21.14 47.133-47.133v-96.398C271 262.145 249.855 241 223.867 241zm0 0" fill="#005ab1"/><path d="M47.137 112.469C21.145 112.469 0 133.609 0 159.602v305.265C0 490.855 21.145 512 47.137 512c25.988 0 47.133-21.145 47.133-47.133V159.602c0-25.993-21.145-47.133-47.133-47.133zm0 0" fill="#ffd12b"/><path d="M464.867 112.469c-25.988 0-47.133 21.14-47.133 47.133v305.265c0 25.988 21.145 47.133 47.133 47.133C490.855 512 512 490.855 512 464.867V159.602c0-25.993-21.145-47.133-47.133-47.133zm0 0" fill="#ff8e1d"/><path d="M497 176.734H15c-8.285 0-15 6.715-15 15V256c0 8.285 6.715 15 15 15h482c8.285 0 15-6.715 15-15v-64.266c0-8.285-6.715-15-15-15zm0 0" fill="#fff4d8"/><path d="M333.207 77.207C333.207 34.637 298.57 0 256 0v154.414c42.57 0 77.207-34.637 77.207-77.207zm0 0" fill="#ffa78f"/><path d="M497 176.734H256V271h241c8.285 0 15-6.715 15-15v-64.266c0-8.285-6.715-15-15-15zm0 0" fill="#ffd864"/></svg>