<svg xmlns="http://www.w3.org/2000/svg" height="511pt" viewBox="0 -5 511.999 511" width="511pt"><path d="M511.266 185.96a15 15 0 0 0-12.11-10.21l-158.722-23.063L269.449 8.86A15.004 15.004 0 0 0 256 .5a14.995 14.995 0 0 0-13.45 8.36l-70.984 143.827L12.844 175.75a15 15 0 0 0-8.313 25.586l114.852 111.957L92.27 471.371a15.009 15.009 0 0 0 5.968 14.672 14.988 14.988 0 0 0 8.817 2.863c2.386 0 4.785-.57 6.98-1.722l81.403-42.797h121.125l81.402 42.797a14.994 14.994 0 0 0 15.797-1.145 14.995 14.995 0 0 0 5.968-14.668L392.617 313.29 507.47 201.336a15 15 0 0 0 3.797-15.375zm0 0" fill="#ffd12b"/><path d="M511.266 185.96a15 15 0 0 0-12.11-10.21l-158.722-23.063L269.449 8.86A15.004 15.004 0 0 0 256 .5v443.89h60.563l81.402 42.794a15.002 15.002 0 0 0 21.765-15.813l-27.113-158.078L507.47 201.336a15 15 0 0 0 3.797-15.375zm0 0" fill="#ff8e1d"/><path d="M256 342.168c-43.707 0-79.266 35.562-79.266 79.27v64.265c0 8.285 6.715 15 15 15h128.532c8.285 0 15-6.715 15-15v-64.265c0-43.711-35.559-79.27-79.266-79.27zm0 0" fill="#80d398"/><path d="M256 342.168v158.535h64.27c8.28 0 15-6.719 15-15v-64.265c-.004-43.708-35.563-79.27-79.27-79.27zm0 0" fill="#00b44b"/><path d="M256 217.758c-42.57 0-77.203 34.633-77.203 77.207 0 42.57 34.633 77.203 77.203 77.203s77.207-34.633 77.207-77.203c0-42.574-34.637-77.207-77.207-77.207zm0 0" fill="#bb5d4c"/><path d="M333.207 294.965c0-42.574-34.637-77.207-77.207-77.207v154.41c42.57 0 77.207-34.633 77.207-77.203zm0 0" fill="#a44f3e"/></svg>