<svg xmlns="http://www.w3.org/2000/svg" height="512pt" viewBox="0 0 512 512" width="512pt"><path d="M497 40.164H15c-8.285 0-15 6.719-15 15v241c0 8.285 6.715 15 15 15h482c8.281 0 15-6.715 15-15v-241c0-8.281-6.719-15-15-15zm0 0" fill="#ebf6ff"/><path d="M497 40.164H256v271h241c8.281 0 15-6.715 15-15v-241c0-8.281-6.719-15-15-15zm0 0" fill="#b2dcff"/><path d="M497 40.164H376.5c-8.285 0-15 6.719-15 15v105.5H271v-105.5c0-8.281-6.719-15-15-15H135.5c-8.285 0-15 6.719-15 15v105.5H15c-8.285 0-15 6.719-15 15v120.5c0 8.285 6.715 15 15 15h120.5c8.281 0 15-6.715 15-15v-105.5H241v105.5c0 8.285 6.715 15 15 15h120.5c8.281 0 15-6.715 15-15v-105.5H497c8.281 0 15-6.715 15-15v-120.5c0-8.281-6.719-15-15-15zm0 0" fill="#005ab1"/><path d="M497 40.164H376.5c-8.285 0-15 6.719-15 15v105.5H271v-105.5c0-8.281-6.719-15-15-15v271h120.5c8.281 0 15-6.715 15-15v-105.5H497c8.281 0 15-6.715 15-15v-120.5c0-8.281-6.719-15-15-15zm0 0" fill="#00345c"/><path d="M15 512c-8.285 0-15-6.715-15-15V15C0 6.715 6.715 0 15 0c8.281 0 15 6.715 15 15v482c0 8.285-6.719 15-15 15zm0 0" fill="#bb5d4c"/><path d="M497 512c-8.285 0-15-6.715-15-15V15c0-8.285 6.715-15 15-15 8.281 0 15 6.715 15 15v482c0 8.285-6.719 15-15 15zm0 0" fill="#a44f3e"/></svg>