<svg xmlns="http://www.w3.org/2000/svg" height="511pt" viewBox="1 -28 512 511" width="511pt"><path d="M466.32 46.258C436.813 16.75 397.582.5 355.855.5 318.95.5 284 13.21 256 36.563 228.004 13.21 193.05.5 156.145.5 114.418.5 75.187 16.75 45.68 46.258c-60.907 60.914-60.907 160.023 0 220.93l171.3 171.3c10.395 10.39 24.25 16.114 39.02 16.114 14.773 0 28.629-5.723 39.023-16.114l171.297-171.3c60.907-60.91 60.907-160.02 0-220.93zm0 0" fill="#ff6194"/><path d="M466.32 46.258C436.813 16.75 397.582.5 355.855.5 318.95.5 284 13.21 256 36.563c-.004-.008-.012-.012-.02-.016v418.055h.02c14.773 0 28.629-5.723 39.023-16.114L466.32 267.191c60.907-60.914 60.907-160.023 0-220.933zm0 0" fill="#ff39b1"/><path d="M336.531 164.387l-69.918-69.922A15.008 15.008 0 0 0 256 90.066a15.006 15.006 0 0 0-10.61 4.399l-69.917 69.918c-21.512 21.512-33.36 50.113-33.36 80.531 0 30.422 11.848 59.02 33.36 80.531 21.511 21.512 50.109 33.36 80.53 33.36h.005c30.414 0 59.02-11.848 80.527-33.356 21.508-21.512 33.356-50.113 33.356-80.531-.004-30.422-11.848-59.023-33.36-80.531zm0 0" fill="#73bcff"/><path d="M336.531 164.387l-69.918-69.922A15.008 15.008 0 0 0 256 90.066l-.016.004V358.8h.02c30.418 0 59.02-11.843 80.527-33.355 21.512-21.507 33.36-50.11 33.36-80.53-.004-30.419-11.848-59.02-33.36-80.528zm0 0" fill="#0095ff"/><path d="M308.121 232.973l-41.508-41.512a15.003 15.003 0 0 0-21.219 0l-41.511 41.512c-13.926 13.922-21.59 32.433-21.59 52.12 0 19.688 7.664 38.2 21.59 52.122 13.922 13.918 32.433 21.586 52.12 21.586 19.688 0 38.2-7.668 52.118-21.586 28.738-28.738 28.738-75.5 0-104.242zm0 0" fill="#fff4d8"/><path d="M308.121 232.973l-41.508-41.512A15.02 15.02 0 0 0 256 187.066h-.016v171.735h.02c19.687 0 38.2-7.664 52.117-21.586 28.738-28.738 28.738-75.5 0-104.242zm0 0" fill="#ffd864"/></svg>