<svg xmlns="http://www.w3.org/2000/svg" height="512pt" viewBox="0 -104 512 512" width="512pt"><path d="M456.836 80.332H55.172C24.75 80.332.004 105.082.004 135.5v112.465c0 30.418 24.746 55.164 55.168 55.164h401.664c30.418 0 55.164-24.746 55.164-55.164V135.5c0-30.418-24.746-55.168-55.164-55.168zm0 0" fill="#73bcff"/><path d="M456.836 80.332H256.004v222.797h200.832c30.418 0 55.164-24.746 55.164-55.164V135.5c0-30.418-24.746-55.168-55.164-55.168zm0 0" fill="#0095ff"/><path d="M15 30a15.117 15.117 0 0 1-10.602-4.39A15.11 15.11 0 0 1 0 15 15.07 15.07 0 0 1 4.398 4.398 15.06 15.06 0 0 1 15 0c3.96 0 7.82 1.602 10.61 4.398C28.397 7.18 30 11.047 30 15c0 3.95-1.602 7.82-4.39 10.61A15.114 15.114 0 0 1 15 30zm0 0M79.27 30c-3.95 0-7.81-1.602-10.61-4.39A15.114 15.114 0 0 1 64.27 15c0-3.95 1.601-7.82 4.39-10.602C71.45 1.598 75.32 0 79.27 0c3.949 0 7.82 1.602 10.609 4.398A15.09 15.09 0 0 1 94.269 15c0 3.95-1.601 7.813-4.39 10.61-2.8 2.788-6.66 4.39-10.61 4.39zm0 0M143.54 30c-3.95 0-7.821-1.602-10.61-4.39-2.79-2.801-4.39-6.66-4.39-10.61 0-3.95 1.6-7.813 4.39-10.602C135.719 1.598 139.59 0 143.54 0c3.948 0 7.82 1.602 10.597 4.398 2.804 2.782 4.402 6.649 4.402 10.602 0 3.95-1.601 7.82-4.402 10.61A15.087 15.087 0 0 1 143.539 30zm0 0" fill="#005ab1"/><path d="M432.734 144.598H79.27c-8.286 0-15 6.718-15 15v64.27c0 8.284 6.714 15 15 15h353.464c8.286 0 15-6.716 15-15v-64.27c0-8.282-6.714-15-15-15zm0 0" fill="#fdf3f4"/><path d="M432.734 144.598h-176.73v94.27h176.73c8.286 0 15-6.716 15-15v-64.27c0-8.282-6.714-15-15-15zm0 0" fill="#b2dcff"/><path d="M272.066 144.598H79.27c-8.286 0-15 6.718-15 15v64.27c0 8.284 6.714 15 15 15h192.8c8.285 0 15-6.716 15-15v-64.27c-.004-8.282-6.718-15-15.004-15zm0 0" fill="#80d398"/><path d="M143.535 238.863c-8.285 0-15-6.715-15-15v-64.265c0-8.282 6.715-15 15-15s15 6.718 15 15v64.265c0 8.285-6.715 15-15 15zm0 0M207.8 238.863c-8.28 0-15-6.715-15-15v-64.265c0-8.282 6.72-15 15-15 8.286 0 15 6.718 15 15v64.265c0 8.285-6.714 15-15 15zm0 0" fill="#00b44b"/><path d="M272.066 238.863c-8.28 0-14.996-6.715-14.996-15v-64.265c0-8.282 6.715-15 14.996-15 8.286 0 15 6.718 15 15v64.265c0 8.285-6.714 15-15 15zm0 0" fill="#00884a"/></svg>