<svg xmlns="http://www.w3.org/2000/svg" height="512pt" viewBox="-80 0 512 512.001" width="512pt"><path d="M299.883 212.117c-50.719-50.722-67.676-124.379-44.246-192.222a14.99 14.99 0 0 0-1.961-13.602A15.004 15.004 0 0 0 241.46 0h-1.527c-61.426 0-111.399 49.973-111.399 111.398v96.395c0 9.445-7.687 17.133-17.133 17.133-9.445 0-17.132-7.688-17.132-17.133a14.998 14.998 0 1 0-24.008-11.992c-21.336 16.023-39.012 37.02-51.117 60.719C6.44 281.383 0 308.234 0 336.336 0 433.196 78.805 512 175.668 512s175.668-78.805 175.668-175.668c0-46.922-18.274-91.035-51.453-124.215zm0 0" fill="#ff8e1d"/><path d="M299.883 212.117c-50.719-50.722-67.676-124.379-44.246-192.222a14.99 14.99 0 0 0-1.961-13.602A15.004 15.004 0 0 0 241.46 0h-1.527c-23.926 0-46.114 7.586-64.29 20.473V512h.024c96.863 0 175.668-78.805 175.668-175.668 0-46.922-18.274-91.035-51.453-124.215zm0 0" fill="#ff6d15"/><path d="M245.098 344.387l-58.82-58.825a14.995 14.995 0 0 0-21.215 0l-58.825 58.825C87.695 362.93 77.48 387.586 77.48 413.812c0 26.227 10.215 50.883 28.758 69.43C124.785 501.785 149.445 512 175.672 512c26.226 0 50.883-10.21 69.426-28.758 38.28-38.285 38.28-100.578 0-138.855zm0 0" fill="#ffd12b"/><path d="M245.098 344.387l-58.82-58.825a14.995 14.995 0 0 0-10.61-4.394h-.02V512h.024c26.226 0 50.883-10.215 69.426-28.758 38.28-38.285 38.28-100.578 0-138.855zm0 0" fill="#ff8e1d"/></svg>