<svg xmlns="http://www.w3.org/2000/svg" height="512pt" viewBox="-64 0 512 512" width="512pt"><path d="M369.64 281.398c-8.902-8.902-20.738-13.804-33.327-13.804-12.59 0-24.43 4.898-33.329 13.804l-81.687 81.688h-59.172l-81.684-81.691c-8.906-8.899-20.742-13.801-33.332-13.801s-24.425 4.898-33.324 13.804c-18.379 18.375-18.379 48.278-.004 66.657l98.664 98.66V497c0 8.285 6.715 15 15 15H255.98c8.282 0 15-6.715 15-15v-50.285l98.66-98.66c18.376-18.38 18.376-48.282 0-66.657zm0 0" fill="#005ab1"/><path d="M369.64 281.398c-8.902-8.902-20.738-13.804-33.327-13.804-12.59 0-24.43 4.898-33.329 13.804l-81.687 81.688H191.71V512h64.27c8.28 0 15-6.715 15-15v-50.285l98.66-98.66c18.375-18.38 18.375-48.282 0-66.657zm0 0" fill="#00345c"/><path d="M191.71 238.672c-42.57 0-77.206 34.633-77.206 77.207 0 42.57 34.637 77.207 77.207 77.207 42.57 0 77.203-34.637 77.203-77.207 0-42.574-34.633-77.207-77.203-77.207zm0 0" fill="#ffcebf"/><path d="M306.395 83.324a15.008 15.008 0 0 0-12.11-10.21l-61.582-8.95L205.16 8.36a15.004 15.004 0 0 0-26.902 0l-27.54 55.805-61.581 8.95a15.013 15.013 0 0 0-12.11 10.21A15.009 15.009 0 0 0 80.824 98.7l44.563 43.438-10.524 61.332a14.998 14.998 0 0 0 5.969 14.672 14.992 14.992 0 0 0 8.816 2.867c2.391 0 4.786-.57 6.98-1.727l55.083-28.957 55.082 28.957a14.958 14.958 0 0 0 6.98 1.727h.043c8.274-.016 14.977-6.727 14.977-15 0-1.153-.129-2.274-.375-3.356l-10.383-60.515 44.563-43.438a15 15 0 0 0 3.797-15.375zm0 0" fill="#ffd12b"/><path d="M268.914 315.879c0-42.574-34.633-77.207-77.203-77.207v154.414c42.57 0 77.203-34.637 77.203-77.207zm0 0" fill="#ffa78f"/><path d="M306.395 83.324a15.008 15.008 0 0 0-12.11-10.21l-61.582-8.95L205.16 8.36A15.004 15.004 0 0 0 191.71 0v190.324l55.083 28.957a14.958 14.958 0 0 0 6.98 1.727h.043c8.274-.016 14.977-6.727 14.977-15 0-1.153-.129-2.274-.375-3.356l-10.383-60.515 44.563-43.438a15 15 0 0 0 3.797-15.375zm0 0" fill="#ff8e1d"/></svg>