<svg xmlns="http://www.w3.org/2000/svg" height="512pt" viewBox="-64 0 512 512" width="512pt"><path d="M369.66 281.395c-8.902-8.903-20.738-13.805-33.324-13.805-12.594 0-24.43 4.902-33.328 13.805l-81.688 81.69h-59.172l-81.683-81.69c-8.903-8.903-20.738-13.805-33.332-13.805-12.59 0-24.426 4.902-33.324 13.805C4.906 290.297 0 302.133 0 314.723c0 12.59 4.902 24.43 13.805 33.328l98.664 98.664V497c0 8.285 6.715 15 15 15H256c8.285 0 15-6.715 15-15v-50.285l98.66-98.66c8.902-8.903 13.809-20.743 13.809-33.332-.004-12.59-4.906-24.426-13.809-33.328zm0 0" fill="#73bcff"/><path d="M369.66 281.395c-8.902-8.903-20.738-13.805-33.324-13.805-12.594 0-24.43 4.902-33.328 13.805l-81.688 81.69h-29.586V512H256c8.285 0 15-6.715 15-15v-50.285l98.66-98.66c8.902-8.903 13.809-20.743 13.809-33.332-.004-12.59-4.906-24.426-13.809-33.328zm0 0" fill="#0095ff"/><path d="M191.73 238.672c-42.57 0-77.203 34.633-77.203 77.203 0 42.574 34.633 77.207 77.203 77.207 42.575 0 77.208-34.633 77.208-77.207 0-42.57-34.633-77.203-77.208-77.203zm0 0" fill="#bb5d4c"/><path d="M268.938 315.875c0-42.57-34.633-77.203-77.204-77.203v154.41c42.57 0 77.203-34.633 77.203-77.207zm0 0" fill="#a44f3e"/><path d="M280.102 0H103.367C72.95 0 48.2 24.746 48.2 55.164v118.172c0 30.422 24.75 55.168 55.168 55.168h41.985l35.773 35.773a14.999 14.999 0 0 0 10.605 4.391c3.98 0 7.793-1.578 10.606-4.39l35.773-35.774h41.989c30.418 0 55.168-24.746 55.168-55.168V55.164C335.266 24.746 310.52 0 280.102 0zm0 0" fill="#fff4d8"/><path d="M238.113 228.504h41.989c30.418 0 55.164-24.746 55.164-55.168V55.164C335.266 24.746 310.52 0 280.102 0h-88.368v268.672c3.977 0 7.793-1.582 10.606-4.395zm0 0" fill="#ffd864"/><path d="M177.531 157.652a14.951 14.951 0 0 1-10.601-4.39l-28.403-28.403c-5.859-5.859-5.859-15.355 0-21.214 5.856-5.856 15.356-5.856 21.211 0l17.797 17.796 46.2-46.199c5.855-5.855 15.355-5.855 21.21 0 5.86 5.86 5.86 15.356 0 21.215l-56.804 56.805a14.97 14.97 0 0 1-10.61 4.39zm0 0" fill="#80d398"/><path d="M244.945 75.242c-5.855-5.855-15.355-5.855-21.215 0l-31.996 32v42.426l53.211-53.211c5.856-5.86 5.856-15.355 0-21.215zm0 0" fill="#00b44b"/></svg>