<svg xmlns="http://www.w3.org/2000/svg" height="512pt" viewBox="-33 0 512 512" width="512pt"><path d="M237.316 0C123.582 0 30.895 91.836 29.531 205.254L4.797 277.406c-6.797 19.82-6.352 37.266 1.219 47.867 4.539 6.352 11.543 9.993 19.222 9.993h4.282v25.168c0 30.418 24.746 55.164 55.164 55.164 13.879 0 25.168 11.293 25.168 25.168v16.066c0 30.418 24.746 55.168 55.168 55.168h112.464c30.418 0 55.168-24.75 55.168-55.168v-64.383c31.86-16.465 58.922-40.87 78.672-71.043 22.11-33.785 33.793-73.066 33.793-113.61C445.117 93.22 351.898 0 237.317 0zm0 0" fill="#bb5d4c"/><path d="M237.316 0c-4.96 0-9.882.184-14.757.527V512h54.925c30.418 0 55.164-24.746 55.164-55.168v-64.383c31.864-16.465 58.926-40.867 78.672-71.043 22.11-33.785 33.797-73.066 33.797-113.605C445.117 93.219 351.898 0 237.317 0zm0 0" fill="#a44f3e"/><path d="M349.29 177.91a14.997 14.997 0 0 0-12.11-10.207l-69.907-10.156-31.265-63.348a15 15 0 0 0-26.903 0l-31.261 63.348-69.91 10.156a15.004 15.004 0 0 0-8.313 25.586l50.586 49.313-11.941 69.625a15.002 15.002 0 0 0 21.766 15.813l62.527-32.876 62.527 32.875a15.001 15.001 0 0 0 6.98 1.723h.059c8.27-.02 14.96-6.727 14.96-15 0-1.149-.128-2.274-.374-3.352l-11.8-68.808 50.585-49.313a15.004 15.004 0 0 0 3.793-15.379zm0 0" fill="#ffd12b"/><path d="M349.29 177.91a14.997 14.997 0 0 0-12.11-10.207l-69.907-10.156-31.265-63.348a15 15 0 0 0-13.45-8.363v209.328l62.528 32.875a15.001 15.001 0 0 0 6.98 1.723h.059c8.27-.02 14.96-6.727 14.96-15 0-1.149-.128-2.274-.374-3.352l-11.8-68.808 50.585-49.313a15.004 15.004 0 0 0 3.793-15.379zm0 0" fill="#ff8e1d"/></svg>