<svg xmlns="http://www.w3.org/2000/svg" viewBox="0 0 512 512"><path d="M494.782 17.854a32.332 32.332 0 0 0-24.414-13.44 33.564 33.564 0 0 0-1.95-.058c-14.625 0-27.503 9.869-31.316 23.998L407.215 139.07c-8.636 31.991-37.81 54.333-70.946 54.333h-43.767c-4.569-2.558-7.629-8.376-7.629-13.61v-28.171H226.16v28.171c0 5.234-3.061 11.052-7.629 13.61h-42.266c-33.137 0-62.311-22.343-70.946-54.333L76.053 30.662C71.883 15.214 57.795 4.426 41.795 4.426c-9.627 0-18.506 4.383-24.359 12.026-5.854 7.643-7.772 17.357-5.263 26.652l48.5 179.669c5.27 19.52 16.557 36.311 32.642 48.554 30.475 23.198 51.451 57.415 59.065 96.351l13.153 67.254c1.944 9.945 10.71 17.162 20.842 17.162h139.782c10.132 0 18.898-7.218 20.842-17.162l13.152-67.254c7.614-38.936 28.59-73.153 59.065-96.351 16.086-12.244 27.373-29.033 32.642-48.554l47.915-177.498a32.333 32.333 0 0 0-4.991-27.421z" fill="#fed9a8"/><path d="M494.782 17.854a32.332 32.332 0 0 0-24.414-13.44 33.564 33.564 0 0 0-1.95-.058c-2.275 0-4.499.265-6.662.722-.161.88-.347 1.758-.583 2.63l-47.915 177.498c-5.269 19.521-16.556 36.311-32.642 48.554-30.474 23.198-51.45 57.415-59.065 96.351L297.26 452.093h28.897c10.132 0 18.898-7.218 20.842-17.162l13.152-67.254c7.614-38.936 28.59-73.153 59.065-96.351 16.086-12.244 27.373-29.033 32.642-48.554l47.915-177.498a32.331 32.331 0 0 0-4.991-27.42z" fill="#f4c28c"/><path d="M320.095 96.2h-4.091V79.913c0-16.213-6.656-31.924-18.942-42.503-9.632-8.294-23.173-15.534-41.059-15.733-17.886.2-31.426 7.439-41.059 15.733-12.286 10.579-18.942 26.29-18.942 42.503V96.2h-4.091c-5.997 0-10.859 4.862-10.859 10.859v12.034c0 5.997 4.862 10.859 10.859 10.859h4.107c.338 15.76 6.961 30.93 18.926 41.232 9.633 8.294 23.173 15.534 41.059 15.733 17.886-.2 31.426-7.439 41.059-15.733 11.965-10.302 18.588-25.472 18.926-41.232h4.107c5.997 0 10.859-4.862 10.859-10.859v-12.034c0-5.997-4.862-10.859-10.859-10.859z" fill="#fed9a8"/><path d="M320.095 96.2h-4.091V79.913c0-16.213-6.656-31.924-18.942-42.503-3.518-3.03-7.561-5.914-12.146-8.367l-.012 100.909c-.338 15.76-6.961 30.93-18.926 41.233-6.61 5.692-15.062 10.886-25.494 13.65 4.758 1.26 9.922 2.021 15.52 2.083 17.886-.199 31.427-7.439 41.059-15.733 11.965-10.302 18.588-25.472 18.926-41.233h4.107c5.998 0 10.859-4.862 10.859-10.859v-12.034c-.001-5.997-4.863-10.859-10.86-10.859z" fill="#f4c28c"/><path d="M291.772 18.103h-71.54c-18.408 0-33.33 14.922-33.33 33.33v45.99s9.178-.208 15.076 5.629c1.228 1.216 3.316.327 3.316-1.401V65.607c0-8.136 6.596-14.732 14.732-14.732h13.386c3.511 0 6.914 1.214 9.632 3.436l1.313 1.073a18.395 18.395 0 0 0 23.29 0l1.313-1.073a15.218 15.218 0 0 1 9.632-3.436h13.386c8.136 0 14.732 6.596 14.732 14.732v36.045c0 1.728 2.087 2.616 3.316 1.401 5.898-5.837 15.076-5.629 15.076-5.629v-45.99c0-18.409-14.922-33.331-33.33-33.331z" fill="#ffb125"/><path d="M291.772 18.103h-13.297V50.88c.039 0 .078-.005.117-.005h13.386c8.136 0 14.732 6.596 14.732 14.732v36.045c0 1.728 2.087 2.616 3.316 1.401 5.898-5.837 15.076-5.629 15.076-5.629v-45.99c0-18.409-14.922-33.331-33.33-33.331z" fill="#ff901d"/><path d="M406.294 142.194c-9.642 30.312-37.979 51.21-70.025 51.21h-42.188l-3.503 3.907c-18.366 20.485-50.42 20.585-68.913.214l-3.741-4.121h-41.661c-32.113 0-60.504-20.985-70.087-51.398l-60.683 24.532 15.18 56.234c5.27 19.52 16.557 36.311 32.642 48.554 30.475 23.198 51.451 57.415 59.065 96.351l13.153 67.254c1.944 9.945 10.71 17.162 20.842 17.162h139.782c10.157 0 18.893-7.193 20.842-17.161l13.152-67.255c7.614-38.936 28.59-73.153 59.065-96.351 16.086-12.244 27.373-29.033 32.642-48.554l15.128-56.042-60.692-24.536z" fill="#2d5872"/><path d="M406.294 142.194c-9.642 30.312-37.979 51.21-70.025 51.21h-42.188l-3.503 3.907c-18.366 20.485-50.42 20.585-68.913.214l-3.741-4.121h-41.661c-32.113 0-60.504-20.985-70.087-51.398l-60.683 24.532 15.18 56.234c5.27 19.52 16.557 36.311 32.642 48.554 30.475 23.198 51.451 57.415 59.065 96.351l13.153 67.254c1.944 9.945 10.71 17.162 20.842 17.162h139.782c10.157 0 18.893-7.193 20.842-17.161l13.152-67.255c7.614-38.936 28.59-73.153 59.065-96.351 16.086-12.244 27.373-29.033 32.642-48.554l15.128-56.042-60.692-24.536z" fill="#2d5872"/><path d="M347 434.931l13.152-67.254c7.614-38.936 28.59-73.153 59.065-96.351 16.086-12.244 27.373-29.033 32.642-48.554l15.128-56.042-43.945-17.766-9.784 36.243c-5.269 19.521-16.556 36.311-32.642 48.554-30.474 23.198-51.45 57.415-59.065 96.351L297.26 452.093h28.897c10.132 0 18.898-7.217 20.843-17.162z" fill="#1d4859"/><path d="M505.92 475.323c-168.093-68.88-335.594 84.771-503.7 12.461-1.845-.794-2.701-2.93-1.947-4.792a3477.322 3477.322 0 0 0 13.719-34.399 3.714 3.714 0 0 0 .102-2.418 10035.108 10035.108 0 0 1-12.966-43.913c-.871-2.974 2.083-5.669 4.951-4.494 168.095 68.879 335.597-84.772 503.7-12.461 1.845.794 2.701 2.93 1.947 4.792a3486.798 3486.798 0 0 0-13.719 34.397 3.714 3.714 0 0 0-.102 2.418 9954.988 9954.988 0 0 1 12.966 43.915c.871 2.974-2.083 5.669-4.951 4.494z" fill="#ff4c4c"/><path d="M500.791 436.688c-163.283-62.561-326.019 80.563-489.304 18.237-3.701 9.371-7.43 18.73-11.213 28.068-.754 1.862.102 3.998 1.947 4.792 168.105 72.31 335.606-81.341 503.7-12.461 2.867 1.175 5.821-1.52 4.951-4.494a9823.357 9823.357 0 0 0-10.081-34.142z" fill="#ea2828"/><path d="M336.269 193.404h-21.814l-58.475 89.863-58.474-89.863h-21.243a73.72 73.72 0 0 1-4.83-.173l75.428 115.917a10.881 10.881 0 0 0 18.238 0l75.405-115.881a73.498 73.498 0 0 1-4.235.137z" fill="#e1effb"/><circle cx="256" cy="312.34" r="30.828" fill="#fd9727"/><path d="M284.872 179.794v-.216c-7.955 4.256-17.537 7.213-28.87 7.34a64.674 64.674 0 0 1-9.209-.761v21.095c0 1.549.274 3.149.771 4.701 15.293 2.817 31.734-2.061 43.014-14.642l3.503-3.907h-1.579c-4.569-2.558-7.63-8.376-7.63-13.61z" fill="#f4c28c"/></svg>