<svg xmlns="http://www.w3.org/2000/svg" viewBox="0 0 512.001 512.001"><path d="M117.727 324.337h276.547a351.147 351.147 0 0 0 8.364-10.443c27.425-35.636 42.154-69.393 42.595-97.621.374-23.938-9.061-44.322-28.844-62.314-14.475-13.165-30.719-19.565-49.66-19.565-16.288 0-34.473 4.755-54.05 14.132l-.763.361c-20.763 9.555-38.224 14.214-54.951 14.662l-.965.026-.964-.026c-16.727-.449-34.187-5.107-54.951-14.662l-.706-.335c-19.6-9.395-37.804-14.158-54.107-14.158-18.942 0-35.186 6.399-49.66 19.564-19.783 17.994-29.218 38.377-28.844 62.315.441 28.228 15.17 61.985 42.595 97.621a351.147 351.147 0 0 0 8.364 10.443z" fill="#ff4c4c"/><path d="M416.388 153.959c-14.474-13.165-30.719-19.565-49.66-19.565-7.926 0-16.305 1.135-25.072 3.372 9.838 3.147 18.894 8.509 27.342 16.193 19.783 17.992 29.218 38.376 28.844 62.314-.441 28.228-15.17 61.985-42.595 97.621a353.75 353.75 0 0 1-8.364 10.443h47.39a352.444 352.444 0 0 0 8.364-10.443c27.425-35.636 42.154-69.393 42.595-97.621.374-23.937-9.061-44.322-28.844-62.314z" fill="#ea2828"/><path d="M341.538 280.23s-10.24-113.109-85.195-209.139l-.003.004-.003-.004c-74.955 96.03-85.195 209.139-85.195 209.139-78.259-61.781-146.853-81.804-146.853-81.804s57.326 83.318 96.912 240.203l135.139.407 135.139-.407c39.586-156.885 96.912-240.203 96.912-240.203s-68.594 20.023-146.853 81.804z" fill="#ffb125"/><g fill="#ff901d"><path d="M341.063 279.588l.379-.304c-1.169-10.978-14.105-117.237-85.099-208.192l-.003.004-.003-.004c-8.986 11.512-17.032 23.27-24.251 35.049 32.247 54.132 50.482 115.163 60.058 156.459 5.091 21.955 31.337 31.09 48.919 16.988zM423.569 226.574c-19.974 36.534-53.966 108.154-80.183 212.055h48.093c39.586-156.885 96.912-240.203 96.912-240.203s-26.264 7.671-64.822 28.148z"/><path d="M255.935 92.991c-13.391-.035-24.258-10.96-24.223-24.352.035-13.357 10.93-24.224 24.287-24.224 13.457.035 24.324 10.96 24.289 24.352-.035 13.357-10.93 24.224-24.287 24.224h-.066zM487.648 224.1c-13.391-.035-24.258-10.96-24.223-24.351.035-13.357 10.928-24.224 24.285-24.224 13.458.035 24.326 10.959 24.291 24.352-.035 13.357-10.93 24.223-24.287 24.223h-.066zM24.224 222.882C10.833 222.847-.035 211.922 0 198.53c.035-13.356 10.93-24.223 24.286-24.223 6.553.017 12.646 2.559 17.221 7.158a24.124 24.124 0 0 1 7.068 17.193c-.035 13.357-10.929 24.224-24.286 24.224h-.065z"/></g><path d="M82.119 448.98c2.59 12.339 14.494 20.44 26.91 18.249 97.694-17.241 196.245-17.242 293.942 0 12.416 2.191 24.32-5.91 26.91-18.249 2.721-12.964-5.853-25.574-18.898-27.875-102.962-18.159-207.005-18.159-309.966 0-13.045 2.301-21.619 14.912-18.898 27.875z" fill="#ff4c4c"/><path d="M410.983 421.105a905.38 905.38 0 0 0-22.203-3.621l-9.948 45.85a856.807 856.807 0 0 1 24.139 3.895c12.416 2.191 24.32-5.91 26.91-18.249 2.721-12.964-5.853-25.574-18.898-27.875z" fill="#ea2828"/><g fill="#e1effb"><circle cx="156.22" cy="354.411" r="19.658"/><circle cx="355.78" cy="354.411" r="19.658"/><circle cx="256" cy="342.711" r="19.658"/></g></svg>