<svg xmlns="http://www.w3.org/2000/svg" viewBox="0 0 512 512"><path fill="#ffb125" d="M305.669 440.203h-99.338l38.019-318.661h23.3z"/><path d="M267.65 121.542h-23.3a824.746 824.746 0 0 0 0 195.4l14.706 123.26h46.613l-38.019-318.66z" fill="#ff901d"/><path d="M341.59 446.014H170.41l9.997-62.609a6.808 6.808 0 0 1 6.723-5.735h137.741a6.808 6.808 0 0 1 6.723 5.735l9.996 62.609z" fill="#ff6d3a"/><path d="M331.593 383.406a6.808 6.808 0 0 0-6.723-5.735h-40.806l10.912 68.343h46.613l-9.996-62.608z" fill="#ed5729"/><path d="M382.366 512H129.634c-4.755 0-8.379-4.258-7.619-8.952l13.721-84.721a7.718 7.718 0 0 1 7.619-6.484h225.29a7.719 7.719 0 0 1 7.619 6.484l13.721 84.721c.76 4.694-2.864 8.952-7.619 8.952z" fill="#2d5872"/><path d="M389.985 503.048l-13.721-84.721a7.718 7.718 0 0 0-7.619-6.484h-41.136L343.731 512h38.636c4.754 0 8.378-4.258 7.618-8.952z" fill="#1d4859"/><path d="M157.776 476.307l4.868-30.057a4.024 4.024 0 0 1 3.972-3.381h178.767a4.024 4.024 0 0 1 3.972 3.381l4.868 30.057a4.024 4.024 0 0 1-3.972 4.667H161.749a4.025 4.025 0 0 1-3.973-4.667z" fill="#e1effb"/><path d="M354.223 476.307l-4.868-30.057a4.024 4.024 0 0 0-3.972-3.381h-43.961l6.172 38.105h42.658a4.023 4.023 0 0 0 3.971-4.667z" fill="#c3d8e5"/><path d="M369.166 82.267c-.005-.018-.008-.036-.014-.054a3.218 3.218 0 0 0-2.631-2.22l-74.35-10.804-33.25-67.373A3.218 3.218 0 0 0 256 0a3.218 3.218 0 0 0-2.921 1.816l-33.25 67.373-74.35 10.804c-.036.005-.068.016-.103.023a3.484 3.484 0 0 0-.379.083c-.051.015-.098.038-.148.056-.1.035-.201.068-.295.112-.039.018-.073.042-.111.062-.099.051-.198.101-.29.161-.014.009-.026.021-.04.03a3.155 3.155 0 0 0-.317.242l-.01.01a3.32 3.32 0 0 0-.301.304l-.014.019a3.3 3.3 0 0 0-.623 1.119 3.218 3.218 0 0 0 .825 3.336l53.8 52.442-12.701 74.05c-.012.068-.012.133-.02.199-.011.098-.026.196-.029.292-.001.038.005.074.005.112.001.122.003.243.017.361.003.028.012.053.016.081.019.125.04.25.072.369l.01.029c.079.28.194.545.341.787l.007.01c.151.247.334.472.542.669l.004.003c.104.099.215.191.331.275.94.682 2.235.875 3.429.247L256 180.513l66.501 34.962c.149.078.3.144.452.198.149.053.298.093.448.122l.008.002c.136.027.272.041.408.05.016.001.031.005.047.006.125.006.249 0 .372-.008.025-.002.051.001.076-.002a3.07 3.07 0 0 0 .36-.059c.025-.005.051-.007.076-.012.277-.065.543-.168.792-.301l.023-.011c.104-.056.202-.121.299-.188.023-.016.047-.028.07-.044a3.22 3.22 0 0 0 1.298-3.187l-12.701-74.05 53.8-52.442c.121-.118.23-.241.328-.369.032-.041.055-.085.084-.128.061-.088.124-.176.175-.267.07-.125.128-.254.179-.384l.014-.031c.041-.107.069-.216.098-.325.009-.035.023-.069.031-.104.028-.125.045-.252.058-.378l.009-.058a3.338 3.338 0 0 0-.139-1.238z" fill="#e1effb"/><g fill="#c1d8e5"><path d="M369.166 82.267c-.005-.018-.008-.036-.014-.054a3.218 3.218 0 0 0-2.631-2.22l-39.306-5.712-50.357 49.086 12.84 74.862 32.803 17.245c.149.078.3.144.452.198.149.053.298.093.448.122l.008.002c.136.027.272.041.408.05.016.001.031.005.047.006.125.006.249 0 .372-.008.025-.002.051.001.076-.002.122-.011.242-.034.361-.059.025-.005.051-.006.076-.012.277-.065.543-.168.792-.301l.023-.011c.104-.056.202-.121.299-.188.023-.016.047-.028.07-.044a3.22 3.22 0 0 0 1.298-3.187l-12.701-74.05 53.8-52.442c.121-.118.23-.241.328-.369.032-.041.055-.085.084-.128.061-.088.124-.176.175-.267.07-.125.128-.254.179-.384l.014-.031c.041-.107.069-.216.098-.325.009-.035.023-.069.031-.104.028-.125.045-.252.058-.378l.009-.058a3.356 3.356 0 0 0-.14-1.237zM256 0a3.218 3.218 0 0 0-2.921 1.816L236.075 36.27l8.385 16.99a20.637 20.637 0 0 0 15.559 11.292l32.153 4.637-33.25-67.373A3.22 3.22 0 0 0 256 0z"/></g></svg>