<svg xmlns="http://www.w3.org/2000/svg" viewBox="0 0 512.001 512.001"><path d="M183.207 302.686c-4.473 0-8.111-3.639-8.111-8.112v-7.211c0-2.86.608-5.995 1.808-9.321 1.212-3.362 3.275-6.46 6.13-9.208l68.265-68.422c5.779-5.779 10.94-11.392 15.341-16.685 4.384-5.27 8.09-10.51 11.014-15.577 2.907-5.037 5.118-10.219 6.57-15.402 1.45-5.176 2.185-10.692 2.185-16.395 0-9.938-2.57-17.574-7.641-22.697-5.07-5.117-12.356-7.711-21.655-7.711-4.098 0-7.913.595-11.338 1.769-3.428 1.178-6.537 2.81-9.24 4.849-2.974 2.247-5.26 4.606-6.986 7.21-4.569 6.898-6.106 11.914-7.591 16.765-.525 1.713-1.067 3.484-1.731 5.29a3.409 3.409 0 0 1-3.188 2.24c-.204 0-.409-.018-.615-.056l-34.72-6.385c-1.819-.335-3.044-2.079-2.732-3.888 1.776-10.343 4.896-19.621 9.273-27.576 4.696-8.542 10.659-15.752 17.724-21.427 7.057-5.666 15.239-9.973 24.317-12.804 9.059-2.823 18.939-4.255 29.367-4.255 10.969 0 21.103 1.65 30.124 4.905 9.034 3.263 16.869 7.873 23.288 13.703 6.433 5.845 11.487 12.99 15.022 21.238 3.533 8.243 5.323 17.463 5.323 27.401 0 8.545-1.247 16.563-3.707 23.832a94.791 94.791 0 0 1-10.032 20.79c-4.198 6.531-9.12 12.96-14.629 19.107a560.575 560.575 0 0 1-17.5 18.614l-41.195 42.131a.6.6 0 0 0-.128.672.6.6 0 0 0 .571.379h85.382a4.738 4.738 0 0 1 4.733 4.733v32.773a4.738 4.738 0 0 1-4.733 4.733H183.207v-.002z" fill="#fd9727"/><g fill="#ff6d3a"><path d="M290.13 214.603a555.36 555.36 0 0 0 14.912-15.951c5.51-6.147 10.432-12.576 14.629-19.107a94.791 94.791 0 0 0 10.032-20.79c2.46-7.269 3.707-15.287 3.707-23.832 0-9.938-1.79-19.158-5.323-27.401-3.536-8.248-8.59-15.393-15.022-21.238-6.333-5.753-14.051-10.312-22.934-13.567v141.886h-.001zM336.904 297.953V265.18a4.738 4.738 0 0 0-4.733-4.733H290.13v42.239h42.041a4.738 4.738 0 0 0 4.733-4.733z"/></g><g fill="#fd9727"><path d="M39.097 110.51c12.916-14.092 26.452-26.773 41.355-38.546 1.753-1.384 4.276.273 3.689 2.428-8.353 30.703-22.948 61.045-45.448 83.601-1.01-15.791-1.025-31.714.404-47.483zM38.695 158.005c-12.99-15.676-24.152-31.883-34.211-49.381-1.15-2.001-4.209-1.287-4.326 1.018-1.814 35.843 11.881 77.782 45.246 94.697-3.325-15.243-5.721-30.754-6.709-46.334z"/><path d="M45.402 204.327c8.175-16.82 17.326-32.47 28.051-47.64 1.273-1.8 4.126-.975 4.219 1.227 1.307 30.962-4.006 63.692-18.842 90.871-5.498-14.466-10.138-29.325-13.428-44.458zM58.834 248.797c-16.867-10.84-32.276-22.694-47.056-36.007-1.705-1.536-4.38.068-3.802 2.288 8.904 34.236 34.367 69.369 70.62 75.574-7.536-13.458-14.287-27.425-19.762-41.855z"/><path d="M78.59 290.642c2.955-18.351 7.181-35.856 13.064-53.357.7-2.082 3.655-2.122 4.388-.052 10.289 29.048 14.457 61.819 8.249 91.936-9.435-12.212-18.165-25.047-25.701-38.527zM104.299 329.179c-19.228-5.447-37.392-12.26-55.383-20.61-2.078-.965-4.161 1.347-2.963 3.301 18.497 30.164 53.127 56.281 89.602 51.78-11.197-10.727-21.778-22.186-31.256-34.471z"/><path d="M135.546 363.642c-2.624-18.489-3.738-36.521-3.223-55.057.061-2.197 2.88-3.098 4.184-1.329 18.423 24.977 32.166 55.317 35.455 86.077-12.81-9.002-25.11-18.843-36.416-29.691zM472.903 110.51c-12.916-14.092-26.452-26.773-41.355-38.546-1.753-1.384-4.276.273-3.689 2.428 8.353 30.703 22.948 61.045 45.448 83.601 1.01-15.791 1.025-31.714-.404-47.483zM473.305 158.005c12.99-15.676 24.152-31.883 34.211-49.381 1.15-2.001 4.209-1.287 4.326 1.018 1.814 35.843-11.881 77.782-45.246 94.697 3.325-15.243 5.721-30.754 6.709-46.334z"/><path d="M466.598 204.327c-8.175-16.82-17.326-32.47-28.051-47.64-1.273-1.8-4.126-.975-4.219 1.227-1.307 30.962 4.006 63.692 18.842 90.871 5.498-14.466 10.138-29.325 13.428-44.458zM453.166 248.797c16.867-10.84 32.276-22.694 47.056-36.007 1.705-1.536 4.38.068 3.802 2.288-8.904 34.236-34.367 69.369-70.62 75.574 7.536-13.458 14.287-27.425 19.762-41.855z"/><path d="M433.41 290.642c-2.955-18.351-7.181-35.856-13.064-53.357-.7-2.082-3.655-2.122-4.388-.052-10.289 29.048-14.457 61.819-8.249 91.936 9.435-12.212 18.165-25.047 25.701-38.527zM407.701 329.179c19.228-5.447 37.392-12.26 55.383-20.61 2.079-.965 4.161 1.347 2.964 3.301-18.497 30.164-53.127 56.281-89.602 51.78 11.196-10.727 21.777-22.186 31.255-34.471z"/><path d="M376.454 363.642c2.624-18.489 3.738-36.521 3.223-55.057-.061-2.197-2.88-3.098-4.184-1.329-18.423 24.977-32.166 55.317-35.455 86.077 12.81-9.002 25.11-18.843 36.416-29.691z"/></g><path d="M480.34 111.142c-.003-.152 0-.303-.011-.456-1.766-23.507-6.099-47.072-12.879-70.039a7.727 7.727 0 0 0-9.598-5.223 7.727 7.727 0 0 0-5.224 9.598c6.406 21.699 10.515 43.949 12.231 66.143.004.166.005.332.02.5 1.302 14.349 1.432 29.898.388 46.217a.123.123 0 0 0-.002.019c-.898 14.169-3.097 29.341-6.534 45.095l-.001.004c-2.992 13.763-7.394 28.327-13.08 43.288l-.005.014v.001c-4.985 13.138-11.461 26.849-19.247 40.753-6.865 12.279-15.286 24.901-25.032 37.516l-.005.007-.005.006c-8.638 11.195-18.876 22.484-30.431 33.556l-.001.001c-10.297 9.88-22.225 19.602-35.455 28.899-.048.034-.09.073-.137.107-.045.033-.093.061-.137.095-22.256 17.1-33.534 21.365-45.474 25.878-9.457 3.576-19.111 7.235-33.719 16.973-14.608-9.738-24.262-13.397-33.719-16.973-11.94-4.514-23.218-8.778-45.474-25.878-.044-.034-.092-.061-.137-.094-.047-.035-.09-.074-.138-.108-13.23-9.296-25.158-19.019-35.455-28.899l-.001-.001c-11.555-11.071-21.793-22.361-30.431-33.556l-.005-.006-.005-.007c-9.746-12.615-18.168-25.237-25.032-37.516-7.787-13.904-14.262-27.615-19.247-40.753l-.001-.001-.005-.014C60.664 231.327 56.263 216.763 53.27 203l-.001-.004c-3.438-15.754-5.636-30.927-6.534-45.095l-.002-.019c-1.044-16.318-.914-31.868.388-46.217.015-.168.016-.334.02-.5 1.716-22.194 5.825-44.443 12.231-66.143a7.727 7.727 0 0 0-5.224-9.598c-4.089-1.211-8.39 1.13-9.598 5.223-6.78 22.967-11.113 46.532-12.879 70.039-.012.153-.009.304-.011.456-1.3 14.895-1.423 30.943-.348 47.727v.011c.948 14.933 3.254 30.871 6.852 47.372l.005.033c3.156 14.509 7.776 29.814 13.734 45.489a.056.056 0 0 1 .004.012c5.253 13.841 12.049 28.242 20.202 42.802l.005.009c7.236 12.943 16.082 26.207 26.294 39.423l.003.003.001.002c9.108 11.805 19.867 23.674 31.979 35.279l.01.009c10.823 10.382 23.312 20.569 37.121 30.281 23.982 18.411 36.851 23.277 49.294 27.982 7.745 2.928 15.284 5.784 25.721 12.203-7.99 6.124-17.244 13.808-28.224 23.632a7.726 7.726 0 0 0 5.155 13.485 7.693 7.693 0 0 0 5.149-1.969c12.732-11.393 22.908-19.719 31.383-25.981 8.474 6.262 18.65 14.588 31.383 25.981a7.698 7.698 0 0 0 5.149 1.969 7.707 7.707 0 0 0 5.761-2.575 7.725 7.725 0 0 0-.606-10.91c-10.979-9.825-20.234-17.509-28.224-23.632 10.436-6.419 17.976-9.275 25.721-12.203 12.444-4.704 25.312-9.571 49.294-27.982 13.809-9.712 26.298-19.899 37.121-30.281l.01-.009c12.112-11.605 22.871-23.474 31.979-35.279l.001-.002.003-.003c10.212-13.216 19.058-26.48 26.294-39.423l.005-.009c8.152-14.56 14.949-28.961 20.202-42.802l.004-.012c5.958-15.675 10.578-30.98 13.734-45.489l.005-.033c3.599-16.501 5.904-32.439 6.852-47.372v-.011c1.075-16.784.953-32.832-.348-47.727z" fill="#ff6d3a"/></svg>