<svg xmlns="http://www.w3.org/2000/svg" viewBox="0 0 512 512"><path d="M402.475 119.543C350.333 98.632 308.409 155.745 256 132.322V40.918c52.877 23.631 95.08-34.713 147.873-12.2a1.854 1.854 0 0 1 1.117 1.701v87.418c-.001 1.297-1.311 2.189-2.515 1.706z" fill="#ff4c4c"/><path d="M403.873 28.718c-15.869-6.767-30.781-6.224-45.314-2.802v91.402c14.106-3.322 28.568-3.93 43.916 2.226 1.204.483 2.514-.409 2.514-1.706V30.419c0-.736-.439-1.412-1.116-1.701z" fill="#ea2828"/><path d="M256 260.469a7.935 7.935 0 0 1-7.935-7.935V39.578a7.935 7.935 0 0 1 15.87 0v212.956a7.935 7.935 0 0 1-7.935 7.935z" fill="#2c5871"/><path d="M384.843 294.971L265.735 488.554h237.461c6.877 0 11.091-7.54 7.487-13.397L399.817 294.971c-3.432-5.579-11.541-5.579-14.974 0z" fill="#b9bbc1"/><path d="M510.682 475.157L399.817 294.971c-3.432-5.579-11.541-5.579-14.974 0l-18.991 30.866 100.117 162.717h37.227c6.876 0 11.09-7.54 7.486-13.397z" fill="#a0a3aa"/><g fill="#b9bbc1"><path d="M112.183 294.971L1.318 475.157c-3.604 5.857.61 13.397 7.487 13.397h237.461L127.157 294.971c-3.433-5.579-11.542-5.579-14.974 0z"/><path d="M248.513 205.779L74.527 488.554h362.947L263.487 205.779c-3.433-5.578-11.541-5.578-14.974 0z"/></g><g fill="#a0a3aa"><path d="M263.487 205.779c-3.432-5.579-11.541-5.579-14.974 0l-15.615 25.379 158.371 257.396h46.204L263.487 205.779zM136.68 310.449L27.095 488.554h47.432l85.869-139.56z"/></g></svg>