<svg xmlns="http://www.w3.org/2000/svg" viewBox="0 0 512.001 512.001"><path d="M442.932 174.584l-183.046 87.599a9.002 9.002 0 0 1-7.772 0L69.068 174.584a9.002 9.002 0 0 1-5.116-8.12V9.002A9 9 0 0 1 72.954 0h366.093a9.002 9.002 0 0 1 9.002 9.002v157.462a9.001 9.001 0 0 1-5.117 8.12z" fill="#ff4c4c"/><path d="M439.046 0h-37.551v172.136l-168.772 80.768 19.391 9.28a9.002 9.002 0 0 0 7.772 0l183.046-87.599a9.002 9.002 0 0 0 5.116-8.12V9.002c.001-4.971-4.03-9.002-9.002-9.002z" fill="#ea2828"/><path d="M324.05 0H187.951v231.477l64.163 30.706a9.002 9.002 0 0 0 7.772 0l64.163-30.706L324.05 0z" fill="#e1effb"/><path d="M242.185 257.432l9.929 4.752a9.002 9.002 0 0 0 7.772 0l64.163-30.706v-22.279l-91.326 43.705 9.462 4.528z" fill="#c3d8e5"/><path d="M258.995 264.094l37.937 76.868a3.34 3.34 0 0 0 2.515 1.827l84.829 12.326c2.739.398 3.833 3.765 1.851 5.697l-61.383 59.833a3.343 3.343 0 0 0-.961 2.956l14.49 84.486c.468 2.728-2.396 4.809-4.846 3.521l-75.873-39.889a3.336 3.336 0 0 0-3.108 0l-75.873 39.889c-2.45 1.288-5.314-.792-4.846-3.521l14.49-84.486a3.337 3.337 0 0 0-.961-2.956l-61.383-59.833c-1.982-1.932-.888-5.299 1.851-5.697l84.829-12.326a3.34 3.34 0 0 0 2.515-1.827l37.937-76.868c1.225-2.482 4.765-2.482 5.99 0z" fill="#ffb125"/><g fill="#ff901d"><path d="M249.085 338.746l48.47 3.061a3.306 3.306 0 0 1-.624-.845l-37.937-76.868c-1.225-2.482-4.765-2.482-5.99 0l-20.381 41.297 16.462 33.355zM386.126 360.813c1.982-1.932.888-5.299-1.851-5.697l-33.99-4.939-73.551 71.695 11.298 65.872 45.396 23.866c2.45 1.288 5.314-.792 4.846-3.521l-14.491-84.486a3.337 3.337 0 0 1 .961-2.956l61.382-59.834z"/></g></svg>