<svg xmlns="http://www.w3.org/2000/svg" viewBox="0 0 512 512"><path d="M502.096 200.196c-.012-.039-.017-.079-.03-.118-.779-2.406-2.812-4.406-5.721-4.829l-161.686-23.494-72.307-146.512c-1.299-2.633-3.826-3.949-6.352-3.949-2.527 0-5.053 1.316-6.352 3.949l-72.309 146.512-161.686 23.494c-.078.011-.148.036-.224.049-.281.05-.561.102-.824.181-.112.033-.212.083-.321.121-.217.076-.437.148-.641.243-.085.04-.159.092-.242.134-.215.111-.431.22-.63.35-.031.02-.056.045-.087.066a7.01 7.01 0 0 0-.69.526l-.023.023a7.033 7.033 0 0 0-.654.661l-.03.04a7.208 7.208 0 0 0-1.356 2.433c-.778 2.401-.306 5.208 1.794 7.255l116.997 114.044-27.619 161.033c-.025.147-.026.288-.043.433-.024.212-.057.427-.063.634-.002.083.011.161.012.243.003.265.006.529.037.785.007.06.025.116.034.176.04.272.086.543.157.803.006.022.016.042.022.063.172.61.422 1.185.742 1.712.005.008.011.014.015.022a7.144 7.144 0 0 0 1.179 1.455l.008.007c.227.215.468.415.721.598l.001.001c2.044 1.483 4.859 1.902 7.456.537l144.618-76.03 144.616 76.029c.325.171.653.314.983.43.324.114.649.202.974.266l.017.005c.297.058.592.089.887.108.034.002.068.011.102.012.272.013.542.001.81-.018.054-.004.11.001.164-.004.265-.025.526-.074.784-.128.054-.011.111-.014.164-.027a7.124 7.124 0 0 0 1.722-.654c.016-.009.034-.014.05-.023.225-.122.438-.264.649-.409.049-.034.103-.06.151-.095 2.046-1.485 3.319-4.036 2.822-6.931l-27.619-161.032 116.997-114.044c.263-.256.5-.524.712-.802.069-.09.119-.186.182-.277.133-.192.271-.382.381-.581.152-.272.277-.552.389-.835.009-.023.022-.044.031-.067.088-.232.151-.469.213-.706.02-.076.051-.15.068-.227.061-.272.098-.547.126-.822.004-.042.016-.084.019-.127a7.152 7.152 0 0 0-.297-2.692z" fill="#61aff6"/><path d="M502.096 200.196c-.012-.039-.017-.079-.03-.118-.779-2.406-2.812-4.406-5.721-4.829l-43.047-6.255-119.366 116.354 28.177 164.285 38.507 20.244c.325.171.653.314.983.43.324.114.649.202.974.266l.017.005c.297.058.592.089.887.108.034.002.068.011.102.012.272.013.542.001.81-.018.055-.004.11.001.165-.004.266-.025.526-.074.784-.128.054-.011.111-.014.165-.027a7.14 7.14 0 0 0 1.722-.654c.016-.009.034-.014.05-.023.225-.122.438-.264.649-.409.049-.034.103-.06.151-.095 2.046-1.485 3.319-4.036 2.822-6.931l-27.619-161.032 116.997-114.044c.263-.256.5-.524.712-.801.069-.09.119-.186.182-.277.133-.192.271-.382.382-.581.152-.272.277-.552.388-.835.009-.023.022-.044.031-.067.088-.232.151-.469.213-.706.02-.076.051-.151.068-.227.061-.272.098-.547.126-.822.004-.042.016-.084.019-.127a7.22 7.22 0 0 0-.3-2.694z" fill="#49a0e8"/><path d="M254.753 369.718l-98.627 51.852c-1.964 1.032-4.259-.635-3.884-2.822l18.837-109.823a2.676 2.676 0 0 0-.77-2.369l-79.793-77.779c-1.589-1.549-.712-4.247 1.484-4.566l110.27-16.023a2.678 2.678 0 0 0 2.016-1.464l49.314-99.921c.982-1.99 3.819-1.99 4.801 0l49.315 99.921a2.676 2.676 0 0 0 2.016 1.464l110.267 16.023c2.196.319 3.072 3.017 1.484 4.566l-79.792 77.779a2.676 2.676 0 0 0-.77 2.369l18.836 109.824c.375 2.187-1.92 3.854-3.884 2.822l-98.628-51.853a2.678 2.678 0 0 0-2.492 0z" fill="#fed130"/><g fill="#f7bc14"><path d="M251.797 198.265a2.676 2.676 0 0 0 2.016 1.464l54.699 7.948a2.672 2.672 0 0 1-.798-.954l-49.315-99.92c-.982-1.99-3.819-1.99-4.801 0l-23.47 47.556 21.669 43.906zM421.483 228.777c1.589-1.549.712-4.247-1.484-4.566l-51.592-7.496-74.108 72.237a3.54 3.54 0 0 0-1.018 3.132l18.206 106.152 44.385 23.335c1.964 1.032 4.259-.635 3.884-2.822L340.92 308.925a2.676 2.676 0 0 1 .77-2.369l79.793-77.779z"/></g><path d="M451.495 407.79c-116.176-93.245-274.82-93.247-390.991 0-1.16.977-2.767.681-3.053-.58a543.997 543.997 0 0 1-7.875-48.453 1.299 1.299 0 0 0-.806-1.098c-15.532-6.693-31.611-12.156-47.878-16.748-1.33-.37-1.145-2.205.366-3.478 150.015-121.763 359.473-121.756 509.483 0 1.511 1.273 1.696 3.108.366 3.478-16.313 4.462-32.3 10.185-47.878 16.748a1.299 1.299 0 0 0-.806 1.098 543.975 543.975 0 0 1-7.875 48.452c-.287 1.262-1.893 1.558-3.053.581z" fill="#e1effb"/><path d="M48.593 357.586l.176.074c.465.198.755.595.806 1.098a544.056 544.056 0 0 0 7.875 48.453c.286 1.261 1.893 1.557 3.053.58 116.172-93.247 274.815-93.245 390.991 0 1.16.977 2.767.681 3.053-.58a544.034 544.034 0 0 0 7.875-48.452c.051-.503.341-.9.806-1.098l.177-.073c-125.157-92.144-289.658-92.145-414.812-.002z" fill="#c3d8e5"/></svg>